<svg width="293" height="293" viewBox="0 0 293 293" fill="none" xmlns="http://www.w3.org/2000/svg">
<path d="M145.29 246.38C131.394 246.38 117.81 242.259 106.256 234.539C94.7015 226.819 85.6961 215.846 80.3783 203.007C75.0605 190.169 73.6691 176.042 76.3801 162.413C79.0911 148.784 85.7827 136.265 95.6087 126.439C105.435 116.613 117.954 109.921 131.583 107.21C145.212 104.499 159.339 105.891 172.177 111.208C185.016 116.526 195.989 125.532 203.709 137.086C211.429 148.64 215.55 162.224 215.55 176.12C215.529 194.748 208.12 212.606 194.948 225.778C181.776 238.95 163.918 246.359 145.29 246.38ZM145.29 117.65C133.726 117.65 122.421 121.079 112.806 127.504C103.191 133.929 95.6962 143.061 91.2708 153.745C86.8453 164.429 85.6874 176.185 87.9435 187.527C90.1996 198.869 95.7683 209.287 103.946 217.465C112.123 225.642 122.541 231.211 133.883 233.467C145.225 235.723 156.982 234.565 167.666 230.139C178.35 225.714 187.481 218.22 193.906 208.604C200.331 198.989 203.76 187.684 203.76 176.12C203.742 160.619 197.575 145.757 186.614 134.796C175.653 123.835 160.792 117.669 145.29 117.65Z" fill="#005CCE"/>
<path d="M145.29 244.42C131.782 244.42 118.576 240.414 107.345 232.909C96.1127 225.405 87.3585 214.738 82.189 202.257C77.0196 189.777 75.667 176.044 78.3024 162.795C80.9378 149.547 87.4427 137.377 96.9946 127.825C106.547 118.273 118.716 111.768 131.965 109.132C145.214 106.497 158.947 107.85 171.427 113.019C183.908 118.189 194.575 126.943 202.079 138.175C209.584 149.407 213.59 162.612 213.59 176.12C213.572 194.229 206.37 211.59 193.565 224.395C180.76 237.2 163.399 244.402 145.29 244.42ZM145.29 115.69C133.336 115.69 121.65 119.235 111.71 125.877C101.771 132.518 94.0241 141.958 89.4498 153.003C84.8755 164.048 83.6792 176.201 86.0121 187.925C88.345 199.649 94.1024 210.419 102.556 218.871C111.01 227.323 121.78 233.079 133.505 235.41C145.23 237.741 157.383 236.543 168.426 231.967C179.47 227.39 188.909 219.642 195.549 209.701C202.189 199.761 205.732 188.074 205.73 176.12C205.712 160.097 199.337 144.736 188.006 133.407C176.676 122.077 161.313 115.706 145.29 115.69Z" fill="#005CCE"/>
<path d="M145.29 241.8C132.299 241.804 119.598 237.955 108.795 230.741C97.9912 223.526 89.5697 213.27 84.5954 201.268C79.6212 189.267 78.3177 176.061 80.8497 163.319C83.3817 150.577 89.6356 138.872 98.8203 129.684C108.005 120.497 119.708 114.239 132.449 111.703C145.19 109.168 158.398 110.467 170.4 115.438C182.403 120.408 192.662 128.827 199.88 139.628C207.098 150.429 210.95 163.129 210.95 176.12C210.932 193.53 204.009 210.222 191.7 222.535C179.39 234.848 162.7 241.776 145.29 241.8ZM145.29 113.07C132.815 113.07 120.621 116.77 110.25 123.702C99.8782 130.633 91.7957 140.486 87.0246 152.012C82.2535 163.538 81.0082 176.22 83.4462 188.454C85.8843 200.689 91.8961 211.925 100.721 220.741C109.546 229.558 120.788 235.559 133.025 237.986C145.261 240.412 157.942 239.155 169.464 234.373C180.985 229.591 190.83 221.499 197.752 211.121C204.674 200.743 208.362 188.545 208.35 176.07C208.318 159.361 201.662 143.346 189.842 131.536C178.021 119.726 161.999 113.086 145.29 113.07Z" fill="#F5F8FD"/>
<path style="mix-blend-mode:screen" d="M146.65 292.96C227.317 292.96 292.71 227.567 292.71 146.9C292.71 66.2334 227.317 0.840088 146.65 0.840088C65.9834 0.840088 0.590088 66.2334 0.590088 146.9C0.590088 227.567 65.9834 292.96 146.65 292.96Z" fill="url(#paint0_radial_7_4118)"/>
<defs>
<radialGradient id="paint0_radial_7_4118" cx="0" cy="0" r="1" gradientUnits="userSpaceOnUse" gradientTransform="translate(146.65 146.9) scale(146.06)">
<stop stop-color="#002F87"/>
<stop offset="0.18" stop-color="#002365"/>
<stop offset="0.44" stop-color="#00143A"/>
<stop offset="0.67" stop-color="#00091A"/>
<stop offset="0.86" stop-color="#000207"/>
<stop offset="1"/>
</radialGradient>
</defs>
</svg>
