<svg width="816" height="551" viewBox="0 0 816 551" fill="none" xmlns="http://www.w3.org/2000/svg">
<path d="M747.76 550.49H707.76C705.675 550.49 703.676 549.662 702.202 548.188C700.728 546.714 699.9 544.714 699.9 542.63C699.9 540.545 700.728 538.546 702.202 537.072C703.676 535.598 705.675 534.77 707.76 534.77H747.76C761.5 534.751 774.671 529.284 784.385 519.568C794.1 509.852 799.564 496.679 799.58 482.94V159.14C799.564 145.401 794.099 132.23 784.385 122.515C774.67 112.8 761.499 107.336 747.76 107.32H67.9999C54.2613 107.336 41.0899 112.8 31.3752 122.515C21.6605 132.23 16.1958 145.401 16.1799 159.14V482.94C16.1958 496.679 21.6602 509.852 31.3746 519.568C41.089 529.284 54.2604 534.751 67.9999 534.77H111C113.085 534.77 115.084 535.598 116.558 537.072C118.032 538.546 118.86 540.545 118.86 542.63C118.86 544.714 118.032 546.714 116.558 548.188C115.084 549.662 113.085 550.49 111 550.49H67.9999C50.092 550.469 32.9237 543.345 20.2618 530.681C7.59993 518.017 0.478487 500.848 0.459961 482.94V159.14C0.478491 141.233 7.60026 124.065 20.2625 111.402C32.9246 98.7401 50.0929 91.6184 67.9999 91.5999H747.76C765.667 91.6184 782.835 98.7401 795.497 111.402C808.16 124.065 815.281 141.233 815.3 159.14V482.94C815.281 500.848 808.16 518.017 795.498 530.681C782.836 543.345 765.668 550.469 747.76 550.49Z" fill="#005CCE"/>
<path d="M747.76 548.52H707.76C706.239 548.457 704.8 547.809 703.746 546.71C702.692 545.612 702.103 544.148 702.103 542.625C702.103 541.102 702.692 539.639 703.746 538.54C704.8 537.441 706.239 536.793 707.76 536.73H747.76C762.02 536.714 775.692 531.042 785.774 520.957C795.857 510.873 801.527 497.2 801.54 482.94V159.14C801.527 144.88 795.857 131.207 785.774 121.123C775.692 111.038 762.02 105.366 747.76 105.35H67.9999C53.7388 105.366 40.0664 111.038 29.9822 121.122C19.8981 131.206 14.2258 144.879 14.21 159.14V482.94C14.2258 497.201 19.8981 510.874 29.9822 520.958C40.0664 531.042 53.7388 536.714 67.9999 536.73H111C111.795 536.697 112.587 536.826 113.331 537.107C114.075 537.389 114.754 537.818 115.328 538.368C115.902 538.919 116.358 539.58 116.67 540.311C116.982 541.043 117.143 541.83 117.143 542.625C117.143 543.42 116.982 544.207 116.67 544.939C116.358 545.67 115.902 546.331 115.328 546.882C114.754 547.433 114.075 547.862 113.331 548.143C112.587 548.425 111.795 548.553 111 548.52H67.9999C50.6135 548.499 33.9453 541.583 21.6512 529.289C9.3572 516.995 2.44109 500.326 2.41992 482.94V159.14C2.44109 141.754 9.3572 125.085 21.6512 112.791C33.9453 100.497 50.6135 93.5812 67.9999 93.5601H747.76C765.145 93.5812 781.813 100.498 794.105 112.792C806.398 125.086 813.311 141.755 813.33 159.14V482.94C813.311 500.326 806.398 516.994 794.105 529.288C781.813 541.582 765.145 548.499 747.76 548.52Z" fill="#005CCE"/>
<path d="M747.76 546.56H707.76C706.718 546.56 705.718 546.146 704.981 545.409C704.244 544.672 703.83 543.672 703.83 542.63C703.83 541.588 704.244 540.588 704.981 539.851C705.718 539.114 706.718 538.7 707.76 538.7H747.76C762.542 538.682 776.713 532.801 787.164 522.347C797.616 511.894 803.494 497.722 803.51 482.94V159.14C803.494 144.359 797.615 130.188 787.164 119.736C776.712 109.285 762.541 103.406 747.76 103.39H67.9999C53.2189 103.406 39.048 109.285 28.5963 119.736C18.1445 130.188 12.2658 144.359 12.2499 159.14V482.94C12.2658 497.722 18.1442 511.894 28.5956 522.347C39.0471 532.801 53.218 538.682 67.9999 538.7H111C112.042 538.7 113.042 539.114 113.779 539.851C114.516 540.588 114.93 541.588 114.93 542.63C114.93 543.672 114.516 544.672 113.779 545.409C113.042 546.146 112.042 546.56 111 546.56H67.9999C51.1334 546.541 34.9632 539.832 23.0378 527.905C11.1123 515.978 4.40577 499.806 4.38989 482.94V159.14C4.40842 142.275 11.1161 126.107 23.0413 114.181C34.9665 102.256 51.1351 95.5486 67.9999 95.53H747.76C764.625 95.5486 780.793 102.256 792.718 114.181C804.644 126.107 811.351 142.275 811.37 159.14V482.94C811.351 499.806 804.644 515.975 792.719 527.902C780.794 539.829 764.626 546.539 747.76 546.56Z" fill="#005CCE"/>
<path d="M747.76 543.94H707.76C707.413 543.94 707.079 543.802 706.834 543.556C706.588 543.311 706.45 542.977 706.45 542.63C706.45 542.282 706.588 541.949 706.834 541.704C707.079 541.458 707.413 541.32 707.76 541.32H747.76C763.236 541.299 778.072 535.141 789.014 524.197C799.956 513.253 806.112 498.416 806.13 482.94V159.14C806.112 143.665 799.956 128.829 789.013 117.887C778.071 106.944 763.235 100.788 747.76 100.77H68C52.5242 100.786 37.6868 106.941 26.7437 117.884C15.8007 128.827 9.64589 143.664 9.63 159.14V482.94C9.64588 498.417 15.8003 513.255 26.7431 524.2C37.6859 535.144 52.5233 541.301 68 541.32H111C111.347 541.32 111.681 541.458 111.926 541.704C112.172 541.949 112.31 542.282 112.31 542.63C112.31 542.977 112.172 543.311 111.926 543.556C111.681 543.802 111.347 543.94 111 543.94H68C51.8267 543.924 36.3203 537.492 24.884 526.056C13.4478 514.62 7.01588 499.113 7 482.94V159.14C7.01588 142.967 13.4478 127.46 24.884 116.024C36.3203 104.588 51.8267 98.1558 68 98.1399H747.76C763.933 98.1558 779.44 104.588 790.876 116.024C802.312 127.46 808.744 142.967 808.76 159.14V482.94C808.744 499.113 802.312 514.62 790.876 526.056C779.44 537.492 763.933 543.924 747.76 543.94Z" fill="#F5F8FD"/>
<path style="mix-blend-mode:screen" d="M422.23 201.45C625.675 201.45 790.6 156.45 790.6 100.94C790.6 45.4298 625.675 0.429932 422.23 0.429932C218.785 0.429932 53.8599 45.4298 53.8599 100.94C53.8599 156.45 218.785 201.45 422.23 201.45Z" fill="url(#paint0_radial_7_3986)"/>
<defs>
<radialGradient id="paint0_radial_7_3986" cx="0" cy="0" r="1" gradientUnits="userSpaceOnUse" gradientTransform="translate(421.897 102.894) scale(368.071 100.781)">
<stop stop-color="#002F87"/>
<stop offset="0.18" stop-color="#002365"/>
<stop offset="0.44" stop-color="#00143A"/>
<stop offset="0.67" stop-color="#00091A"/>
<stop offset="0.86" stop-color="#000207"/>
<stop offset="1"/>
</radialGradient>
</defs>
</svg>
