<svg width="656" height="116" viewBox="0 0 656 116" fill="none" xmlns="http://www.w3.org/2000/svg">
<g style="mix-blend-mode:screen">
<path d="M598.711 101.055H58.6609C52.9902 101.061 47.3738 99.9502 42.1328 97.7847C36.8918 95.6191 32.1291 92.4417 28.1169 88.4342C24.1048 84.4267 20.9219 79.6677 18.7503 74.4292C16.5787 69.1908 15.4609 63.5756 15.4609 57.9049C15.4609 52.2337 16.5786 46.6181 18.7501 41.379C20.9216 36.14 24.1043 31.3803 28.1163 27.372C32.1283 23.3637 36.891 20.1854 42.132 18.0188C47.373 15.8521 52.9897 14.7396 58.6609 14.7449H598.751C604.418 14.7449 610.03 15.8613 615.266 18.0304C620.502 20.1996 625.259 23.3789 629.266 27.3868C633.273 31.3947 636.451 36.1527 638.619 41.389C640.787 46.6254 641.902 52.2375 641.901 57.9049C641.901 63.5748 640.783 69.1891 638.612 74.4269C636.441 79.6647 633.26 84.4233 629.248 88.4307C625.237 92.4381 620.476 95.6156 615.236 97.7818C609.996 99.9479 604.381 101.06 598.711 101.055Z" fill="url(#paint0_linear_49_1310)"/>
</g>
<g opacity="0.04">
<path d="M598.711 115.795H58.6609C50.994 115.896 43.3834 114.473 36.2709 111.608C29.1584 108.744 22.6857 104.496 17.2284 99.1096C11.7711 93.7236 7.43798 87.3072 4.48047 80.233C1.52296 73.1588 0 65.5676 0 57.9C0 50.2324 1.52296 42.6412 4.48047 35.567C7.43798 28.4928 11.7711 22.0764 17.2284 16.6904C22.6857 11.3043 29.1584 7.05587 36.2709 4.19158C43.3834 1.32729 50.994 -0.0957644 58.6609 0.00500039H598.751C613.974 0.205073 628.505 6.39276 639.2 17.2284C649.894 28.0641 655.89 42.6758 655.89 57.9C655.89 73.1242 649.894 87.7359 639.2 98.5716C628.505 109.407 613.974 115.595 598.751 115.795H598.711ZM58.6609 29.485C51.1234 29.485 43.8947 32.4792 38.5649 37.809C33.2352 43.1388 30.2409 50.3675 30.2409 57.905C30.2409 65.4425 33.2352 72.6712 38.5649 78.001C43.8947 83.3308 51.1234 86.325 58.6609 86.325H598.751C606.195 86.1853 613.286 83.1302 618.501 77.8166C623.716 72.503 626.638 65.3551 626.638 57.91C626.638 50.4649 623.716 43.317 618.501 38.0034C613.286 32.6897 606.195 29.6346 598.751 29.495L58.6609 29.485Z" fill="#0000DF"/>
</g>
<g opacity="0.05">
<path d="M598.711 113.695H58.6611C43.8646 113.695 29.6743 107.817 19.2116 97.3545C8.74895 86.8918 2.87109 72.7014 2.87109 57.905C2.87109 43.1086 8.74895 28.9182 19.2116 18.4555C29.6743 7.99285 43.8646 2.11499 58.6611 2.11499H598.751C613.547 2.11499 627.738 7.99285 638.201 18.4555C648.663 28.9182 654.541 43.1086 654.541 57.905C654.541 72.7014 648.663 86.8918 638.201 97.3545C627.738 107.817 613.547 113.695 598.751 113.695H598.711ZM58.6611 27.385C54.5628 27.2365 50.4767 27.9156 46.6467 29.3815C42.8167 30.8474 39.3214 33.0701 36.3696 35.917C33.4178 38.7638 31.07 42.1763 29.4664 45.9508C27.8628 49.7252 27.0364 53.784 27.0364 57.885C27.0364 61.9859 27.8628 66.0448 29.4664 69.8192C31.07 73.5936 33.4178 77.0062 36.3696 79.853C39.3214 82.6998 42.8167 84.9226 46.6467 86.3885C50.4767 87.8544 54.5628 88.5334 58.6611 88.385H598.751C606.649 88.0989 614.128 84.7603 619.614 79.0717C625.101 73.3831 628.166 65.7881 628.166 57.885C628.166 49.9819 625.101 42.3869 619.614 36.6983C614.128 31.0097 606.649 27.6711 598.751 27.385H58.6611Z" fill="#0000DF"/>
</g>
<path d="M598.71 105.265H58.6603C52.3823 105.356 46.1488 104.199 40.3223 101.859C34.4957 99.5198 29.1924 96.0454 24.7206 91.6381C20.2488 87.2308 16.6978 81.9785 14.274 76.1866C11.8502 70.3947 10.6021 64.1787 10.6021 57.9C10.6021 51.6214 11.8502 45.4054 14.274 39.6135C16.6978 33.8215 20.2488 28.5692 24.7206 24.1619C29.1924 19.7546 34.4957 16.2803 40.3223 13.9409C46.1488 11.6015 52.3823 10.4438 58.6603 10.535H598.75C611.193 10.7158 623.065 15.7856 631.8 24.6486C640.535 33.5116 645.432 45.4559 645.432 57.9C645.432 70.3441 640.535 82.2885 631.8 91.1515C623.065 100.014 611.193 105.084 598.75 105.265H598.71ZM58.6603 18.955C53.4934 18.8722 48.3618 19.8184 43.5642 21.7384C38.7666 23.6584 34.3991 26.5139 30.7159 30.1385C27.0328 33.763 24.1077 38.0843 22.1111 42.8505C20.1145 47.6167 19.0862 52.7325 19.0862 57.9C19.0862 63.0675 20.1145 68.1834 22.1111 72.9496C24.1077 77.7158 27.0328 82.037 30.7159 85.6616C34.3991 89.2862 38.7666 92.1417 43.5642 94.0617C48.3618 95.9817 53.4934 96.9278 58.6603 96.845H598.75C608.971 96.6812 618.718 92.5061 625.888 85.2203C633.058 77.9345 637.076 68.1221 637.076 57.9C637.076 47.6779 633.058 37.8655 625.888 30.5798C618.718 23.294 608.971 19.1188 598.75 18.955H58.6603Z" fill="#0000DF"/>
<path d="M598.71 102.465H58.6603C46.8396 102.465 35.5031 97.7692 27.1446 89.4107C18.7861 81.0522 14.0903 69.7156 14.0903 57.895C14.0903 46.0743 18.7861 34.7377 27.1446 26.3792C35.5031 18.0207 46.8396 13.325 58.6603 13.325H598.75C610.568 13.325 621.902 18.0197 630.259 26.3763C638.616 34.7329 643.31 46.0669 643.31 57.8849C643.31 69.703 638.616 81.037 630.259 89.3936C621.902 97.7503 610.568 102.445 598.75 102.445L598.71 102.465ZM58.6603 16.155C53.1777 16.155 47.7486 17.2348 42.6833 19.333C37.6179 21.4311 33.0155 24.5064 29.1386 28.3832C25.2618 32.2601 22.1865 36.8626 20.0884 41.9279C17.9902 46.9933 16.9103 52.4223 16.9103 57.905C16.9103 63.3876 17.9902 68.8166 20.0884 73.882C22.1865 78.9473 25.2618 83.5498 29.1386 87.4267C33.0155 91.3035 37.6179 94.3788 42.6833 96.4769C47.7486 98.5751 53.1777 99.655 58.6603 99.655H598.75C609.823 99.655 620.442 95.2563 628.272 87.4267C636.102 79.597 640.5 68.9777 640.5 57.905C640.5 46.8322 636.102 36.2129 628.272 28.3832C620.442 20.5536 609.823 16.155 598.75 16.155H58.6603Z" fill="white"/>
<defs>
<linearGradient id="paint0_linear_49_1310" x1="328.661" y1="101.055" x2="328.661" y2="14.7449" gradientUnits="userSpaceOnUse">
<stop stop-color="#003BDF"/>
<stop offset="0.04" stop-color="#0036CA"/>
<stop offset="0.13" stop-color="#00299B"/>
<stop offset="0.22" stop-color="#001E72"/>
<stop offset="0.32" stop-color="#00154E"/>
<stop offset="0.43" stop-color="#000D32"/>
<stop offset="0.54" stop-color="#00071C"/>
<stop offset="0.66" stop-color="#00030C"/>
<stop offset="0.8" stop-color="#000103"/>
<stop offset="1"/>
</linearGradient>
</defs>
</svg>
