<svg width="283" height="79" viewBox="0 0 283 79" fill="none" xmlns="http://www.w3.org/2000/svg">
<path d="M275.19 0H7.63C3.41607 0 0 3.41606 0 7.63V71.18C0 75.3939 3.41607 78.81 7.63 78.81H275.19C279.404 78.81 282.82 75.3939 282.82 71.18V7.63C282.82 3.41606 279.404 0 275.19 0Z" fill="url(#paint0_linear_46_2798)"/>
<path d="M274.8 68.1499V10.6699C274.8 9.21741 273.623 8.03992 272.17 8.03992L10.6703 8.03992C9.21777 8.03992 8.04028 9.21741 8.04028 10.6699V68.1499C8.04028 69.6024 9.21777 70.7799 10.6703 70.7799L272.17 70.7799C273.623 70.7799 274.8 69.6024 274.8 68.1499Z" stroke="url(#paint1_linear_46_2798)" stroke-miterlimit="10"/>
<path d="M207.61 0V78.81" stroke="#3F057F" stroke-miterlimit="10"/>
<path d="M205.97 0V78.81" stroke="#150331" stroke-miterlimit="10"/>
<path d="M259.71 57.26H224.21C223.352 57.2573 222.531 56.9148 221.925 56.3074C221.32 55.7001 220.98 54.8775 220.98 54.02V31.8C220.98 31.5957 221.061 31.3999 221.205 31.2555C221.35 31.1111 221.546 31.03 221.75 31.03C221.954 31.03 222.15 31.1111 222.294 31.2555C222.439 31.3999 222.52 31.5957 222.52 31.8V54.02C222.52 54.4691 222.698 54.9 223.014 55.2185C223.331 55.537 223.761 55.7173 224.21 55.72H258.94V51.03C258.94 50.8257 259.021 50.6299 259.166 50.4855C259.31 50.3411 259.506 50.26 259.71 50.26C259.914 50.26 260.11 50.3411 260.254 50.4855C260.399 50.6299 260.48 50.8257 260.48 51.03V56.49C260.477 56.6934 260.395 56.8877 260.252 57.0316C260.108 57.1754 259.913 57.2574 259.71 57.26ZM259.07 49.46H246.58C245.395 49.4573 244.26 48.9855 243.422 48.1478C242.584 47.3101 242.113 46.1747 242.11 44.99V42.62C242.113 41.4362 242.585 40.3018 243.423 39.4657C244.261 38.6295 245.396 38.16 246.58 38.16H259.07C259.472 38.1604 259.86 38.0177 260.166 37.7574C260.472 37.4972 260.676 37.1365 260.74 36.74C260.769 36.5589 260.861 36.3939 261 36.2748C261.139 36.1556 261.317 36.0901 261.5 36.09C261.704 36.09 261.9 36.1711 262.044 36.3155C262.189 36.4599 262.27 36.6557 262.27 36.86V46.22C262.267 47.0716 261.931 47.8882 261.332 48.4941C260.734 49.1 259.921 49.4469 259.07 49.46ZM246.58 39.7C245.805 39.6999 245.061 40.0073 244.512 40.5546C243.962 41.1019 243.653 41.8446 243.65 42.62V44.99C243.65 45.767 243.959 46.5123 244.508 47.0618C245.058 47.6113 245.803 47.92 246.58 47.92H259.07C259.294 47.9213 259.515 47.8782 259.722 47.7933C259.929 47.7083 260.117 47.5831 260.275 47.425C260.433 47.2669 260.558 47.0789 260.643 46.8721C260.728 46.6652 260.771 46.4436 260.77 46.22V39.22C260.257 39.5315 259.67 39.6974 259.07 39.7H246.58ZM259.71 36.55C259.506 36.55 259.31 36.4688 259.166 36.3244C259.021 36.18 258.94 35.9842 258.94 35.78V30.86H224.21C223.353 30.86 222.532 30.5197 221.926 29.9139C221.32 29.3082 220.98 28.4866 220.98 27.63V26.93C220.98 26.0733 221.32 25.2517 221.926 24.646C222.532 24.0403 223.353 23.7 224.21 23.7H227.83C228.034 23.7 228.23 23.7811 228.374 23.9255C228.519 24.0699 228.6 24.2657 228.6 24.47C228.6 24.6742 228.519 24.87 228.374 25.0144C228.23 25.1588 228.034 25.24 227.83 25.24H224.21C223.988 25.24 223.768 25.2837 223.563 25.3686C223.358 25.4535 223.172 25.578 223.015 25.7349C222.858 25.8919 222.733 26.0782 222.649 26.2832C222.564 26.4883 222.52 26.708 222.52 26.93V27.63C222.52 27.8519 222.564 28.0716 222.649 28.2767C222.733 28.4817 222.858 28.668 223.015 28.825C223.172 28.9819 223.358 29.1064 223.563 29.1913C223.768 29.2762 223.988 29.32 224.21 29.32H259.71C259.913 29.3225 260.108 29.4045 260.252 29.5483C260.395 29.6922 260.477 29.8865 260.48 30.09V35.77C260.481 35.8719 260.462 35.9731 260.424 36.0677C260.386 36.1623 260.33 36.2483 260.258 36.3209C260.186 36.3935 260.101 36.4511 260.007 36.4904C259.913 36.5297 259.812 36.55 259.71 36.55ZM254.17 28.21C253.967 28.21 253.773 28.1302 253.629 27.988C253.485 27.8457 253.403 27.6524 253.4 27.45V25.25H252.53C252.326 25.25 252.13 25.1688 251.985 25.0244C251.841 24.88 251.76 24.6842 251.76 24.48C251.76 24.2757 251.841 24.0799 251.985 23.9355C252.13 23.7911 252.326 23.71 252.53 23.71H254.17C254.373 23.7125 254.568 23.7945 254.712 23.9383C254.855 24.0822 254.937 24.2765 254.94 24.48V27.48C254.941 27.5814 254.922 27.6822 254.884 27.7762C254.846 27.8702 254.789 27.9556 254.717 28.0274C254.646 28.0992 254.56 28.1559 254.466 28.1941C254.372 28.2323 254.271 28.2513 254.17 28.25V28.21Z" fill="#8957FF"/>
<path d="M233.2 27.94C233.076 27.7797 233.019 27.5773 233.041 27.3756C233.063 27.174 233.164 26.989 233.32 26.86L238.32 22.7C238.476 22.5696 238.676 22.5059 238.879 22.5228C239.081 22.5396 239.268 22.6357 239.4 22.79C239.83 23.2583 240.427 23.5379 241.062 23.5678C241.697 23.5978 242.318 23.3757 242.79 22.95C242.866 22.8781 242.955 22.8225 243.053 22.7864C243.151 22.7503 243.256 22.7345 243.36 22.74C243.463 22.7438 243.564 22.7689 243.657 22.8137C243.75 22.8584 243.833 22.9218 243.9 23L247.42 26.94C247.492 27.0115 247.549 27.0964 247.587 27.1899C247.626 27.2835 247.646 27.3837 247.646 27.485C247.646 27.5862 247.626 27.6865 247.587 27.78C247.549 27.8735 247.492 27.9584 247.42 28.03C247.267 28.1645 247.067 28.2336 246.863 28.2224C246.659 28.2112 246.468 28.1206 246.33 27.97L243.28 24.56C242.598 24.9659 241.811 25.1598 241.019 25.1171C240.226 25.0743 239.464 24.7969 238.83 24.32L234.32 28.03C234.243 28.1022 234.151 28.1575 234.051 28.1923C233.952 28.2272 233.846 28.2408 233.74 28.2323C233.635 28.2239 233.532 28.1935 233.439 28.1431C233.346 28.0928 233.265 28.0236 233.2 27.94ZM227.74 27.83C227.61 27.6715 227.548 27.4684 227.567 27.2645C227.585 27.0605 227.684 26.8721 227.84 26.74L241 15.74C241.153 15.609 241.351 15.5439 241.552 15.5589C241.752 15.5739 241.939 15.6678 242.07 15.82L251.93 26.82C252.014 26.892 252.081 26.9813 252.127 27.0816C252.173 27.182 252.197 27.2911 252.198 27.4016C252.198 27.5121 252.175 27.6213 252.129 27.7219C252.083 27.8225 252.016 27.9121 251.933 27.9846C251.85 28.0571 251.752 28.1108 251.646 28.1421C251.54 28.1733 251.428 28.1814 251.319 28.1658C251.21 28.1502 251.105 28.1112 251.012 28.0516C250.919 27.9919 250.84 27.9129 250.78 27.82L241.42 17.35L228.83 27.89C228.68 28.0283 228.483 28.1027 228.279 28.0971C228.075 28.0915 227.882 28.0064 227.74 27.86V27.83Z" fill="#17E200"/>
<path d="M227.98 27.6299C227.94 27.584 227.909 27.5303 227.891 27.4723C227.872 27.4142 227.865 27.3528 227.871 27.292C227.876 27.2312 227.894 27.1722 227.923 27.1185C227.952 27.0649 227.992 27.0177 228.04 26.9799L241.2 15.9799C241.242 15.9376 241.292 15.904 241.347 15.8811C241.402 15.8581 241.461 15.8463 241.52 15.8463C241.58 15.8463 241.639 15.8581 241.694 15.8811C241.748 15.904 241.798 15.9376 241.84 15.9799L251.7 26.9799C251.781 27.0714 251.822 27.1913 251.815 27.3132C251.807 27.4351 251.752 27.549 251.66 27.6299C251.569 27.7108 251.449 27.752 251.327 27.7445C251.205 27.737 251.091 27.6814 251.01 27.5899L241.45 16.8999L228.63 27.6399C228.543 27.7247 228.425 27.7713 228.303 27.7694C228.181 27.7675 228.065 27.7174 227.98 27.6299Z" fill="#AAFF5C"/>
<path d="M233.44 27.74C233.4 27.6941 233.37 27.6408 233.351 27.5833C233.333 27.5257 233.325 27.465 233.33 27.4046C233.335 27.3442 233.351 27.2853 233.379 27.2313C233.406 27.1773 233.444 27.1293 233.49 27.09L238.49 22.93C238.536 22.8905 238.589 22.8604 238.647 22.8415C238.704 22.8226 238.765 22.8153 238.825 22.82C238.886 22.8246 238.945 22.8411 238.999 22.8686C239.053 22.8961 239.101 22.9339 239.14 22.98C239.627 23.5094 240.303 23.826 241.021 23.8615C241.739 23.8971 242.443 23.6487 242.98 23.17C243.024 23.1276 243.075 23.0942 243.132 23.0719C243.189 23.0496 243.249 23.0387 243.31 23.04C243.372 23.0407 243.434 23.0545 243.491 23.0803C243.548 23.1061 243.598 23.1435 243.64 23.19L247.17 27.19C247.21 27.2353 247.241 27.288 247.26 27.3452C247.28 27.4024 247.288 27.4629 247.285 27.5233C247.281 27.5836 247.265 27.6427 247.239 27.697C247.212 27.7513 247.175 27.7999 247.13 27.84C247.085 27.88 247.032 27.9108 246.975 27.9304C246.918 27.9501 246.857 27.9583 246.797 27.9546C246.736 27.9509 246.677 27.9353 246.623 27.9088C246.569 27.8823 246.52 27.8453 246.48 27.8L243.25 24.19C242.58 24.6557 241.775 24.8859 240.961 24.8442C240.146 24.8026 239.369 24.4916 238.75 23.96L234.11 27.85C234.06 27.8895 234.002 27.9182 233.94 27.9341C233.878 27.9501 233.814 27.9529 233.751 27.9426C233.688 27.9323 233.627 27.9089 233.574 27.874C233.52 27.8391 233.475 27.7935 233.44 27.74Z" fill="#AAFF5C"/>
<path d="M228.22 27.43C228.205 27.4168 228.193 27.4007 228.185 27.3826C228.177 27.3644 228.173 27.3448 228.173 27.325C228.173 27.3051 228.177 27.2855 228.185 27.2674C228.193 27.2493 228.205 27.2331 228.22 27.22L241.38 16.22C241.41 16.1918 241.449 16.1761 241.49 16.1761C241.531 16.1761 241.571 16.1918 241.6 16.22L251.46 27.22C251.488 27.2497 251.504 27.289 251.504 27.33C251.504 27.3709 251.488 27.4102 251.46 27.44C251.429 27.466 251.391 27.4803 251.35 27.4803C251.31 27.4803 251.271 27.466 251.24 27.44L241.48 16.52L228.43 27.45C228.416 27.4637 228.398 27.4742 228.38 27.4807C228.361 27.4872 228.341 27.4896 228.321 27.4877C228.301 27.4858 228.281 27.4797 228.264 27.4697C228.247 27.4597 228.232 27.4462 228.22 27.43Z" fill="#E4FFA3"/>
<path d="M233.67 27.5399C233.645 27.5108 233.631 27.4735 233.631 27.4349C233.631 27.3964 233.645 27.3591 233.67 27.3299L238.67 23.16C238.698 23.1325 238.736 23.1171 238.775 23.1171C238.814 23.1171 238.852 23.1325 238.88 23.16C239.145 23.4598 239.468 23.7036 239.829 23.8769C240.189 24.0502 240.581 24.1496 240.981 24.1691C241.381 24.1887 241.78 24.1281 242.156 23.9908C242.532 23.8536 242.877 23.6425 243.17 23.3699C243.206 23.3578 243.244 23.3578 243.28 23.3699C243.301 23.3695 243.322 23.3738 243.341 23.3825C243.36 23.3911 243.377 23.4039 243.39 23.4199L246.92 27.3599C246.948 27.3897 246.964 27.429 246.964 27.4699C246.964 27.5109 246.948 27.5502 246.92 27.5799C246.892 27.6074 246.854 27.6228 246.815 27.6228C246.776 27.6228 246.738 27.6074 246.71 27.5799L243.32 23.7199C242.725 24.2329 241.966 24.5166 241.18 24.52C240.736 24.5259 240.295 24.4401 239.886 24.2681C239.476 24.096 239.107 23.8413 238.8 23.52L233.94 27.59C233.924 27.614 233.901 27.6328 233.874 27.644C233.847 27.6552 233.817 27.6583 233.789 27.653C233.76 27.6477 233.734 27.6342 233.713 27.6141C233.692 27.5941 233.677 27.5683 233.67 27.5399Z" fill="#E4FFA3"/>
<path d="M254.17 27.91C254.047 27.9074 253.93 27.8567 253.844 27.7689C253.758 27.681 253.71 27.563 253.71 27.44V24.94H252.54C252.419 24.9375 252.303 24.8882 252.218 24.8025C252.132 24.7167 252.083 24.6012 252.08 24.48C252.08 24.358 252.129 24.241 252.215 24.1547C252.301 24.0685 252.418 24.02 252.54 24.02H254.18C254.24 24.02 254.3 24.0319 254.356 24.055C254.412 24.0781 254.463 24.112 254.505 24.1547C254.548 24.1975 254.582 24.2482 254.605 24.304C254.628 24.3598 254.64 24.4196 254.64 24.48V27.48C254.641 27.5413 254.63 27.6022 254.608 27.6591C254.585 27.7161 254.552 27.768 254.509 27.8118C254.466 27.8555 254.415 27.8903 254.358 27.9141C254.302 27.9378 254.241 27.95 254.18 27.95L254.17 27.91Z" fill="#B57DFF"/>
<path d="M259.71 36.25C259.649 36.25 259.588 36.2378 259.532 36.2141C259.475 36.1903 259.424 36.1555 259.381 36.1118C259.338 36.068 259.305 36.0161 259.282 35.9591C259.26 35.9021 259.249 35.8412 259.25 35.78V30.57H224.25C223.475 30.5674 222.732 30.2575 222.185 29.7083C221.637 29.1591 221.33 28.4154 221.33 27.64V26.94C221.33 26.1656 221.638 25.4229 222.185 24.8753C222.733 24.3276 223.476 24.02 224.25 24.02H227.87C227.931 24.0187 227.992 24.0296 228.049 24.0521C228.106 24.0746 228.158 24.1083 228.202 24.1511C228.246 24.194 228.28 24.2452 228.304 24.3016C228.328 24.3581 228.34 24.4187 228.34 24.48C228.337 24.6029 228.287 24.7199 228.199 24.8059C228.111 24.8919 227.993 24.94 227.87 24.94H224.25C223.72 24.94 223.211 25.1507 222.836 25.5258C222.461 25.9009 222.25 26.4096 222.25 26.94V27.64C222.25 28.1704 222.461 28.6791 222.836 29.0542C223.211 29.4293 223.72 29.64 224.25 29.64H259.75C259.871 29.6426 259.987 29.6918 260.073 29.7776C260.158 29.8633 260.208 29.9788 260.21 30.1V35.78C260.21 35.8443 260.197 35.908 260.172 35.9671C260.146 36.0261 260.109 36.0794 260.062 36.1234C260.015 36.1675 259.96 36.2014 259.899 36.2232C259.839 36.245 259.774 36.2541 259.71 36.25Z" fill="#B57DFF"/>
<path d="M259.71 56.95H224.21C223.435 56.9473 222.692 56.6375 222.145 56.0883C221.597 55.5391 221.29 54.7953 221.29 54.02V31.8C221.29 31.678 221.339 31.561 221.425 31.4747C221.511 31.3884 221.628 31.34 221.75 31.34C221.871 31.3425 221.987 31.3918 222.073 31.4775C222.158 31.5632 222.208 31.6788 222.21 31.8V54.02C222.21 54.5504 222.421 55.0591 222.796 55.4342C223.171 55.8092 223.68 56.02 224.21 56.02H259.21V51.02C259.209 50.9592 259.22 50.8988 259.242 50.8423C259.265 50.7859 259.299 50.7346 259.342 50.6917C259.385 50.6487 259.436 50.6148 259.492 50.5922C259.549 50.5696 259.609 50.5586 259.67 50.56C259.792 50.56 259.909 50.6084 259.995 50.6947C260.082 50.781 260.13 50.898 260.13 51.02V56.48C260.131 56.5964 260.088 56.709 260.01 56.7958C259.933 56.8826 259.826 56.9376 259.71 56.95Z" fill="#B57DFF"/>
<path d="M259.07 49.1499H246.58C245.477 49.1473 244.421 48.7081 243.641 47.9286C242.862 47.149 242.423 46.0924 242.42 44.9899V42.6199C242.423 41.5183 242.862 40.4628 243.642 39.6848C244.422 38.9068 245.478 38.4699 246.58 38.4699H259.07C259.549 38.4761 260.015 38.3098 260.382 38.0015C260.749 37.6931 260.993 37.2632 261.07 36.7899C261.087 36.6804 261.143 36.5807 261.227 36.509C261.312 36.4374 261.419 36.3986 261.53 36.3999C261.657 36.3971 261.779 36.4434 261.873 36.5292C261.966 36.6149 262.022 36.7335 262.03 36.8599V46.2199C262.03 46.6072 261.953 46.9907 261.804 47.3481C261.655 47.7056 261.436 48.0299 261.161 48.3024C260.886 48.5749 260.559 48.7901 260.2 48.9355C259.841 49.081 259.457 49.1539 259.07 49.1499ZM246.58 39.3899C245.722 39.3899 244.9 39.7299 244.292 40.3353C243.685 40.9408 243.343 41.7623 243.34 42.6199V44.9899C243.343 45.8475 243.685 46.669 244.292 47.2745C244.9 47.8799 245.722 48.2199 246.58 48.2199H259.07C259.6 48.2199 260.109 48.0092 260.484 47.6341C260.859 47.259 261.07 46.7503 261.07 46.2199V38.5999C260.528 39.1081 259.813 39.3906 259.07 39.3899H246.58Z" fill="#B57DFF"/>
<path d="M254.17 27.5999C254.129 27.5974 254.091 27.5794 254.063 27.5497C254.036 27.52 254.02 27.4807 254.02 27.4399V24.6299H252.54C252.5 24.6299 252.462 24.6141 252.434 24.586C252.406 24.5579 252.39 24.5197 252.39 24.4799C252.39 24.4392 252.406 24.3999 252.433 24.3702C252.461 24.3405 252.499 24.3225 252.54 24.3199H254.18C254.221 24.3225 254.259 24.3405 254.287 24.3702C254.315 24.3999 254.33 24.4392 254.33 24.4799V27.4799C254.33 27.5224 254.313 27.5631 254.283 27.5931C254.253 27.6231 254.213 27.6399 254.17 27.6399V27.5999Z" fill="#E8BAFF"/>
<path d="M259.71 35.9399C259.69 35.94 259.669 35.9358 259.651 35.9277C259.632 35.9195 259.615 35.9075 259.601 35.8925C259.587 35.8775 259.576 35.8598 259.569 35.8404C259.562 35.8211 259.559 35.8005 259.56 35.7799V30.2599H224.21C223.516 30.2573 222.851 29.9804 222.361 29.4897C221.87 28.9989 221.593 28.334 221.59 27.6399V26.9399C221.593 26.2459 221.87 25.581 222.361 25.0902C222.851 24.5995 223.516 24.3226 224.21 24.3199H227.83C227.873 24.3199 227.913 24.3368 227.943 24.3668C227.973 24.3968 227.99 24.4375 227.99 24.4799C227.988 24.5206 227.97 24.5588 227.94 24.5867C227.91 24.6145 227.871 24.63 227.83 24.6299H224.21C223.598 24.6326 223.012 24.8768 222.58 25.3094C222.147 25.7421 221.903 26.3281 221.9 26.9399V27.6399C221.903 28.2518 222.147 28.8378 222.58 29.2705C223.012 29.7031 223.598 29.9473 224.21 29.9499H259.71C259.75 29.9499 259.788 29.9658 259.816 29.9939C259.845 30.022 259.86 30.0602 259.86 30.0999V35.7799C259.86 35.8207 259.845 35.86 259.817 35.8897C259.789 35.9194 259.751 35.9374 259.71 35.9399Z" fill="#E8BAFF"/>
<path d="M259.71 56.64H224.21C223.515 56.64 222.849 56.364 222.358 55.8726C221.866 55.3813 221.59 54.7149 221.59 54.02V31.8C221.593 31.7593 221.611 31.7212 221.641 31.6933C221.67 31.6654 221.71 31.6499 221.75 31.65C221.79 31.65 221.828 31.6658 221.856 31.694C221.884 31.7221 221.9 31.7602 221.9 31.8V54.02C221.9 54.6327 222.144 55.2202 222.577 55.6534C223.01 56.0867 223.598 56.33 224.21 56.33H259.56V51.03C259.559 51.0095 259.562 50.9889 259.569 50.9695C259.576 50.9502 259.587 50.9324 259.601 50.9174C259.615 50.9024 259.632 50.8905 259.651 50.8823C259.669 50.8742 259.69 50.87 259.71 50.87C259.751 50.8726 259.789 50.8905 259.817 50.9203C259.845 50.95 259.86 50.9893 259.86 51.03V56.49C259.86 56.5097 259.856 56.5292 259.849 56.5474C259.841 56.5656 259.83 56.5822 259.816 56.5961C259.802 56.61 259.786 56.6211 259.768 56.6286C259.75 56.6361 259.73 56.64 259.71 56.64Z" fill="#E8BAFF"/>
<path d="M259.07 48.86H246.58C245.56 48.8573 244.582 48.4509 243.86 47.7294C243.139 47.008 242.733 46.0303 242.73 45.01V42.64C242.733 41.6197 243.139 40.642 243.86 39.9205C244.582 39.1991 245.56 38.7926 246.58 38.79H259.07C259.612 38.7853 260.136 38.589 260.547 38.2358C260.959 37.8827 261.233 37.3954 261.32 36.86C261.322 36.822 261.339 36.7863 261.367 36.7603C261.395 36.7343 261.432 36.7199 261.47 36.72C261.516 36.7194 261.56 36.7353 261.595 36.7646C261.63 36.794 261.653 36.8349 261.66 36.88V46.24C261.66 46.9297 261.388 47.5916 260.903 48.0821C260.418 48.5726 259.76 48.8521 259.07 48.86ZM246.58 39.1C245.642 39.1026 244.743 39.4764 244.08 40.1397C243.416 40.803 243.043 41.7019 243.04 42.64V45.01C243.043 45.948 243.416 46.8469 244.08 47.5102C244.743 48.1735 245.642 48.5473 246.58 48.55H259.07C259.374 48.5513 259.675 48.4925 259.956 48.3768C260.236 48.2612 260.492 48.0911 260.706 47.8764C260.921 47.6616 261.091 47.4064 261.207 47.1255C261.322 46.8447 261.381 46.5437 261.38 46.24V37.72C261.155 38.1367 260.821 38.4849 260.415 38.7278C260.008 38.9707 259.544 39.0993 259.07 39.1H246.58Z" fill="#E8BAFF"/>
<defs>
<linearGradient id="paint0_linear_46_2798" x1="280.82" y1="7.02" x2="0.450002" y2="72.15" gradientUnits="userSpaceOnUse">
<stop stop-color="#2F1260"/>
<stop offset="0.25" stop-color="#280C53"/>
<stop offset="0.65" stop-color="#200646"/>
<stop offset="1" stop-color="#1D0441"/>
</linearGradient>
<linearGradient id="paint1_linear_46_2798" x1="274.86" y1="8.39992" x2="7.98029" y2="70.3999" gradientUnits="userSpaceOnUse">
<stop stop-color="#00F6FF"/>
<stop offset="0.23" stop-color="#00DEFF"/>
<stop offset="0.5" stop-color="#00C7FF"/>
<stop offset="0.77" stop-color="#00BAFF"/>
<stop offset="1" stop-color="#00B5FF"/>
</linearGradient>
</defs>
</svg>
