<svg width="27" height="42" viewBox="0 0 27 42" fill="none" xmlns="http://www.w3.org/2000/svg">
<path d="M13.6199 41.53C12.7243 41.5274 11.8661 41.1704 11.2328 40.5371C10.5995 39.9038 10.2426 39.0456 10.2399 38.15V37.59C6.72873 36.7889 3.62087 34.756 1.47994 31.86C1.23034 31.4937 1.05662 31.0811 0.969033 30.6466C0.881442 30.2121 0.881744 29.7644 0.969933 29.33C1.05591 28.8917 1.22843 28.4749 1.4774 28.104C1.72637 27.7331 2.0468 27.4156 2.41994 27.17C3.16556 26.6753 4.07694 26.4964 4.95424 26.6726C5.83154 26.8489 6.60317 27.3658 7.09994 28.11C7.22554 28.3116 7.26739 28.5542 7.21655 28.7862C7.1657 29.0182 7.02619 29.2211 6.8278 29.3516C6.62941 29.4821 6.38786 29.5299 6.15471 29.4848C5.92156 29.4396 5.71529 29.3052 5.57993 29.11C5.46552 28.9381 5.3183 28.7904 5.1467 28.6754C4.9751 28.5604 4.7825 28.4804 4.57993 28.44C4.37873 28.4007 4.17173 28.4016 3.97089 28.4428C3.77006 28.484 3.57939 28.5646 3.40994 28.68C3.2338 28.7909 3.08247 28.9369 2.96545 29.109C2.84844 29.2811 2.76825 29.4755 2.72994 29.68C2.65267 30.0864 2.73892 30.5069 2.96993 30.85C4.55993 33.24 7.75994 35.2 11.3199 35.98C11.5237 36.0235 11.7064 36.1356 11.8374 36.2976C11.9685 36.4596 12.0399 36.6617 12.0399 36.87V38.15C12.0399 38.5638 12.2043 38.9606 12.4969 39.2531C12.7894 39.5457 13.1862 39.71 13.5999 39.71C14.0137 39.71 14.4105 39.5457 14.703 39.2531C14.9956 38.9606 15.1599 38.5638 15.1599 38.15V37.15C15.1586 36.925 15.2406 36.7075 15.3902 36.5395C15.5398 36.3714 15.7463 36.2647 15.9699 36.24C17.7578 36.0607 19.4745 35.4461 20.9699 34.45C21.811 33.8754 22.5265 33.1359 23.0732 32.2764C23.6198 31.417 23.9861 30.4554 24.1499 29.45C24.486 27.3132 23.961 25.1303 22.6899 23.38C21.0199 21.18 18.2599 20.18 15.7899 19.48C15.6737 19.4501 15.5647 19.397 15.4695 19.3238C15.3743 19.2507 15.2948 19.1591 15.236 19.0544C15.1771 18.9498 15.1401 18.8343 15.127 18.715C15.1139 18.5957 15.1251 18.4749 15.1599 18.36C15.2253 18.1304 15.3783 17.9357 15.586 17.8178C15.7936 17.7 16.0393 17.6684 16.2699 17.73C19.0399 18.51 22.1399 19.66 24.1399 22.29C25.7005 24.4381 26.3476 27.1164 25.9399 29.74C25.7356 30.9845 25.2812 32.1747 24.604 33.2386C23.9268 34.3025 23.0409 35.2181 21.9999 35.93C20.4749 36.9494 18.7498 37.6313 16.9399 37.93V38.14C16.9401 39.0271 16.5926 39.8789 15.9719 40.5127C15.3512 41.1465 14.5068 41.5117 13.6199 41.53Z" fill="#00D5FF"/>
<path d="M14.86 33.1598C13.6636 33.1513 12.4759 32.9556 11.34 32.5798C11.1199 32.4982 10.9399 32.3347 10.8376 32.1235C10.7353 31.9123 10.7185 31.6697 10.7908 31.4464C10.863 31.2231 11.0188 31.0364 11.2255 30.9252C11.4322 30.814 11.6738 30.787 11.9 30.8498C14.82 31.8498 17.1 31.2198 18.27 30.3798C18.5931 30.1761 18.8631 29.8985 19.0579 29.5699C19.2526 29.2413 19.3664 28.8711 19.39 28.4898C19.39 25.0798 14.39 24.0598 11.76 23.4898C9.88265 23.1224 8.06535 22.4965 6.35999 21.6298C4.81879 20.7855 3.56166 19.5044 2.74672 17.9475C1.93179 16.3905 1.59544 14.6274 1.77999 12.8798C1.97135 11.0149 2.71077 9.2485 3.90495 7.80338C5.09913 6.35826 6.69457 5.29921 8.48999 4.75983C9.0641 4.5813 9.64851 4.4377 10.24 4.32983V3.45983C10.24 2.5634 10.5961 1.70368 11.23 1.06981C11.8638 0.435936 12.7236 0.079834 13.62 0.079834C14.5164 0.079834 15.3761 0.435936 16.01 1.06981C16.6439 1.70368 17 2.5634 17 3.45983V4.45983C19.3574 4.98576 21.5893 5.96751 23.57 7.34983C24.2906 7.87661 24.7759 8.66494 24.9217 9.54556C25.0676 10.4262 24.8623 11.3289 24.35 12.0598C23.8261 12.7905 23.0335 13.2831 22.1465 13.4294C21.2595 13.5756 20.3507 13.3636 19.62 12.8398C18.4749 12.0568 17.2027 11.4782 15.86 11.1298C14.17 10.7598 10.01 10.1298 8.62999 13.1298C8.53053 13.3526 8.34665 13.5268 8.11879 13.614C7.89094 13.7012 7.63776 13.6943 7.41498 13.5948C7.1922 13.4954 7.01805 13.3115 6.93085 13.0836C6.84365 12.8558 6.85053 12.6026 6.94999 12.3798C8.94999 8.15983 14.57 9.04983 16.25 9.42983C17.8193 9.83397 19.3052 10.5109 20.64 11.4298C20.806 11.5531 20.9952 11.6415 21.1963 11.6897C21.3974 11.7378 21.6062 11.7446 21.81 11.7098C22.2146 11.6366 22.574 11.4066 22.81 11.0698C23.0443 10.7307 23.1377 10.3138 23.0705 9.90708C23.0034 9.50038 22.7809 9.13566 22.45 8.88983C20.5016 7.5268 18.2861 6.59288 15.95 6.14983C15.7415 6.11067 15.553 6.00068 15.4164 5.8385C15.2797 5.67632 15.2033 5.4719 15.2 5.25983V3.47984C15.2 3.0661 15.0356 2.6693 14.7431 2.37675C14.4505 2.08419 14.0537 1.91983 13.64 1.91983C13.2262 1.91983 12.8295 2.08419 12.5369 2.37675C12.2443 2.6693 12.08 3.0661 12.08 3.47984V5.12983C12.0792 5.35155 11.9974 5.56536 11.8501 5.73108C11.7028 5.8968 11.5001 6.00303 11.28 6.02983C10.5277 6.12643 9.78499 6.28701 9.05999 6.50983C7.60484 6.94531 6.31099 7.80143 5.34123 8.97048C4.37147 10.1395 3.76913 11.5693 3.60999 13.0798C3.45957 14.4778 3.72699 15.8889 4.37845 17.1349C5.02991 18.3808 6.03616 19.4057 7.26998 20.0798C8.81145 20.8598 10.4538 21.4219 12.15 21.7498C15.09 22.3598 21.22 23.6198 21.22 28.5098C21.2037 29.1769 21.0259 29.8302 20.702 30.4136C20.3781 30.997 19.9176 31.4933 19.36 31.8598C18.0349 32.7574 16.4596 33.2125 14.86 33.1598Z" fill="#00D5FF"/>
<path d="M13.6199 41.53C12.7243 41.5274 11.8661 41.1704 11.2328 40.5371C10.5995 39.9038 10.2426 39.0456 10.2399 38.15V37.59C6.72873 36.7889 3.62087 34.756 1.47994 31.86C1.23034 31.4937 1.05662 31.0811 0.969033 30.6466C0.881442 30.2121 0.881744 29.7644 0.969933 29.33C1.05591 28.8917 1.22843 28.4749 1.4774 28.104C1.72637 27.7331 2.0468 27.4156 2.41994 27.17C3.16556 26.6753 4.07694 26.4964 4.95424 26.6726C5.83154 26.8489 6.60317 27.3658 7.09994 28.11C7.22554 28.3116 7.26739 28.5542 7.21655 28.7862C7.1657 29.0182 7.02619 29.2211 6.8278 29.3516C6.62941 29.4821 6.38786 29.5299 6.15471 29.4848C5.92156 29.4396 5.71529 29.3052 5.57993 29.11C5.46552 28.9381 5.3183 28.7904 5.1467 28.6754C4.9751 28.5604 4.7825 28.4804 4.57993 28.44C4.37873 28.4007 4.17173 28.4016 3.97089 28.4428C3.77006 28.484 3.57939 28.5646 3.40994 28.68C3.2338 28.7909 3.08247 28.9369 2.96545 29.109C2.84844 29.2811 2.76825 29.4755 2.72994 29.68C2.65267 30.0864 2.73892 30.5069 2.96993 30.85C4.55993 33.24 7.75994 35.2 11.3199 35.98C11.5237 36.0235 11.7064 36.1356 11.8374 36.2976C11.9685 36.4596 12.0399 36.6617 12.0399 36.87V38.15C12.0399 38.5638 12.2043 38.9606 12.4969 39.2531C12.7894 39.5457 13.1862 39.71 13.5999 39.71C14.0137 39.71 14.4105 39.5457 14.703 39.2531C14.9956 38.9606 15.1599 38.5638 15.1599 38.15V37.15C15.1586 36.925 15.2406 36.7075 15.3902 36.5395C15.5398 36.3714 15.7463 36.2647 15.9699 36.24C17.7578 36.0607 19.4745 35.4461 20.9699 34.45C21.811 33.8754 22.5265 33.1359 23.0732 32.2764C23.6198 31.417 23.9861 30.4554 24.1499 29.45C24.486 27.3132 23.961 25.1303 22.6899 23.38C21.0199 21.18 18.2599 20.18 15.7899 19.48C15.6737 19.4501 15.5647 19.397 15.4695 19.3238C15.3743 19.2507 15.2948 19.1591 15.236 19.0544C15.1771 18.9498 15.1401 18.8343 15.127 18.715C15.1139 18.5957 15.1251 18.4749 15.1599 18.36C15.2253 18.1304 15.3783 17.9357 15.586 17.8178C15.7936 17.7 16.0393 17.6684 16.2699 17.73C19.0399 18.51 22.1399 19.66 24.1399 22.29C25.7005 24.4381 26.3476 27.1164 25.9399 29.74C25.7356 30.9845 25.2812 32.1747 24.604 33.2386C23.9268 34.3025 23.0409 35.2181 21.9999 35.93C20.4749 36.9494 18.7498 37.6313 16.9399 37.93V38.14C16.9401 39.0271 16.5926 39.8789 15.9719 40.5127C15.3512 41.1465 14.5068 41.5117 13.6199 41.53Z" fill="#00D5FF"/>
<path d="M14.86 33.1598C13.6636 33.1513 12.4759 32.9556 11.34 32.5798C11.1199 32.4982 10.9399 32.3347 10.8376 32.1235C10.7353 31.9123 10.7185 31.6697 10.7908 31.4464C10.863 31.2231 11.0188 31.0364 11.2255 30.9252C11.4322 30.814 11.6738 30.787 11.9 30.8498C14.82 31.8498 17.1 31.2198 18.27 30.3798C18.5931 30.1761 18.8631 29.8985 19.0579 29.5699C19.2526 29.2413 19.3664 28.8711 19.39 28.4898C19.39 25.0798 14.39 24.0598 11.76 23.4898C9.88265 23.1224 8.06535 22.4965 6.35999 21.6298C4.81879 20.7855 3.56166 19.5044 2.74672 17.9475C1.93179 16.3905 1.59544 14.6274 1.77999 12.8798C1.97135 11.0149 2.71077 9.2485 3.90495 7.80338C5.09913 6.35826 6.69457 5.29921 8.48999 4.75983C9.0641 4.5813 9.64851 4.4377 10.24 4.32983V3.45983C10.24 2.5634 10.5961 1.70368 11.23 1.06981C11.8638 0.435936 12.7236 0.079834 13.62 0.079834C14.5164 0.079834 15.3761 0.435936 16.01 1.06981C16.6439 1.70368 17 2.5634 17 3.45983V4.45983C19.3574 4.98576 21.5893 5.96751 23.57 7.34983C24.2906 7.87661 24.7759 8.66494 24.9217 9.54556C25.0676 10.4262 24.8623 11.3289 24.35 12.0598C23.8261 12.7905 23.0335 13.2831 22.1465 13.4294C21.2595 13.5756 20.3507 13.3636 19.62 12.8398C18.4749 12.0568 17.2027 11.4782 15.86 11.1298C14.17 10.7598 10.01 10.1298 8.62999 13.1298C8.53053 13.3526 8.34665 13.5268 8.11879 13.614C7.89094 13.7012 7.63776 13.6943 7.41498 13.5948C7.1922 13.4954 7.01805 13.3115 6.93085 13.0836C6.84365 12.8558 6.85053 12.6026 6.94999 12.3798C8.94999 8.15983 14.57 9.04983 16.25 9.42983C17.8193 9.83397 19.3052 10.5109 20.64 11.4298C20.806 11.5531 20.9952 11.6415 21.1963 11.6897C21.3974 11.7378 21.6062 11.7446 21.81 11.7098C22.2146 11.6366 22.574 11.4066 22.81 11.0698C23.0443 10.7307 23.1377 10.3138 23.0705 9.90708C23.0034 9.50038 22.7809 9.13566 22.45 8.88983C20.5016 7.5268 18.2861 6.59288 15.95 6.14983C15.7415 6.11067 15.553 6.00068 15.4164 5.8385C15.2797 5.67632 15.2033 5.4719 15.2 5.25983V3.47984C15.2 3.0661 15.0356 2.6693 14.7431 2.37675C14.4505 2.08419 14.0537 1.91983 13.64 1.91983C13.2262 1.91983 12.8295 2.08419 12.5369 2.37675C12.2443 2.6693 12.08 3.0661 12.08 3.47984V5.12983C12.0792 5.35155 11.9974 5.56536 11.8501 5.73108C11.7028 5.8968 11.5001 6.00303 11.28 6.02983C10.5277 6.12643 9.78499 6.28701 9.05999 6.50983C7.60484 6.94531 6.31099 7.80143 5.34123 8.97048C4.37147 10.1395 3.76913 11.5693 3.60999 13.0798C3.45957 14.4778 3.72699 15.8889 4.37845 17.1349C5.02991 18.3808 6.03616 19.4057 7.26998 20.0798C8.81145 20.8598 10.4538 21.4219 12.15 21.7498C15.09 22.3598 21.22 23.6198 21.22 28.5098C21.2037 29.1769 21.0259 29.8302 20.702 30.4136C20.3781 30.997 19.9176 31.4933 19.36 31.8598C18.0349 32.7574 16.4596 33.2125 14.86 33.1598Z" fill="#00D5FF"/>
<path d="M13.62 41.1599C12.8244 41.1599 12.0613 40.8438 11.4987 40.2812C10.9361 39.7186 10.62 38.9555 10.62 38.1599V37.3099C7.0918 36.5655 3.95599 34.5603 1.80004 31.6699C1.3558 31.0068 1.19315 30.1945 1.34787 29.4115C1.50259 28.6286 1.962 27.9391 2.62505 27.4949C3.28809 27.0507 4.10044 26.888 4.88341 27.0427C5.66637 27.1974 6.3558 27.6568 6.80004 28.3199C6.88034 28.4407 6.90964 28.5884 6.88155 28.7308C6.85345 28.8731 6.77024 28.9986 6.65004 29.0799C6.52844 29.1576 6.38152 29.1855 6.23992 29.1575C6.09832 29.1296 5.97298 29.048 5.89004 28.9299C5.75375 28.719 5.57636 28.5377 5.36848 28.3968C5.16059 28.2559 4.92646 28.1583 4.68005 28.1099C4.43177 28.0589 4.17585 28.0576 3.92706 28.106C3.67827 28.1545 3.44154 28.2517 3.23051 28.392C3.01947 28.5324 2.83832 28.7132 2.6975 28.9239C2.55668 29.1347 2.45899 29.3712 2.41004 29.6199C2.35925 29.8671 2.35876 30.122 2.40858 30.3694C2.45841 30.6168 2.55753 30.8516 2.70004 31.0599C4.34004 33.5299 7.62004 35.5499 11.28 36.3499C11.4008 36.3755 11.5089 36.4424 11.5856 36.5392C11.6622 36.636 11.7027 36.7565 11.7 36.8799V38.1599C11.7 38.6718 11.9034 39.1627 12.2653 39.5246C12.6273 39.8866 13.1182 40.0899 13.63 40.0899C14.1419 40.0899 14.6328 39.8866 14.9948 39.5246C15.3567 39.1627 15.56 38.6718 15.56 38.1599V37.1599C15.5589 37.0254 15.6072 36.8951 15.6956 36.7938C15.7841 36.6924 15.9066 36.627 16.04 36.6099C17.8989 36.4293 19.6848 35.7939 21.24 34.7599C22.1208 34.1619 22.8704 33.3905 23.4429 32.493C24.0155 31.5955 24.399 30.5907 24.57 29.5399C24.7472 28.4335 24.7041 27.303 24.4433 26.2133C24.1824 25.1236 23.709 24.0962 23.05 23.1899C21.31 20.9099 18.49 19.8699 15.96 19.1899C15.8908 19.1714 15.8259 19.1393 15.7691 19.0955C15.7124 19.0516 15.6649 18.9969 15.6296 18.9346C15.5942 18.8722 15.5716 18.8034 15.5631 18.7322C15.5546 18.661 15.5604 18.5888 15.58 18.5199C15.5985 18.4506 15.6306 18.3857 15.6745 18.329C15.7183 18.2722 15.773 18.2248 15.8354 18.1894C15.8977 18.1541 15.9665 18.1315 16.0377 18.123C16.1089 18.1144 16.1811 18.1202 16.25 18.1399C18.95 18.8599 21.95 19.9999 23.95 22.5299C25.4524 24.597 26.0744 27.1751 25.68 29.6999C25.488 30.9047 25.0529 32.0578 24.4014 33.0892C23.7499 34.1207 22.8955 35.0089 21.89 35.6999C20.3286 36.755 18.5465 37.4391 16.68 37.6999V38.2199C16.6722 38.6139 16.5869 39.0025 16.4289 39.3635C16.2709 39.7245 16.0433 40.0508 15.7591 40.3238C15.4749 40.5968 15.1398 40.8112 14.7727 40.9547C14.4057 41.0981 14.014 41.1679 13.62 41.1599Z" fill="#80DFFF"/>
<path d="M14.8701 32.8C13.7073 32.7896 12.5534 32.5973 11.4501 32.23C11.3648 32.2262 11.2816 32.2026 11.2071 32.161C11.1325 32.1195 11.0686 32.0612 11.0205 31.9907C10.9723 31.9202 10.9413 31.8395 10.9297 31.755C10.9182 31.6704 10.9264 31.5843 10.9539 31.5035C10.9814 31.4227 11.0273 31.3494 11.088 31.2894C11.1487 31.2294 11.2225 31.1843 11.3037 31.1578C11.3848 31.1312 11.471 31.124 11.5554 31.1365C11.6398 31.149 11.7202 31.181 11.7901 31.23C14.7901 32.23 17.2501 31.61 18.4901 30.71C18.8585 30.4732 19.1651 30.1518 19.3843 29.7727C19.6034 29.3935 19.7288 28.9674 19.7501 28.53C19.7501 24.82 14.6001 23.76 11.8301 23.19C9.9902 22.8341 8.20945 22.2215 6.54009 21.37C5.06229 20.5606 3.85695 19.3321 3.07578 17.8391C2.29462 16.3462 1.97254 14.6556 2.15009 12.98C2.33416 11.1869 3.04489 9.48834 4.19272 8.0985C5.34054 6.70865 6.87409 5.68967 8.6001 5.16998C9.25426 4.96177 9.92269 4.80136 10.6001 4.68998V3.47998C10.6001 2.68433 10.9162 1.92127 11.4788 1.35866C12.0414 0.796049 12.8044 0.47998 13.6001 0.47998C14.3957 0.47998 15.1588 0.796049 15.7214 1.35866C16.284 1.92127 16.6001 2.68433 16.6001 3.47998V4.80997C19.0137 5.31055 21.3001 6.29725 23.3201 7.70998C23.6422 7.93962 23.9157 8.2307 24.1249 8.56647C24.3341 8.90224 24.4748 9.27606 24.5389 9.66642C24.603 10.0568 24.5893 10.456 24.4986 10.841C24.4078 11.2261 24.2418 11.5894 24.0101 11.91C23.7804 12.2349 23.4883 12.5109 23.1508 12.7219C22.8134 12.9328 22.4373 13.0745 22.0446 13.1388C21.6519 13.203 21.2503 13.1884 20.8632 13.0959C20.4762 13.0034 20.1114 12.8348 19.7901 12.6C18.6195 11.7992 17.3209 11.204 15.9501 10.84C14.1601 10.44 9.79009 9.83998 8.30009 13C8.23909 13.1326 8.12791 13.2355 7.99101 13.2862C7.85411 13.3368 7.70271 13.331 7.5701 13.27C7.43749 13.209 7.33454 13.0978 7.2839 12.9609C7.23327 12.824 7.23909 12.6726 7.30009 12.54C9.19009 8.53998 14.5901 9.41998 16.2001 9.77998C17.7203 10.1704 19.1592 10.8272 20.4501 11.72C20.8716 12.0158 21.391 12.1375 21.9001 12.06C22.1501 12.0203 22.3895 11.9308 22.6042 11.7968C22.819 11.6628 23.0046 11.4871 23.1501 11.28C23.4452 10.8638 23.5645 10.3482 23.4821 9.84468C23.3998 9.3412 23.1224 8.89043 22.7101 8.58997C20.6912 7.18899 18.3969 6.23445 15.9801 5.78998C15.8565 5.76669 15.7449 5.701 15.6646 5.60425C15.5843 5.50749 15.5402 5.38573 15.5401 5.25998V3.47998C15.5401 2.96811 15.3368 2.4772 14.9748 2.11526C14.6129 1.75331 14.122 1.54998 13.6101 1.54998C13.0982 1.54998 12.6073 1.75331 12.2454 2.11526C11.8834 2.4772 11.6801 2.96811 11.6801 3.47998V5.12997C11.6791 5.26127 11.6312 5.38788 11.545 5.48692C11.4588 5.58595 11.34 5.65088 11.2101 5.66998C10.4325 5.76257 9.66556 5.93002 8.9201 6.16998C7.40252 6.61808 6.05192 7.50616 5.0391 8.7219C4.02628 9.93764 3.39674 11.4264 3.23009 13C3.0732 14.466 3.35422 15.9456 4.03767 17.252C4.72112 18.5583 5.77635 19.6329 7.0701 20.34C8.64847 21.1391 10.3317 21.7114 12.0701 22.04C14.9301 22.63 20.8601 23.85 20.8601 28.45C20.8417 29.0598 20.6767 29.6563 20.379 30.1889C20.0814 30.7216 19.6598 31.1747 19.1501 31.51C17.8973 32.3851 16.3978 32.8371 14.8701 32.8Z" fill="#80DFFF"/>
<path d="M13.62 41.1599C12.8244 41.1599 12.0613 40.8438 11.4987 40.2812C10.9361 39.7186 10.62 38.9555 10.62 38.1599V37.3099C7.0918 36.5655 3.95599 34.5603 1.80004 31.6699C1.3558 31.0068 1.19315 30.1945 1.34787 29.4115C1.50259 28.6286 1.962 27.9391 2.62505 27.4949C3.28809 27.0507 4.10044 26.888 4.88341 27.0427C5.66637 27.1974 6.3558 27.6568 6.80004 28.3199C6.88034 28.4407 6.90964 28.5884 6.88155 28.7308C6.85345 28.8731 6.77024 28.9986 6.65004 29.0799C6.52844 29.1576 6.38152 29.1855 6.23992 29.1575C6.09832 29.1296 5.97298 29.048 5.89004 28.9299C5.75375 28.719 5.57636 28.5377 5.36848 28.3968C5.16059 28.2559 4.92646 28.1583 4.68005 28.1099C4.43177 28.0589 4.17585 28.0576 3.92706 28.106C3.67827 28.1545 3.44154 28.2517 3.23051 28.392C3.01947 28.5324 2.83832 28.7132 2.6975 28.9239C2.55668 29.1347 2.45899 29.3712 2.41004 29.6199C2.35925 29.8671 2.35876 30.122 2.40858 30.3694C2.45841 30.6168 2.55753 30.8516 2.70004 31.0599C4.34004 33.5299 7.62004 35.5499 11.28 36.3499C11.4008 36.3755 11.5089 36.4424 11.5856 36.5392C11.6622 36.636 11.7027 36.7565 11.7 36.8799V38.1599C11.7 38.6718 11.9034 39.1627 12.2653 39.5246C12.6273 39.8866 13.1182 40.0899 13.63 40.0899C14.1419 40.0899 14.6328 39.8866 14.9948 39.5246C15.3567 39.1627 15.56 38.6718 15.56 38.1599V37.1599C15.5589 37.0254 15.6072 36.8951 15.6956 36.7938C15.7841 36.6924 15.9066 36.627 16.04 36.6099C17.8989 36.4293 19.6848 35.7939 21.24 34.7599C22.1208 34.1619 22.8704 33.3905 23.4429 32.493C24.0155 31.5955 24.399 30.5907 24.57 29.5399C24.7472 28.4335 24.7041 27.303 24.4433 26.2133C24.1824 25.1236 23.709 24.0962 23.05 23.1899C21.31 20.9099 18.49 19.8699 15.96 19.1899C15.8908 19.1714 15.8259 19.1393 15.7691 19.0955C15.7124 19.0516 15.6649 18.9969 15.6296 18.9346C15.5942 18.8722 15.5716 18.8034 15.5631 18.7322C15.5546 18.661 15.5604 18.5888 15.58 18.5199C15.5985 18.4506 15.6306 18.3857 15.6745 18.329C15.7183 18.2722 15.773 18.2248 15.8354 18.1894C15.8977 18.1541 15.9665 18.1315 16.0377 18.123C16.1089 18.1144 16.1811 18.1202 16.25 18.1399C18.95 18.8599 21.95 19.9999 23.95 22.5299C25.4524 24.597 26.0744 27.1751 25.68 29.6999C25.488 30.9047 25.0529 32.0578 24.4014 33.0892C23.7499 34.1207 22.8955 35.0089 21.89 35.6999C20.3286 36.755 18.5465 37.4391 16.68 37.6999V38.2199C16.6722 38.6139 16.5869 39.0025 16.4289 39.3635C16.2709 39.7245 16.0433 40.0508 15.7591 40.3238C15.4749 40.5968 15.1398 40.8112 14.7727 40.9547C14.4057 41.0981 14.014 41.1679 13.62 41.1599Z" fill="#80DFFF"/>
<path d="M14.8701 32.8C13.7073 32.7896 12.5534 32.5973 11.4501 32.23C11.3648 32.2262 11.2816 32.2026 11.2071 32.161C11.1325 32.1195 11.0686 32.0612 11.0205 31.9907C10.9723 31.9202 10.9413 31.8395 10.9297 31.755C10.9182 31.6704 10.9264 31.5843 10.9539 31.5035C10.9814 31.4227 11.0273 31.3494 11.088 31.2894C11.1487 31.2294 11.2225 31.1843 11.3037 31.1578C11.3848 31.1312 11.471 31.124 11.5554 31.1365C11.6398 31.149 11.7202 31.181 11.7901 31.23C14.7901 32.23 17.2501 31.61 18.4901 30.71C18.8585 30.4732 19.1651 30.1518 19.3843 29.7727C19.6034 29.3935 19.7288 28.9674 19.7501 28.53C19.7501 24.82 14.6001 23.76 11.8301 23.19C9.9902 22.8341 8.20945 22.2215 6.54009 21.37C5.06229 20.5606 3.85695 19.3321 3.07578 17.8391C2.29462 16.3462 1.97254 14.6556 2.15009 12.98C2.33416 11.1869 3.04489 9.48834 4.19272 8.0985C5.34054 6.70865 6.87409 5.68967 8.6001 5.16998C9.25426 4.96177 9.92269 4.80136 10.6001 4.68998V3.47998C10.6001 2.68433 10.9162 1.92127 11.4788 1.35866C12.0414 0.796049 12.8044 0.47998 13.6001 0.47998C14.3957 0.47998 15.1588 0.796049 15.7214 1.35866C16.284 1.92127 16.6001 2.68433 16.6001 3.47998V4.80997C19.0137 5.31055 21.3001 6.29725 23.3201 7.70998C23.6422 7.93962 23.9157 8.2307 24.1249 8.56647C24.3341 8.90224 24.4748 9.27606 24.5389 9.66642C24.603 10.0568 24.5893 10.456 24.4986 10.841C24.4078 11.2261 24.2418 11.5894 24.0101 11.91C23.7804 12.2349 23.4883 12.5109 23.1508 12.7219C22.8134 12.9328 22.4373 13.0745 22.0446 13.1388C21.6519 13.203 21.2503 13.1884 20.8632 13.0959C20.4762 13.0034 20.1114 12.8348 19.7901 12.6C18.6195 11.7992 17.3209 11.204 15.9501 10.84C14.1601 10.44 9.79009 9.83998 8.30009 13C8.23909 13.1326 8.12791 13.2355 7.99101 13.2862C7.85411 13.3368 7.70271 13.331 7.5701 13.27C7.43749 13.209 7.33454 13.0978 7.2839 12.9609C7.23327 12.824 7.23909 12.6726 7.30009 12.54C9.19009 8.53998 14.5901 9.41998 16.2001 9.77998C17.7203 10.1704 19.1592 10.8272 20.4501 11.72C20.8716 12.0158 21.391 12.1375 21.9001 12.06C22.1501 12.0203 22.3895 11.9308 22.6042 11.7968C22.819 11.6628 23.0046 11.4871 23.1501 11.28C23.4452 10.8638 23.5645 10.3482 23.4821 9.84468C23.3998 9.3412 23.1224 8.89043 22.7101 8.58997C20.6912 7.18899 18.3969 6.23445 15.9801 5.78998C15.8565 5.76669 15.7449 5.701 15.6646 5.60425C15.5843 5.50749 15.5402 5.38573 15.5401 5.25998V3.47998C15.5401 2.96811 15.3368 2.4772 14.9748 2.11526C14.6129 1.75331 14.122 1.54998 13.6101 1.54998C13.0982 1.54998 12.6073 1.75331 12.2454 2.11526C11.8834 2.4772 11.6801 2.96811 11.6801 3.47998V5.12997C11.6791 5.26127 11.6312 5.38788 11.545 5.48692C11.4588 5.58595 11.34 5.65088 11.2101 5.66998C10.4325 5.76257 9.66556 5.93002 8.9201 6.16998C7.40252 6.61808 6.05192 7.50616 5.0391 8.7219C4.02628 9.93764 3.39674 11.4264 3.23009 13C3.0732 14.466 3.35422 15.9456 4.03767 17.252C4.72112 18.5583 5.77635 19.6329 7.0701 20.34C8.64847 21.1391 10.3317 21.7114 12.0701 22.04C14.9301 22.63 20.8601 23.85 20.8601 28.45C20.8417 29.0598 20.6767 29.6563 20.379 30.1889C20.0814 30.7216 19.6598 31.1747 19.1501 31.51C17.8973 32.3851 16.3978 32.8371 14.8701 32.8Z" fill="#80DFFF"/>
<path d="M13.6199 40.7999C12.9171 40.7999 12.2431 40.5207 11.7461 40.0237C11.2491 39.5267 10.9699 38.8527 10.9699 38.1499V36.9999C7.18992 36.1399 3.79992 33.9999 2.08992 31.4399C1.89017 31.1514 1.75087 30.8255 1.68041 30.4818C1.60995 30.1381 1.60978 29.7837 1.67993 29.4399C1.81981 28.7493 2.22793 28.1425 2.81474 27.7525C3.40155 27.3626 4.11911 27.2214 4.80993 27.3599C5.15087 27.424 5.47537 27.5563 5.76404 27.7487C6.0527 27.9412 6.29958 28.1898 6.48993 28.4799C6.51472 28.5219 6.52331 28.5715 6.5141 28.6193C6.5049 28.6672 6.47852 28.7101 6.43992 28.7399C6.41964 28.7526 6.39702 28.7611 6.37339 28.765C6.34977 28.7689 6.3256 28.768 6.30232 28.7624C6.27904 28.7568 6.25711 28.7466 6.23781 28.7325C6.21851 28.7183 6.20223 28.7004 6.18992 28.6799C5.85684 28.1689 5.33592 27.8096 4.73993 27.6799C4.29551 27.5914 3.83482 27.6367 3.4162 27.8102C2.99757 27.9837 2.63982 28.2774 2.38821 28.6543C2.13661 29.0312 2.00247 29.4742 2.00277 29.9273C2.00308 30.3805 2.13782 30.8233 2.38993 31.1999C4.06993 33.7299 7.44992 35.8099 11.1899 36.6299C11.2305 36.6391 11.2665 36.6621 11.2921 36.6949C11.3176 36.7277 11.331 36.7683 11.3299 36.8099V38.0899C11.3299 38.6972 11.5712 39.2797 12.0007 39.7092C12.4301 40.1386 13.0126 40.3799 13.6199 40.3799C14.2273 40.3799 14.8097 40.1386 15.2392 39.7092C15.6687 39.2797 15.9099 38.6972 15.9099 38.0899V37.0899C15.9096 37.0454 15.9258 37.0024 15.9554 36.9692C15.9849 36.9359 16.0257 36.9148 16.0699 36.9099C17.9905 36.721 19.8349 36.0615 21.4399 34.9899C22.359 34.3623 23.1413 33.5549 23.7394 32.6165C24.3376 31.678 24.7392 30.628 24.9199 29.5299C25.1034 28.3761 25.0574 27.1974 24.7846 26.0614C24.5117 24.9255 24.0174 23.8545 23.3299 22.9099C21.5299 20.5299 18.6399 19.4699 16.0399 18.7399C16.017 18.7342 15.9956 18.7239 15.9769 18.7095C15.9583 18.6951 15.9428 18.677 15.9315 18.6563C15.9203 18.6356 15.9134 18.6128 15.9114 18.5893C15.9094 18.5658 15.9123 18.5422 15.9199 18.5199C15.9258 18.4968 15.9361 18.4752 15.9503 18.4562C15.9645 18.4372 15.9824 18.4211 16.0029 18.4091C16.0233 18.397 16.0459 18.3891 16.0695 18.3858C16.093 18.3825 16.1169 18.3839 16.1399 18.3899C18.7899 19.1399 21.7599 20.2299 23.6199 22.6899C24.3382 23.6736 24.8547 24.7897 25.1396 25.974C25.4245 27.1582 25.4722 28.3871 25.2799 29.5899C25.0895 30.7353 24.6698 31.8305 24.046 32.81C23.4223 33.7894 22.6073 34.6329 21.6499 35.2899C20.0422 36.377 18.1973 37.0628 16.2699 37.2899V38.1299C16.2726 38.4796 16.206 38.8263 16.074 39.1501C15.942 39.474 15.7472 39.7685 15.5009 40.0167C15.2545 40.2649 14.9615 40.4618 14.6387 40.5963C14.3159 40.7307 13.9696 40.7999 13.6199 40.7999Z" fill="#E2FAFF"/>
<path d="M14.8699 32.4298C13.7455 32.4193 12.6293 32.2372 11.5599 31.8898C11.5163 31.872 11.4809 31.8385 11.4606 31.796C11.4403 31.7535 11.4365 31.705 11.4499 31.6598C11.4567 31.6366 11.4682 31.615 11.4835 31.5962C11.4989 31.5775 11.5179 31.5621 11.5394 31.5509C11.5609 31.5397 11.5844 31.5329 11.6085 31.531C11.6327 31.5291 11.6569 31.5321 11.6799 31.5398C14.3699 32.4098 16.9999 32.1998 18.6799 30.9598C19.0962 30.6918 19.4416 30.3273 19.6871 29.8973C19.9325 29.4674 20.0707 28.9846 20.0899 28.4898C20.0899 24.4898 14.7599 23.3898 11.8799 22.7998C10.0816 22.4417 8.34174 21.836 6.70991 20.9998C5.30059 20.2273 4.15041 19.0563 3.40335 17.6333C2.65628 16.2103 2.3455 14.5986 2.50991 12.9998C2.68674 11.2782 3.37018 9.6476 4.47378 8.31438C5.57738 6.98115 7.05158 6.00516 8.70991 5.50983C9.43967 5.27262 10.1894 5.10192 10.9499 4.99983V3.47984C10.9499 2.77701 11.2291 2.10297 11.7261 1.606C12.223 1.10903 12.8971 0.829834 13.5999 0.829834C14.3027 0.829834 14.9768 1.10903 15.4737 1.606C15.9707 2.10297 16.2499 2.77701 16.2499 3.47984V5.10983C18.7261 5.57164 21.0752 6.55694 23.1399 7.99983C23.5652 8.30651 23.8904 8.73205 24.0746 9.22299C24.2588 9.71393 24.2938 10.2484 24.1752 10.7591C24.0566 11.2699 23.7897 11.7342 23.408 12.0938C23.0263 12.4533 22.5469 12.692 22.0299 12.7798C21.3274 12.8917 20.609 12.7229 20.0299 12.3098C18.8137 11.4732 17.4597 10.8571 16.0299 10.4898C14.1299 10.0698 9.54991 9.48983 7.94991 12.8498C7.94019 12.8716 7.92624 12.8912 7.90887 12.9076C7.8915 12.9239 7.87106 12.9367 7.84873 12.945C7.8264 12.9534 7.80263 12.9573 7.7788 12.9564C7.75496 12.9555 7.73155 12.9499 7.70991 12.9398C7.6669 12.9164 7.63398 12.878 7.6174 12.8319C7.60081 12.7859 7.6017 12.7353 7.61991 12.6898C9.33991 9.05983 14.1299 9.68983 16.1099 10.1398C17.5883 10.5123 18.9897 11.1419 20.2499 11.9998C20.748 12.3552 21.3651 12.5023 21.9699 12.4098C22.4196 12.3419 22.8389 12.1417 23.1743 11.8346C23.5097 11.5276 23.7462 11.1276 23.8534 10.6856C23.9607 10.2437 23.9339 9.77984 23.7766 9.35316C23.6192 8.92648 23.3384 8.55631 22.9699 8.28983C20.9112 6.85338 18.5686 5.87474 16.0999 5.41983C16.0584 5.41491 16.0201 5.39485 15.9924 5.36349C15.9648 5.33212 15.9496 5.29166 15.9499 5.24983V3.47984C15.9499 2.87249 15.7086 2.29002 15.2792 1.86056C14.8497 1.4311 14.2673 1.18983 13.6599 1.18983C13.0526 1.18983 12.4701 1.4311 12.0406 1.86056C11.6112 2.29002 11.3699 2.87249 11.3699 3.47984V5.12983C11.37 5.17324 11.3535 5.21503 11.3237 5.24664C11.294 5.27824 11.2532 5.29728 11.2099 5.29984C10.4137 5.40882 9.62776 5.58273 8.85991 5.81983C7.2597 6.28848 5.83492 7.22223 4.76658 8.50246C3.69825 9.78268 3.03458 11.3516 2.85991 13.0098C2.69604 14.5416 2.98824 16.0877 3.69987 17.454C4.4115 18.8203 5.51083 19.946 6.85991 20.6898C8.46462 21.5125 10.1786 22.1018 11.9499 22.4398C14.7099 23.0098 20.4499 24.1898 20.4499 28.4398C20.4286 28.9923 20.276 29.5317 20.0047 30.0134C19.7334 30.4951 19.3513 30.9052 18.8899 31.2098C17.7102 32.0263 16.3044 32.4529 14.8699 32.4298Z" fill="#E2FAFF"/>
</svg>
