<svg width="26" height="42" viewBox="0 0 26 42" fill="none" xmlns="http://www.w3.org/2000/svg">
<path d="M12.7164 41.4499C11.8208 41.4473 10.9626 41.0904 10.3293 40.4571C9.69596 39.8238 9.33901 38.9656 9.33637 38.07V37.5099C5.82517 36.7088 2.71731 34.6759 0.576371 31.7799C0.326773 31.4136 0.15306 31.0011 0.0654685 30.5665C-0.0221229 30.132 -0.0218209 29.6844 0.0663688 29.25C0.152344 28.8116 0.324867 28.3948 0.573838 28.0239C0.822809 27.653 1.14323 27.3355 1.51637 27.0899C2.262 26.5952 3.17337 26.4164 4.05067 26.5926C4.92798 26.7688 5.6996 27.2857 6.19637 28.0299C6.32198 28.2315 6.36383 28.4741 6.31298 28.7061C6.26214 28.9381 6.12262 29.141 5.92423 29.2715C5.72584 29.402 5.48429 29.4498 5.25114 29.4047C5.018 29.3596 4.81172 29.2251 4.67637 29.0299C4.56195 28.858 4.41473 28.7103 4.24313 28.5953C4.07154 28.4803 3.87893 28.4004 3.67637 28.36C3.47517 28.3206 3.26816 28.3215 3.06733 28.3627C2.8665 28.4039 2.67583 28.4846 2.50637 28.5999C2.33024 28.7108 2.17891 28.8568 2.06189 29.0289C1.94487 29.201 1.86469 29.3954 1.82637 29.5999C1.74911 30.0063 1.83536 30.4268 2.06637 30.7699C3.65637 33.1599 6.85638 35.12 10.4164 35.9C10.6201 35.9435 10.8028 36.0556 10.9339 36.2175C11.0649 36.3795 11.1364 36.5816 11.1364 36.79V38.07C11.1364 38.4837 11.3007 38.8805 11.5933 39.173C11.8858 39.4656 12.2826 39.6299 12.6964 39.6299C13.1101 39.6299 13.5069 39.4656 13.7995 39.173C14.092 38.8805 14.2564 38.4837 14.2564 38.07V37.07C14.255 36.845 14.337 36.6275 14.4866 36.4594C14.6362 36.2914 14.8427 36.1847 15.0664 36.1599C16.8542 35.9806 18.5709 35.366 20.0664 34.3699C20.9074 33.7953 21.623 33.0559 22.1696 32.1964C22.7162 31.3369 23.0826 30.3753 23.2464 29.3699C23.5824 27.2331 23.0574 25.0502 21.7864 23.2999C20.1164 21.0999 17.3564 20.1 14.8864 19.4C14.7701 19.37 14.6611 19.3169 14.5659 19.2438C14.4707 19.1706 14.3913 19.079 14.3324 18.9744C14.2736 18.8697 14.2365 18.7543 14.2234 18.6349C14.2104 18.5156 14.2216 18.3948 14.2564 18.2799C14.3218 18.0503 14.4748 17.8556 14.6824 17.7377C14.89 17.6199 15.1357 17.5884 15.3664 17.65C18.1364 18.43 21.2364 19.5799 23.2364 22.2099C24.7969 24.358 25.444 27.0363 25.0364 29.6599C24.8321 30.9044 24.3776 32.0946 23.7004 33.1585C23.0232 34.2224 22.1374 35.138 21.0964 35.8499C19.5714 36.8693 17.8462 37.5512 16.0364 37.8499V38.0599C16.0366 38.947 15.689 39.7989 15.0683 40.4326C14.4477 41.0664 13.6033 41.4316 12.7164 41.4499Z" fill="#00D5FF"/>
<path d="M13.9564 33.08C12.76 33.0714 11.5723 32.8757 10.4364 32.5C10.2164 32.4184 10.0364 32.2549 9.93404 32.0437C9.83169 31.8324 9.81491 31.5899 9.88719 31.3666C9.95947 31.1433 10.1152 30.9566 10.3219 30.8454C10.5286 30.7342 10.7703 30.7072 10.9964 30.77C13.9164 31.77 16.1964 31.14 17.3664 30.3C17.6895 30.0963 17.9596 29.8187 18.1543 29.49C18.349 29.1614 18.4629 28.7912 18.4864 28.41C18.4864 25 13.4864 23.98 10.8564 23.41C8.97909 23.0426 7.16178 22.4166 5.45642 21.55C3.91522 20.7057 2.65809 19.4245 1.84316 17.8676C1.02822 16.3107 0.691878 14.5476 0.876422 12.8C1.06779 10.9351 1.8072 9.16867 3.00138 7.72355C4.19557 6.27843 5.79101 5.21938 7.58642 4.68C8.16054 4.50147 8.74494 4.35787 9.33642 4.25V3.38C9.33642 2.48357 9.69252 1.62385 10.3264 0.989975C10.9603 0.356102 11.82 0 12.7164 0C13.6129 0 14.4726 0.356102 15.1064 0.989975C15.7403 1.62385 16.0964 2.48357 16.0964 3.38V4.38C18.4538 4.90593 20.6857 5.88767 22.6664 7.27C23.387 7.79678 23.8723 8.58511 24.0182 9.46573C24.164 10.3463 23.9587 11.249 23.4464 11.98C22.9226 12.7106 22.13 13.2032 21.2429 13.3495C20.3559 13.4958 19.4471 13.2837 18.7164 12.76C17.5713 11.9769 16.2992 11.3984 14.9564 11.05C13.2664 10.68 9.10642 10.05 7.72642 13.05C7.62696 13.2728 7.44309 13.4469 7.21523 13.5341C6.98737 13.6213 6.7342 13.6145 6.51142 13.515C6.28864 13.4155 6.11449 13.2317 6.02729 13.0038C5.94008 12.7759 5.94696 12.5228 6.04642 12.3C8.04642 8.08 13.6664 8.97 15.3464 9.35C16.9157 9.75413 18.4017 10.4311 19.7364 11.35C19.9024 11.4733 20.0917 11.5617 20.2927 11.6098C20.4938 11.6579 20.7026 11.6648 20.9064 11.63C21.3111 11.5568 21.6705 11.3268 21.9064 10.99C22.1407 10.6508 22.2341 10.2339 22.167 9.82725C22.0998 9.42055 21.8773 9.05583 21.5464 8.81C19.5981 7.44697 17.3826 6.51305 15.0464 6.07C14.838 6.03083 14.6495 5.92085 14.5128 5.75867C14.3761 5.59648 14.2997 5.39207 14.2964 5.18V3.4C14.2964 2.98626 14.1321 2.58947 13.8395 2.29691C13.5469 2.00436 13.1502 1.84 12.7364 1.84C12.3227 1.84 11.9259 2.00436 11.6333 2.29691C11.3408 2.58947 11.1764 2.98626 11.1764 3.4V5.05C11.1756 5.27172 11.0939 5.48553 10.9466 5.65125C10.7993 5.81696 10.5965 5.9232 10.3764 5.95C9.62412 6.04659 8.88143 6.20718 8.15642 6.43C6.70127 6.86548 5.40742 7.7216 4.43766 8.89065C3.46791 10.0597 2.86556 11.4894 2.70642 13C2.55601 14.3979 2.82343 15.8091 3.47489 17.055C4.12635 18.301 5.13259 19.3258 6.36642 20C7.90789 20.78 9.55025 21.342 11.2464 21.67C14.1864 22.28 20.3164 23.54 20.3164 28.43C20.3001 29.0971 20.1224 29.7503 19.7984 30.3338C19.4745 30.9172 19.014 31.4134 18.4564 31.78C17.1313 32.6775 15.5561 33.1326 13.9564 33.08Z" fill="#00D5FF"/>
<path d="M12.7164 41.4499C11.8208 41.4473 10.9626 41.0904 10.3293 40.4571C9.69596 39.8238 9.33901 38.9656 9.33637 38.07V37.5099C5.82517 36.7088 2.71731 34.6759 0.576371 31.7799C0.326773 31.4136 0.15306 31.0011 0.0654685 30.5665C-0.0221229 30.132 -0.0218209 29.6844 0.0663688 29.25C0.152344 28.8116 0.324867 28.3948 0.573838 28.0239C0.822809 27.653 1.14323 27.3355 1.51637 27.0899C2.262 26.5952 3.17337 26.4164 4.05067 26.5926C4.92798 26.7688 5.6996 27.2857 6.19637 28.0299C6.32198 28.2315 6.36383 28.4741 6.31298 28.7061C6.26214 28.9381 6.12262 29.141 5.92423 29.2715C5.72584 29.402 5.48429 29.4498 5.25114 29.4047C5.018 29.3596 4.81172 29.2251 4.67637 29.0299C4.56195 28.858 4.41473 28.7103 4.24313 28.5953C4.07154 28.4803 3.87893 28.4004 3.67637 28.36C3.47517 28.3206 3.26816 28.3215 3.06733 28.3627C2.8665 28.4039 2.67583 28.4846 2.50637 28.5999C2.33024 28.7108 2.17891 28.8568 2.06189 29.0289C1.94487 29.201 1.86469 29.3954 1.82637 29.5999C1.74911 30.0063 1.83536 30.4268 2.06637 30.7699C3.65637 33.1599 6.85638 35.12 10.4164 35.9C10.6201 35.9435 10.8028 36.0556 10.9339 36.2175C11.0649 36.3795 11.1364 36.5816 11.1364 36.79V38.07C11.1364 38.4837 11.3007 38.8805 11.5933 39.173C11.8858 39.4656 12.2826 39.6299 12.6964 39.6299C13.1101 39.6299 13.5069 39.4656 13.7995 39.173C14.092 38.8805 14.2564 38.4837 14.2564 38.07V37.07C14.255 36.845 14.337 36.6275 14.4866 36.4594C14.6362 36.2914 14.8427 36.1847 15.0664 36.1599C16.8542 35.9806 18.5709 35.366 20.0664 34.3699C20.9074 33.7953 21.623 33.0559 22.1696 32.1964C22.7162 31.3369 23.0826 30.3753 23.2464 29.3699C23.5824 27.2331 23.0574 25.0502 21.7864 23.2999C20.1164 21.0999 17.3564 20.1 14.8864 19.4C14.7701 19.37 14.6611 19.3169 14.5659 19.2438C14.4707 19.1706 14.3913 19.079 14.3324 18.9744C14.2736 18.8697 14.2365 18.7543 14.2234 18.6349C14.2104 18.5156 14.2216 18.3948 14.2564 18.2799C14.3218 18.0503 14.4748 17.8556 14.6824 17.7377C14.89 17.6199 15.1357 17.5884 15.3664 17.65C18.1364 18.43 21.2364 19.5799 23.2364 22.2099C24.7969 24.358 25.444 27.0363 25.0364 29.6599C24.8321 30.9044 24.3776 32.0946 23.7004 33.1585C23.0232 34.2224 22.1374 35.138 21.0964 35.8499C19.5714 36.8693 17.8462 37.5512 16.0364 37.8499V38.0599C16.0366 38.947 15.689 39.7989 15.0683 40.4326C14.4477 41.0664 13.6033 41.4316 12.7164 41.4499Z" fill="#00D5FF"/>
<path d="M13.9564 33.08C12.76 33.0714 11.5723 32.8757 10.4364 32.5C10.2164 32.4184 10.0364 32.2549 9.93404 32.0437C9.83169 31.8324 9.81491 31.5899 9.88719 31.3666C9.95947 31.1433 10.1152 30.9566 10.3219 30.8454C10.5286 30.7342 10.7703 30.7072 10.9964 30.77C13.9164 31.77 16.1964 31.14 17.3664 30.3C17.6895 30.0963 17.9596 29.8187 18.1543 29.49C18.349 29.1614 18.4629 28.7912 18.4864 28.41C18.4864 25 13.4864 23.98 10.8564 23.41C8.97909 23.0426 7.16178 22.4166 5.45642 21.55C3.91522 20.7057 2.65809 19.4245 1.84316 17.8676C1.02822 16.3107 0.691878 14.5476 0.876422 12.8C1.06779 10.9351 1.8072 9.16867 3.00138 7.72355C4.19557 6.27843 5.79101 5.21938 7.58642 4.68C8.16054 4.50147 8.74494 4.35787 9.33642 4.25V3.38C9.33642 2.48357 9.69252 1.62385 10.3264 0.989975C10.9603 0.356102 11.82 0 12.7164 0C13.6129 0 14.4726 0.356102 15.1064 0.989975C15.7403 1.62385 16.0964 2.48357 16.0964 3.38V4.38C18.4538 4.90593 20.6857 5.88767 22.6664 7.27C23.387 7.79678 23.8723 8.58511 24.0182 9.46573C24.164 10.3463 23.9587 11.249 23.4464 11.98C22.9226 12.7106 22.13 13.2032 21.2429 13.3495C20.3559 13.4958 19.4471 13.2837 18.7164 12.76C17.5713 11.9769 16.2992 11.3984 14.9564 11.05C13.2664 10.68 9.10642 10.05 7.72642 13.05C7.62696 13.2728 7.44309 13.4469 7.21523 13.5341C6.98737 13.6213 6.7342 13.6145 6.51142 13.515C6.28864 13.4155 6.11449 13.2317 6.02729 13.0038C5.94008 12.7759 5.94696 12.5228 6.04642 12.3C8.04642 8.08 13.6664 8.97 15.3464 9.35C16.9157 9.75413 18.4017 10.4311 19.7364 11.35C19.9024 11.4733 20.0917 11.5617 20.2927 11.6098C20.4938 11.6579 20.7026 11.6648 20.9064 11.63C21.3111 11.5568 21.6705 11.3268 21.9064 10.99C22.1407 10.6508 22.2341 10.2339 22.167 9.82725C22.0998 9.42055 21.8773 9.05583 21.5464 8.81C19.5981 7.44697 17.3826 6.51305 15.0464 6.07C14.838 6.03083 14.6495 5.92085 14.5128 5.75867C14.3761 5.59648 14.2997 5.39207 14.2964 5.18V3.4C14.2964 2.98626 14.1321 2.58947 13.8395 2.29691C13.5469 2.00436 13.1502 1.84 12.7364 1.84C12.3227 1.84 11.9259 2.00436 11.6333 2.29691C11.3408 2.58947 11.1764 2.98626 11.1764 3.4V5.05C11.1756 5.27172 11.0939 5.48553 10.9466 5.65125C10.7993 5.81696 10.5965 5.9232 10.3764 5.95C9.62412 6.04659 8.88143 6.20718 8.15642 6.43C6.70127 6.86548 5.40742 7.7216 4.43766 8.89065C3.46791 10.0597 2.86556 11.4894 2.70642 13C2.55601 14.3979 2.82343 15.8091 3.47489 17.055C4.12635 18.301 5.13259 19.3258 6.36642 20C7.90789 20.78 9.55025 21.342 11.2464 21.67C14.1864 22.28 20.3164 23.54 20.3164 28.43C20.3001 29.0971 20.1224 29.7503 19.7984 30.3338C19.4745 30.9172 19.014 31.4134 18.4564 31.78C17.1313 32.6775 15.5561 33.1326 13.9564 33.08Z" fill="#00D5FF"/>
<path d="M12.716 41.0801C11.9203 41.0801 11.1573 40.764 10.5947 40.2014C10.0321 39.6388 9.71599 38.8757 9.71599 38.0801V37.2301C6.18775 36.4857 3.05194 34.4805 0.895988 31.5901C0.45175 30.927 0.289099 30.1147 0.443817 29.3317C0.598534 28.5487 1.05795 27.8593 1.72099 27.4151C2.38403 26.9708 3.19639 26.8082 3.97935 26.9629C4.76232 27.1176 5.45175 27.577 5.89599 28.2401C5.97629 28.3609 6.00559 28.5086 5.97749 28.6509C5.9494 28.7933 5.86618 28.9188 5.74599 29.0001C5.62439 29.0778 5.47747 29.1056 5.33587 29.0777C5.19427 29.0497 5.06893 28.9682 4.98599 28.8501C4.8497 28.6391 4.67231 28.4578 4.46442 28.3169C4.25654 28.1761 4.02241 28.0785 3.77599 28.0301C3.52771 27.9791 3.2718 27.9778 3.02301 28.0262C2.77422 28.0746 2.53749 28.1718 2.32645 28.3122C2.11542 28.4526 1.93427 28.6334 1.79345 28.8441C1.65263 29.0548 1.55493 29.2914 1.50599 29.5401C1.4552 29.7873 1.45471 30.0422 1.50453 30.2896C1.55435 30.537 1.65348 30.7718 1.79599 30.9801C3.43599 33.4501 6.71599 35.4701 10.376 36.2701C10.4968 36.2957 10.6048 36.3626 10.6815 36.4594C10.7582 36.5561 10.7987 36.6766 10.796 36.8001V38.0801C10.796 38.5919 10.9993 39.0828 11.3613 39.4448C11.7232 39.8067 12.2141 40.0101 12.726 40.0101C13.2379 40.0101 13.7288 39.8067 14.0907 39.4448C14.4527 39.0828 14.656 38.5919 14.656 38.0801V37.0801C14.6549 36.9455 14.7031 36.8153 14.7916 36.7139C14.88 36.6126 15.0026 36.5472 15.136 36.5301C16.9949 36.3494 18.7807 35.7141 20.336 34.6801C21.2168 34.0821 21.9663 33.3107 22.5389 32.4132C23.1114 31.5157 23.495 30.5108 23.666 29.4601C23.8432 28.3537 23.8001 27.2232 23.5392 26.1335C23.2784 25.0438 22.8049 24.0163 22.146 23.1101C20.406 20.8301 17.586 19.7901 15.056 19.1101C14.9867 19.0916 14.9218 19.0595 14.8651 19.0156C14.8083 18.9718 14.7609 18.9171 14.7255 18.8547C14.6902 18.7924 14.6676 18.7236 14.659 18.6524C14.6505 18.5812 14.6563 18.509 14.676 18.4401C14.6945 18.3708 14.7266 18.3059 14.7704 18.2491C14.8143 18.1924 14.869 18.145 14.9313 18.1096C14.9937 18.0742 15.0625 18.0516 15.1337 18.0431C15.2049 18.0346 15.277 18.0404 15.346 18.0601C18.046 18.7801 21.046 19.9201 23.046 22.4501C24.5483 24.5172 25.1704 27.0953 24.776 29.6201C24.5839 30.8248 24.1489 31.978 23.4974 33.0094C22.8458 34.0408 21.9914 34.929 20.986 35.6201C19.4245 36.6752 17.6424 37.3593 15.776 37.6201V38.1401C15.7682 38.534 15.6828 38.9226 15.5248 39.2836C15.3668 39.6446 15.1392 39.971 14.8551 40.244C14.5709 40.517 14.2357 40.7314 13.8687 40.8748C13.5017 41.0183 13.11 41.088 12.716 41.0801Z" fill="#80DFFF"/>
<path d="M13.9668 32.72C12.804 32.7097 11.65 32.5174 10.5468 32.15C10.4615 32.1462 10.3783 32.1226 10.3037 32.0811C10.2292 32.0396 10.1653 31.9812 10.1171 31.9108C10.069 31.8403 10.0379 31.7596 10.0264 31.675C10.0148 31.5904 10.0231 31.5043 10.0506 31.4235C10.0781 31.3427 10.124 31.2694 10.1847 31.2094C10.2454 31.1494 10.3192 31.1044 10.4003 31.0778C10.4815 31.0513 10.5676 31.044 10.6521 31.0565C10.7365 31.0691 10.8169 31.1011 10.8868 31.15C13.8868 32.15 16.3468 31.53 17.5868 30.63C17.9552 30.3932 18.2618 30.0719 18.4809 29.6927C18.7001 29.3135 18.8255 28.8875 18.8468 28.45C18.8468 24.74 13.6968 23.68 10.9268 23.11C9.08688 22.7542 7.30613 22.1415 5.63677 21.29C4.15897 20.4806 2.95363 19.2521 2.17246 17.7592C1.3913 16.2662 1.06922 14.5756 1.24677 12.9C1.43084 11.1069 2.14157 9.40839 3.2894 8.01854C4.43722 6.62869 5.97077 5.60971 7.69678 5.09002C8.35094 4.88182 9.01937 4.7214 9.69678 4.61002V3.40002C9.69678 2.60437 10.0128 1.84131 10.5755 1.2787C11.1381 0.716093 11.9011 0.400024 12.6968 0.400024C13.4924 0.400024 14.2555 0.716093 14.8181 1.2787C15.3807 1.84131 15.6968 2.60437 15.6968 3.40002V4.73002C18.1104 5.23059 20.3968 6.2173 22.4168 7.63002C22.7389 7.85966 23.0124 8.15074 23.2216 8.48651C23.4308 8.82228 23.5715 9.1961 23.6356 9.58646C23.6997 9.97682 23.686 10.376 23.5953 10.7611C23.5045 11.1461 23.3385 11.5094 23.1068 11.83C22.877 12.155 22.5849 12.4309 22.2475 12.6419C21.9101 12.8529 21.534 12.9946 21.1413 13.0588C20.7485 13.123 20.3469 13.1084 19.9599 13.0159C19.5728 12.9234 19.208 12.7549 18.8868 12.52C17.7162 11.7192 16.4175 11.124 15.0468 10.76C13.2568 10.36 8.88677 9.76002 7.39677 12.92C7.33577 13.0526 7.22459 13.1556 7.08769 13.2062C6.95079 13.2568 6.79939 13.251 6.66678 13.19C6.53417 13.129 6.43122 13.0178 6.38058 12.8809C6.32995 12.744 6.33577 12.5926 6.39677 12.46C8.28677 8.46002 13.6868 9.34002 15.2968 9.70002C16.817 10.0905 18.2559 10.7473 19.5468 11.64C19.9683 11.9358 20.4877 12.0576 20.9968 11.98C21.2467 11.9403 21.4862 11.8508 21.7009 11.7168C21.9156 11.5829 22.1013 11.4071 22.2468 11.2C22.5419 10.7839 22.6611 10.2682 22.5788 9.76472C22.4964 9.26125 22.2191 8.81047 21.8068 8.51002C19.7879 7.10904 17.4936 6.1545 15.0768 5.71002C14.9532 5.68673 14.8416 5.62105 14.7613 5.52429C14.681 5.42754 14.6369 5.30578 14.6368 5.18002V3.40002C14.6368 2.88816 14.4334 2.39725 14.0715 2.0353C13.7095 1.67336 13.2186 1.47002 12.7068 1.47002C12.1949 1.47002 11.704 1.67336 11.3421 2.0353C10.9801 2.39725 10.7768 2.88816 10.7768 3.40002V5.05002C10.7758 5.18131 10.7279 5.30792 10.6417 5.40696C10.5555 5.506 10.4367 5.57093 10.3068 5.59002C9.52913 5.68262 8.76224 5.85006 8.01678 6.09002C6.4992 6.53812 5.1486 7.42621 4.13578 8.64194C3.12296 9.85768 2.49342 11.3465 2.32677 12.92C2.16988 14.386 2.4509 15.8656 3.13435 17.172C3.8178 18.4784 4.87303 19.5529 6.16678 20.26C7.74515 21.0591 9.42842 21.6314 11.1668 21.96C14.0268 22.55 19.9568 23.77 19.9568 28.37C19.9384 28.9799 19.7733 29.5764 19.4757 30.109C19.178 30.6416 18.7565 31.0947 18.2468 31.43C16.994 32.3051 15.4945 32.7571 13.9668 32.72Z" fill="#80DFFF"/>
<path d="M12.716 41.0801C11.9203 41.0801 11.1573 40.764 10.5947 40.2014C10.0321 39.6388 9.71599 38.8757 9.71599 38.0801V37.2301C6.18775 36.4857 3.05194 34.4805 0.895988 31.5901C0.45175 30.927 0.289099 30.1147 0.443817 29.3317C0.598534 28.5487 1.05795 27.8593 1.72099 27.4151C2.38403 26.9708 3.19639 26.8082 3.97935 26.9629C4.76232 27.1176 5.45175 27.577 5.89599 28.2401C5.97629 28.3609 6.00559 28.5086 5.97749 28.6509C5.9494 28.7933 5.86618 28.9188 5.74599 29.0001C5.62439 29.0778 5.47747 29.1056 5.33587 29.0777C5.19427 29.0497 5.06893 28.9682 4.98599 28.8501C4.8497 28.6391 4.67231 28.4578 4.46442 28.3169C4.25654 28.1761 4.02241 28.0785 3.77599 28.0301C3.52771 27.9791 3.2718 27.9778 3.02301 28.0262C2.77422 28.0746 2.53749 28.1718 2.32645 28.3122C2.11542 28.4526 1.93427 28.6334 1.79345 28.8441C1.65263 29.0548 1.55493 29.2914 1.50599 29.5401C1.4552 29.7873 1.45471 30.0422 1.50453 30.2896C1.55435 30.537 1.65348 30.7718 1.79599 30.9801C3.43599 33.4501 6.71599 35.4701 10.376 36.2701C10.4968 36.2957 10.6048 36.3626 10.6815 36.4594C10.7582 36.5561 10.7987 36.6766 10.796 36.8001V38.0801C10.796 38.5919 10.9993 39.0828 11.3613 39.4448C11.7232 39.8067 12.2141 40.0101 12.726 40.0101C13.2379 40.0101 13.7288 39.8067 14.0907 39.4448C14.4527 39.0828 14.656 38.5919 14.656 38.0801V37.0801C14.6549 36.9455 14.7031 36.8153 14.7916 36.7139C14.88 36.6126 15.0026 36.5472 15.136 36.5301C16.9949 36.3494 18.7807 35.7141 20.336 34.6801C21.2168 34.0821 21.9663 33.3107 22.5389 32.4132C23.1114 31.5157 23.495 30.5108 23.666 29.4601C23.8432 28.3537 23.8001 27.2232 23.5392 26.1335C23.2784 25.0438 22.8049 24.0163 22.146 23.1101C20.406 20.8301 17.586 19.7901 15.056 19.1101C14.9867 19.0916 14.9218 19.0595 14.8651 19.0156C14.8083 18.9718 14.7609 18.9171 14.7255 18.8547C14.6902 18.7924 14.6676 18.7236 14.659 18.6524C14.6505 18.5812 14.6563 18.509 14.676 18.4401C14.6945 18.3708 14.7266 18.3059 14.7704 18.2491C14.8143 18.1924 14.869 18.145 14.9313 18.1096C14.9937 18.0742 15.0625 18.0516 15.1337 18.0431C15.2049 18.0346 15.277 18.0404 15.346 18.0601C18.046 18.7801 21.046 19.9201 23.046 22.4501C24.5483 24.5172 25.1704 27.0953 24.776 29.6201C24.5839 30.8248 24.1489 31.978 23.4974 33.0094C22.8458 34.0408 21.9914 34.929 20.986 35.6201C19.4245 36.6752 17.6424 37.3593 15.776 37.6201V38.1401C15.7682 38.534 15.6828 38.9226 15.5248 39.2836C15.3668 39.6446 15.1392 39.971 14.8551 40.244C14.5709 40.517 14.2357 40.7314 13.8687 40.8748C13.5017 41.0183 13.11 41.088 12.716 41.0801Z" fill="#80DFFF"/>
<path d="M13.9668 32.72C12.804 32.7097 11.65 32.5174 10.5468 32.15C10.4615 32.1462 10.3783 32.1226 10.3037 32.0811C10.2292 32.0396 10.1653 31.9812 10.1171 31.9108C10.069 31.8403 10.0379 31.7596 10.0264 31.675C10.0148 31.5904 10.0231 31.5043 10.0506 31.4235C10.0781 31.3427 10.124 31.2694 10.1847 31.2094C10.2454 31.1494 10.3192 31.1044 10.4003 31.0778C10.4815 31.0513 10.5676 31.044 10.6521 31.0565C10.7365 31.0691 10.8169 31.1011 10.8868 31.15C13.8868 32.15 16.3468 31.53 17.5868 30.63C17.9552 30.3932 18.2618 30.0719 18.4809 29.6927C18.7001 29.3135 18.8255 28.8875 18.8468 28.45C18.8468 24.74 13.6968 23.68 10.9268 23.11C9.08688 22.7542 7.30613 22.1415 5.63677 21.29C4.15897 20.4806 2.95363 19.2521 2.17246 17.7592C1.3913 16.2662 1.06922 14.5756 1.24677 12.9C1.43084 11.1069 2.14157 9.40839 3.2894 8.01854C4.43722 6.62869 5.97077 5.60971 7.69678 5.09002C8.35094 4.88182 9.01937 4.7214 9.69678 4.61002V3.40002C9.69678 2.60437 10.0128 1.84131 10.5755 1.2787C11.1381 0.716093 11.9011 0.400024 12.6968 0.400024C13.4924 0.400024 14.2555 0.716093 14.8181 1.2787C15.3807 1.84131 15.6968 2.60437 15.6968 3.40002V4.73002C18.1104 5.23059 20.3968 6.2173 22.4168 7.63002C22.7389 7.85966 23.0124 8.15074 23.2216 8.48651C23.4308 8.82228 23.5715 9.1961 23.6356 9.58646C23.6997 9.97682 23.686 10.376 23.5953 10.7611C23.5045 11.1461 23.3385 11.5094 23.1068 11.83C22.877 12.155 22.5849 12.4309 22.2475 12.6419C21.9101 12.8529 21.534 12.9946 21.1413 13.0588C20.7485 13.123 20.3469 13.1084 19.9599 13.0159C19.5728 12.9234 19.208 12.7549 18.8868 12.52C17.7162 11.7192 16.4175 11.124 15.0468 10.76C13.2568 10.36 8.88677 9.76002 7.39677 12.92C7.33577 13.0526 7.22459 13.1556 7.08769 13.2062C6.95079 13.2568 6.79939 13.251 6.66678 13.19C6.53417 13.129 6.43122 13.0178 6.38058 12.8809C6.32995 12.744 6.33577 12.5926 6.39677 12.46C8.28677 8.46002 13.6868 9.34002 15.2968 9.70002C16.817 10.0905 18.2559 10.7473 19.5468 11.64C19.9683 11.9358 20.4877 12.0576 20.9968 11.98C21.2467 11.9403 21.4862 11.8508 21.7009 11.7168C21.9156 11.5829 22.1013 11.4071 22.2468 11.2C22.5419 10.7839 22.6611 10.2682 22.5788 9.76472C22.4964 9.26125 22.2191 8.81047 21.8068 8.51002C19.7879 7.10904 17.4936 6.1545 15.0768 5.71002C14.9532 5.68673 14.8416 5.62105 14.7613 5.52429C14.681 5.42754 14.6369 5.30578 14.6368 5.18002V3.40002C14.6368 2.88816 14.4334 2.39725 14.0715 2.0353C13.7095 1.67336 13.2186 1.47002 12.7068 1.47002C12.1949 1.47002 11.704 1.67336 11.3421 2.0353C10.9801 2.39725 10.7768 2.88816 10.7768 3.40002V5.05002C10.7758 5.18131 10.7279 5.30792 10.6417 5.40696C10.5555 5.506 10.4367 5.57093 10.3068 5.59002C9.52913 5.68262 8.76224 5.85006 8.01678 6.09002C6.4992 6.53812 5.1486 7.42621 4.13578 8.64194C3.12296 9.85768 2.49342 11.3465 2.32677 12.92C2.16988 14.386 2.4509 15.8656 3.13435 17.172C3.8178 18.4784 4.87303 19.5529 6.16678 20.26C7.74515 21.0591 9.42842 21.6314 11.1668 21.96C14.0268 22.55 19.9568 23.77 19.9568 28.37C19.9384 28.9799 19.7733 29.5764 19.4757 30.109C19.178 30.6416 18.7565 31.0947 18.2468 31.43C16.994 32.3051 15.4945 32.7571 13.9668 32.72Z" fill="#80DFFF"/>
<path d="M12.7161 40.72C12.0133 40.72 11.3393 40.4408 10.8423 39.9439C10.3453 39.4469 10.0661 38.7729 10.0661 38.07V36.92C6.28611 36.06 2.89612 33.92 1.18612 31.36C0.986363 31.0716 0.847063 30.7457 0.776601 30.402C0.706139 30.0583 0.705976 29.7038 0.77612 29.36C0.915998 28.6695 1.32412 28.0627 1.91093 27.6727C2.49774 27.2827 3.2153 27.1415 3.90612 27.28C4.24706 27.3442 4.57157 27.4764 4.86023 27.6689C5.14889 27.8613 5.39578 28.11 5.58612 28.4C5.61091 28.442 5.6195 28.4916 5.6103 28.5395C5.60109 28.5874 5.57471 28.6302 5.53611 28.66C5.51583 28.6728 5.49321 28.6813 5.46959 28.6852C5.44596 28.689 5.42179 28.6881 5.39851 28.6826C5.37523 28.677 5.3533 28.6668 5.334 28.6526C5.3147 28.6385 5.29842 28.6206 5.28611 28.6C4.95303 28.0891 4.43211 27.7298 3.83612 27.6C3.3917 27.5116 2.93102 27.5569 2.51239 27.7304C2.09376 27.9038 1.73601 28.1976 1.4844 28.5744C1.2328 28.9513 1.09866 29.3944 1.09897 29.8475C1.09927 30.3007 1.23401 30.7435 1.48612 31.12C3.16612 33.65 6.54611 35.73 10.2861 36.55C10.3266 36.5593 10.3627 36.5822 10.3883 36.615C10.4138 36.6479 10.4272 36.6885 10.4261 36.73V38.01C10.4261 38.6174 10.6674 39.1999 11.0968 39.6293C11.5263 40.0588 12.1088 40.3 12.7161 40.3C13.3235 40.3 13.9059 40.0588 14.3354 39.6293C14.7649 39.1999 15.0061 38.6174 15.0061 38.01V37.01C15.0058 36.9656 15.022 36.9226 15.0516 36.8893C15.0811 36.8561 15.1219 36.835 15.1661 36.83C17.0867 36.6411 18.9311 35.9817 20.5361 34.91C21.4552 34.2825 22.2375 33.4751 22.8356 32.5366C23.4338 31.5982 23.8354 30.5481 24.0161 29.45C24.1996 28.2962 24.1536 27.1176 23.8808 25.9816C23.6079 24.8456 23.1136 23.7747 22.4261 22.83C20.6261 20.45 17.7361 19.39 15.1361 18.66C15.1132 18.6544 15.0918 18.644 15.0731 18.6296C15.0545 18.6152 15.039 18.5971 15.0277 18.5764C15.0165 18.5557 15.0096 18.5329 15.0076 18.5095C15.0056 18.486 15.0085 18.4623 15.0161 18.44C15.0219 18.417 15.0323 18.3954 15.0465 18.3763C15.0607 18.3573 15.0786 18.3413 15.099 18.3292C15.1195 18.3171 15.1421 18.3092 15.1657 18.3059C15.1892 18.3026 15.2131 18.304 15.2361 18.31C17.8861 19.06 20.8561 20.15 22.7161 22.61C23.4344 23.5937 23.9509 24.7099 24.2358 25.8941C24.5207 27.0784 24.5684 28.3073 24.3761 29.51C24.1856 30.6555 23.766 31.7507 23.1422 32.7301C22.5185 33.7095 21.7035 34.553 20.7461 35.21C19.1384 36.2972 17.2935 36.983 15.3661 37.21V38.05C15.3688 38.3997 15.3022 38.7465 15.1702 39.0703C15.0382 39.3941 14.8434 39.6886 14.5971 39.9368C14.3507 40.185 14.0577 40.382 13.7349 40.5164C13.412 40.6508 13.0658 40.7201 12.7161 40.72Z" fill="#E2FAFF"/>
<path d="M13.9663 32.35C12.842 32.3395 11.7258 32.1574 10.6563 31.81C10.6128 31.7921 10.5774 31.7587 10.557 31.7162C10.5367 31.6737 10.5329 31.6252 10.5463 31.58C10.5532 31.5568 10.5646 31.5351 10.58 31.5164C10.5953 31.4977 10.6143 31.4823 10.6358 31.4711C10.6573 31.4599 10.6808 31.4531 10.705 31.4512C10.7291 31.4493 10.7534 31.4523 10.7763 31.46C13.4663 32.33 16.0963 32.12 17.7763 30.88C18.1926 30.6119 18.5381 30.2475 18.7835 29.8175C19.029 29.3875 19.1671 28.9047 19.1863 28.41C19.1863 24.41 13.8563 23.31 10.9763 22.72C9.17808 22.3619 7.43817 21.7561 5.80635 20.92C4.39702 20.1475 3.24685 18.9764 2.49978 17.5534C1.75271 16.1305 1.44194 14.5187 1.60634 12.92C1.78317 11.1983 2.46661 9.56777 3.57022 8.23454C4.67382 6.90132 6.14801 5.92533 7.80635 5.43C8.5361 5.19278 9.28582 5.02209 10.0463 4.92V3.4C10.0463 2.69718 10.3255 2.02314 10.8225 1.52617C11.3195 1.0292 11.9935 0.75 12.6963 0.75C13.3992 0.75 14.0732 1.0292 14.5702 1.52617C15.0671 2.02314 15.3463 2.69718 15.3463 3.4V5.03C17.8226 5.4918 20.1716 6.47711 22.2363 7.92C22.6617 8.22668 22.9869 8.65222 23.1711 9.14316C23.3553 9.6341 23.3903 10.1685 23.2717 10.6793C23.1531 11.1901 22.8861 11.6544 22.5044 12.0139C22.1227 12.3734 21.6433 12.6121 21.1263 12.7C20.4238 12.8119 19.7055 12.6431 19.1263 12.23C17.9101 11.3933 16.5561 10.7773 15.1263 10.41C13.2263 9.99 8.64634 9.41 7.04634 12.77C7.03663 12.7918 7.02267 12.8114 7.00531 12.8278C6.98794 12.8441 6.9675 12.8568 6.94517 12.8652C6.92284 12.8736 6.89906 12.8774 6.87523 12.8765C6.8514 12.8756 6.82799 12.87 6.80635 12.86C6.76334 12.8366 6.73042 12.7982 6.71383 12.7521C6.69724 12.706 6.69813 12.6555 6.71634 12.61C8.43634 8.98 13.2263 9.61 15.2063 10.06C16.6847 10.4324 18.0861 11.062 19.3463 11.92C19.8444 12.2754 20.4615 12.4225 21.0663 12.33C21.516 12.2621 21.9353 12.0619 22.2707 11.7548C22.6062 11.4477 22.8426 11.0477 22.9499 10.6058C23.0571 10.1639 23.0304 9.7 22.873 9.27332C22.7157 8.84664 22.4349 8.47648 22.0663 8.21C20.0077 6.77355 17.6651 5.79491 15.1963 5.34C15.1548 5.33508 15.1165 5.31502 15.0889 5.28365C15.0612 5.25229 15.0461 5.21182 15.0463 5.17V3.4C15.0463 2.79266 14.8051 2.21018 14.3756 1.78072C13.9462 1.35127 13.3637 1.11 12.7563 1.11C12.149 1.11 11.5665 1.35127 11.1371 1.78072C10.7076 2.21018 10.4663 2.79266 10.4663 3.4V5.05C10.4664 5.0934 10.4499 5.13519 10.4201 5.1668C10.3904 5.19841 10.3497 5.21745 10.3063 5.22C9.51015 5.32898 8.7242 5.50289 7.95635 5.74C6.35614 6.20865 4.93135 7.1424 3.86302 8.42262C2.79468 9.70284 2.13102 11.2717 1.95635 12.93C1.79247 14.4618 2.08468 16.0079 2.79631 17.3742C3.50793 18.7405 4.60727 19.8662 5.95635 20.61C7.56105 21.4327 9.27502 22.022 11.0463 22.36C13.8063 22.93 19.5463 24.11 19.5463 28.36C19.525 28.9124 19.3724 29.4518 19.1011 29.9335C18.8299 30.4153 18.4477 30.8254 17.9863 31.13C16.8066 31.9464 15.4009 32.3731 13.9663 32.35Z" fill="#E2FAFF"/>
</svg>
