<svg width="642" height="132" viewBox="0 0 642 132" fill="none" xmlns="http://www.w3.org/2000/svg">
<g opacity="0.01">
<path d="M576.01 126.2H65.69C49.6656 126.2 34.2976 119.834 22.9666 108.503C11.6357 97.1723 5.27002 81.8043 5.27002 65.7799C5.27002 49.7555 11.6357 34.3874 22.9666 23.0565C34.2976 11.7255 49.6656 5.35986 65.69 5.35986H576.01C592.034 5.35986 607.403 11.7255 618.733 23.0565C630.064 34.3874 636.43 49.7555 636.43 65.7799C636.43 81.8043 630.064 97.1723 618.733 108.503C607.403 119.834 592.034 126.2 576.01 126.2ZM65.69 54.4099C62.6745 54.4099 59.7825 55.6078 57.6502 57.7401C55.5179 59.8723 54.32 62.7644 54.32 65.7799C54.32 68.7954 55.5179 71.6874 57.6502 73.8197C59.7825 75.952 62.6745 77.1499 65.69 77.1499H576.01C579.026 77.1499 581.918 75.952 584.05 73.8197C586.182 71.6874 587.38 68.7954 587.38 65.7799C587.38 62.7644 586.182 59.8723 584.05 57.7401C581.918 55.6078 579.026 54.4099 576.01 54.4099H65.69Z" fill="#0072FF"/>
</g>
<g opacity="0.01">
<path d="M576.01 124.45H65.69C50.1298 124.45 35.2068 118.269 24.204 107.266C13.2013 96.263 7.02002 81.3402 7.02002 65.7799C7.02002 50.2197 13.2013 35.2967 24.204 24.2939C35.2068 13.2912 50.1298 7.10986 65.69 7.10986H576.01C591.57 7.10986 606.493 13.2912 617.496 24.2939C628.499 35.2967 634.68 50.2197 634.68 65.7799C634.68 81.3402 628.499 96.263 617.496 107.266C606.493 118.269 591.57 124.45 576.01 124.45ZM65.69 52.6599C62.2104 52.6599 58.8733 54.0421 56.4128 56.5026C53.9523 58.9631 52.57 62.3003 52.57 65.7799C52.57 69.2595 53.9523 72.5967 56.4128 75.0571C58.8733 77.5176 62.2104 78.8999 65.69 78.8999H576.01C579.49 78.8999 582.827 77.5176 585.287 75.0571C587.748 72.5967 589.13 69.2595 589.13 65.7799C589.13 62.3003 587.748 58.9631 585.287 56.5026C582.827 54.0421 579.49 52.6599 576.01 52.6599H65.69Z" fill="#0072FF"/>
</g>
<g opacity="0.01">
<path d="M576.01 122.7H65.6901C58.1524 122.8 50.67 121.401 43.6771 118.586C36.6843 115.771 30.3203 111.594 24.9547 106.299C19.5891 101.004 15.3288 94.6961 12.4209 87.7412C9.51304 80.7863 8.01562 73.3231 8.01562 65.7847C8.01562 58.2464 9.51304 50.7832 12.4209 43.8282C15.3288 36.8733 19.5891 30.5653 24.9547 25.2704C30.3203 19.9754 36.6843 15.799 43.6771 12.9836C50.67 10.1682 58.1524 8.76983 65.6901 8.86975H576.01C590.974 9.0681 605.258 15.1518 615.77 25.8038C626.282 36.4559 632.176 50.8193 632.176 65.7847C632.176 80.7502 626.282 95.1135 615.77 105.766C605.258 116.418 590.974 122.501 576.01 122.7ZM65.6901 50.9097C63.7042 50.8582 61.7281 51.2049 59.8784 51.9293C58.0286 52.6537 56.3426 53.7411 54.9199 55.1275C53.4971 56.5139 52.3663 58.1711 51.5942 60.0015C50.8221 61.8318 50.4244 63.7982 50.4244 65.7847C50.4244 67.7713 50.8221 69.7377 51.5942 71.5681C52.3663 73.3984 53.4971 75.0556 54.9199 76.442C56.3426 77.8284 58.0286 78.9158 59.8784 79.6402C61.7281 80.3646 63.7042 80.7112 65.6901 80.6597H576.01C579.888 80.5592 583.574 78.9479 586.282 76.1692C588.989 73.3906 590.504 69.6644 590.504 65.7847C590.504 61.9051 588.989 58.1789 586.282 55.4003C583.574 52.6216 579.888 51.0103 576.01 50.9097H65.6901Z" fill="#0072FF"/>
</g>
<g opacity="0.02">
<path d="M576.01 120.94H65.69C51.0607 120.94 37.0305 115.128 26.686 104.784C16.3415 94.4394 10.53 80.4092 10.53 65.7799C10.53 51.1506 16.3415 37.1204 26.686 26.7759C37.0305 16.4314 51.0607 10.6199 65.69 10.6199H576.01C590.639 10.6199 604.669 16.4314 615.014 26.7759C625.358 37.1204 631.17 51.1506 631.17 65.7799C631.17 80.4092 625.358 94.4394 615.014 104.784C604.669 115.128 590.639 120.94 576.01 120.94ZM65.69 49.1499C61.2795 49.1499 57.0496 50.902 53.9308 54.0207C50.8121 57.1394 49.06 61.3694 49.06 65.7799C49.06 70.1905 50.8121 74.4203 53.9308 77.5391C57.0496 80.6578 61.2795 82.4099 65.69 82.4099H576.01C580.421 82.4099 584.65 80.6578 587.769 77.5391C590.888 74.4203 592.64 70.1905 592.64 65.7799C592.64 61.3694 590.888 57.1394 587.769 54.0207C584.65 50.902 580.421 49.1499 576.01 49.1499H65.69Z" fill="#0072FF"/>
</g>
<g opacity="0.02">
<path d="M576.01 119.19H65.69C58.6761 119.19 51.7309 117.808 45.2509 115.124C38.7709 112.44 32.883 108.506 27.9235 103.546C22.9639 98.5869 19.0297 92.699 16.3456 86.219C13.6615 79.739 12.28 72.7938 12.28 65.7799C12.28 58.766 13.6615 51.8208 16.3456 45.3408C19.0297 38.8608 22.9639 32.9729 27.9235 28.0133C32.883 23.0537 38.7709 19.1196 45.2509 16.4355C51.7309 13.7514 58.6761 12.3699 65.69 12.3699H576.01C583.024 12.3699 589.969 13.7514 596.449 16.4355C602.929 19.1196 608.817 23.0537 613.777 28.0133C618.736 32.9729 622.67 38.8608 625.354 45.3408C628.039 51.8208 629.42 58.766 629.42 65.7799C629.42 72.7938 628.039 79.739 625.354 86.219C622.67 92.699 618.736 98.5869 613.777 103.546C608.817 108.506 602.929 112.44 596.449 115.124C589.969 117.808 583.024 119.19 576.01 119.19ZM65.69 47.3999C60.8153 47.3999 56.1403 49.3363 52.6934 52.7833C49.2464 56.2302 47.31 60.9052 47.31 65.7799C47.31 70.6546 49.2464 75.3296 52.6934 78.7765C56.1403 82.2234 60.8153 84.1599 65.69 84.1599H576.01C580.885 84.1599 585.56 82.2234 589.007 78.7765C592.454 75.3296 594.39 70.6546 594.39 65.7799C594.39 60.9052 592.454 56.2302 589.007 52.7833C585.56 49.3363 580.885 47.3999 576.01 47.3999H65.69Z" fill="#0072FF"/>
</g>
<g opacity="0.03">
<path d="M576.01 117.44H65.69C58.9059 117.44 52.1883 116.104 45.9206 113.508C39.6529 110.911 33.958 107.106 29.1609 102.309C24.3638 97.5119 20.5586 91.817 17.9624 85.5493C15.3662 79.2816 14.03 72.564 14.03 65.7799C14.03 58.9958 15.3662 52.2781 17.9624 46.0104C20.5586 39.7428 24.3638 34.0478 29.1609 29.2507C33.958 24.4537 39.6529 20.6484 45.9206 18.0522C52.1883 15.4561 58.9059 14.1199 65.69 14.1199H576.01C589.711 14.1199 602.851 19.5626 612.539 29.2507C622.227 38.9389 627.67 52.0788 627.67 65.7799C627.67 79.481 622.227 92.6209 612.539 102.309C602.851 111.997 589.711 117.44 576.01 117.44ZM65.69 45.6499C60.3512 45.6499 55.231 47.7707 51.4559 51.5458C47.6808 55.3209 45.56 60.4411 45.56 65.7799C45.56 71.1187 47.6808 76.2388 51.4559 80.0139C55.231 83.789 60.3512 85.9099 65.69 85.9099H576.01C581.349 85.9099 586.469 83.789 590.244 80.0139C594.019 76.2388 596.14 71.1187 596.14 65.7799C596.14 60.4411 594.019 55.3209 590.244 51.5458C586.469 47.7707 581.349 45.6499 576.01 45.6499H65.69Z" fill="#0072FF"/>
</g>
<g opacity="0.03">
<path d="M576.01 115.69H65.69C59.1357 115.69 52.6456 114.399 46.5903 111.891C40.5349 109.382 35.0329 105.706 30.3983 101.072C25.7637 96.437 22.0874 90.935 19.5792 84.8796C17.071 78.8243 15.78 72.3342 15.78 65.7799C15.78 59.2256 17.071 52.7355 19.5792 46.6802C22.0874 40.6248 25.7637 35.1227 30.3983 30.4882C35.0329 25.8536 40.5349 22.1773 46.5903 19.6691C52.6456 17.1609 59.1357 15.8699 65.69 15.8699H576.01C589.247 15.8699 601.942 21.1282 611.302 30.4882C620.662 39.8481 625.92 52.543 625.92 65.7799C625.92 79.0169 620.662 91.7117 611.302 101.072C601.942 110.432 589.247 115.69 576.01 115.69ZM65.69 43.8999C59.8871 43.8999 54.3218 46.2051 50.2185 50.3084C46.1152 54.4117 43.81 59.977 43.81 65.7799C43.81 71.5828 46.1152 77.1481 50.2185 81.2514C54.3218 85.3547 59.8871 87.6599 65.69 87.6599H576.01C581.813 87.6599 587.378 85.3547 591.482 81.2514C595.585 77.1481 597.89 71.5828 597.89 65.7799C597.89 59.977 595.585 54.4117 591.482 50.3084C587.378 46.2051 581.813 43.8999 576.01 43.8999H65.69Z" fill="#0072FF"/>
</g>
<g opacity="0.04">
<path d="M576.01 113.94H65.69C59.3655 113.94 53.103 112.694 47.2599 110.274C41.4169 107.854 36.1078 104.306 31.6357 99.8342C27.1637 95.3621 23.6163 90.0529 21.196 84.2099C18.7757 78.3669 17.53 72.1044 17.53 65.7799C17.53 59.4554 18.7757 53.1929 21.196 47.3499C23.6163 41.5068 27.1637 36.1977 31.6357 31.7256C36.1078 27.2535 41.4169 23.7061 47.2599 21.2858C53.103 18.8656 59.3655 17.6199 65.69 17.6199H576.01C588.783 17.6199 601.033 22.6938 610.064 31.7256C619.096 40.7573 624.17 53.0071 624.17 65.7799C624.17 78.5527 619.096 90.8024 610.064 99.8342C601.033 108.866 588.783 113.94 576.01 113.94ZM65.69 42.1499C59.4229 42.1499 53.4126 44.6394 48.9811 49.0709C44.5496 53.5024 42.06 59.5128 42.06 65.7799C42.06 72.047 44.5496 78.0573 48.9811 82.4888C53.4126 86.9203 59.4229 89.4099 65.69 89.4099H576.01C582.277 89.4099 588.287 86.9203 592.719 82.4888C597.15 78.0573 599.64 72.047 599.64 65.7799C599.64 59.5128 597.15 53.5024 592.719 49.0709C588.287 44.6394 582.277 42.1499 576.01 42.1499H65.69Z" fill="#0072FF"/>
</g>
<g opacity="0.05">
<path d="M576.01 112.19H65.6899C59.5386 112.28 53.4307 111.147 47.7214 108.855C42.0122 106.564 36.8155 103.16 32.4336 98.8418C28.0517 94.5237 24.572 89.3776 22.1969 83.7026C19.8218 78.0276 18.5986 71.9369 18.5986 65.785C18.5986 59.633 19.8218 53.5424 22.1969 47.8674C24.572 42.1924 28.0517 37.0463 32.4336 32.7282C36.8155 28.4101 42.0122 25.0064 47.7214 22.7148C53.4307 20.4233 59.5386 19.2897 65.6899 19.38H576.01C588.199 19.5589 599.829 24.5267 608.385 33.2099C616.942 41.8931 621.739 53.5943 621.739 65.785C621.739 77.9757 616.942 89.6769 608.385 98.3601C599.829 107.043 588.199 112.011 576.01 112.19ZM65.6899 40.4C62.3139 40.333 58.9584 40.94 55.8199 42.1857C52.6814 43.4313 49.8229 45.2904 47.4116 47.6543C45.0004 50.0181 43.0849 52.8392 41.7772 55.9524C40.4696 59.0656 39.796 62.4083 39.796 65.785C39.796 69.1616 40.4696 72.5044 41.7772 75.6176C43.0849 78.7308 45.0004 81.5518 47.4116 83.9157C49.8229 86.2796 52.6814 88.1387 55.8199 89.3843C58.9584 90.6299 62.3139 91.237 65.6899 91.17H576.01C582.655 91.0381 588.984 88.3056 593.637 83.5594C598.29 78.8131 600.896 72.4316 600.896 65.785C600.896 59.1384 598.29 52.7569 593.637 48.0106C588.984 43.2644 582.655 40.5319 576.01 40.4H65.6899Z" fill="#0072FF"/>
</g>
<g opacity="0.06">
<path d="M576.01 110.43H65.69C53.8481 110.43 42.4912 105.726 34.1177 97.3522C25.7442 88.9787 21.04 77.6218 21.04 65.7799C21.04 53.938 25.7442 42.5811 34.1177 34.2076C42.4912 25.8341 53.8481 21.1299 65.69 21.1299H576.01C587.852 21.1299 599.209 25.8341 607.582 34.2076C615.956 42.5811 620.66 53.938 620.66 65.7799C620.66 77.6218 615.956 88.9787 607.582 97.3522C599.209 105.726 587.852 110.43 576.01 110.43ZM65.69 38.6399C58.492 38.6399 51.5889 41.4993 46.4991 46.589C41.4094 51.6787 38.55 58.5819 38.55 65.7799C38.55 72.9779 41.4094 79.881 46.4991 84.9708C51.5889 90.0605 58.492 92.9199 65.69 92.9199H576.01C583.208 92.9199 590.111 90.0605 595.201 84.9708C600.291 79.881 603.15 72.9779 603.15 65.7799C603.15 58.5819 600.291 51.6787 595.201 46.589C590.111 41.4993 583.208 38.6399 576.01 38.6399H65.69Z" fill="#0072FF"/>
</g>
<g opacity="0.08">
<path d="M576.01 108.68H65.69C54.3122 108.68 43.4004 104.16 35.3551 96.1147C27.3098 88.0694 22.79 77.1577 22.79 65.7799C22.79 54.4021 27.3098 43.4903 35.3551 35.445C43.4004 27.3997 54.3122 22.8799 65.69 22.8799H576.01C581.644 22.8799 587.222 23.9895 592.427 26.1454C597.632 28.3014 602.361 31.4614 606.345 35.445C610.329 39.4286 613.489 44.1579 615.644 49.3627C617.8 54.5676 618.91 60.1462 618.91 65.7799C618.91 71.4136 617.8 76.9922 615.644 82.197C613.489 87.4019 610.329 92.1311 606.345 96.1147C602.361 100.098 597.632 103.258 592.427 105.414C587.222 107.57 581.644 108.68 576.01 108.68ZM65.69 36.8899C58.0279 36.8899 50.6796 39.9336 45.2617 45.3516C39.8438 50.7695 36.8 58.1178 36.8 65.7799C36.8 73.442 39.8438 80.7903 45.2617 86.2082C50.6796 91.6261 58.0279 94.6699 65.69 94.6699H576.01C583.672 94.6699 591.02 91.6261 596.438 86.2082C601.856 80.7903 604.9 73.442 604.9 65.7799C604.9 58.1178 601.856 50.7695 596.438 45.3516C591.02 39.9336 583.672 36.8899 576.01 36.8899H65.69Z" fill="#0072FF"/>
</g>
<g opacity="0.15">
<path d="M576.01 106.93H65.69C54.7763 106.93 44.3097 102.594 36.5926 94.8773C28.8755 87.1602 24.54 76.6936 24.54 65.7799C24.54 54.8662 28.8755 44.3996 36.5926 36.6824C44.3097 28.9653 54.7763 24.6299 65.69 24.6299H576.01C586.924 24.6299 597.39 28.9653 605.107 36.6824C612.825 44.3996 617.16 54.8662 617.16 65.7799C617.16 76.6936 612.825 87.1602 605.107 94.8773C597.39 102.594 586.924 106.93 576.01 106.93ZM65.69 35.1399C57.5638 35.1399 49.7704 38.368 44.0243 44.1141C38.2782 49.8603 35.05 57.6537 35.05 65.7799C35.05 73.9061 38.2782 81.6995 44.0243 87.4456C49.7704 93.1917 57.5638 96.4199 65.69 96.4199H576.01C580.034 96.4199 584.018 95.6273 587.735 94.0875C591.453 92.5477 594.831 90.2908 597.676 87.4456C600.521 84.6004 602.778 81.2227 604.318 77.5053C605.857 73.7879 606.65 69.8036 606.65 65.7799C606.65 61.7562 605.857 57.7719 604.318 54.0544C602.778 50.337 600.521 46.9593 597.676 44.1141C594.831 41.2689 591.453 39.012 587.735 37.4722C584.018 35.9324 580.034 35.1399 576.01 35.1399H65.69Z" fill="#0072FF"/>
</g>
<path d="M576.01 105.18H65.69C55.2405 105.18 45.219 101.029 37.83 93.6399C30.4411 86.251 26.29 76.2294 26.29 65.7799C26.29 55.3304 30.4411 45.3088 37.83 37.9199C45.219 30.5309 55.2405 26.3799 65.69 26.3799H576.01C586.46 26.3799 596.481 30.5309 603.87 37.9199C611.259 45.3088 615.41 55.3304 615.41 65.7799C615.41 76.2294 611.259 86.251 603.87 93.6399C596.481 101.029 586.46 105.18 576.01 105.18ZM65.69 33.3899C57.0996 33.3899 48.8611 36.8024 42.7868 42.8767C36.7125 48.951 33.3 57.1895 33.3 65.7799C33.3 74.3703 36.7125 82.6087 42.7868 88.683C48.8611 94.7573 57.0996 98.1699 65.69 98.1699H576.01C584.6 98.1699 592.839 94.7573 598.913 88.683C604.987 82.6087 608.4 74.3703 608.4 65.7799C608.4 57.1895 604.987 48.951 598.913 42.8767C592.839 36.8024 584.6 33.3899 576.01 33.3899H65.69Z" fill="#0072FF"/>
<path d="M576.01 102.84H65.6899C55.861 102.84 46.4346 98.9352 39.4845 91.9851C32.5344 85.035 28.6299 75.6087 28.6299 65.7798C28.6299 55.9509 32.5344 46.5245 39.4845 39.5744C46.4346 32.6243 55.861 28.7197 65.6899 28.7197H576.01C585.839 28.7197 595.265 32.6243 602.215 39.5744C609.165 46.5245 613.07 55.9509 613.07 65.7798C613.07 75.6087 609.165 85.035 602.215 91.9851C595.265 98.9352 585.839 102.84 576.01 102.84ZM65.6899 31.0497C56.4789 31.0497 47.6452 34.7088 41.1321 41.2219C34.6189 47.7351 30.9599 56.5688 30.9599 65.7798C30.9599 74.9908 34.6189 83.8244 41.1321 90.3376C47.6452 96.8507 56.4789 100.51 65.6899 100.51H576.01C585.221 100.51 594.055 96.8507 600.568 90.3376C607.081 83.8244 610.74 74.9908 610.74 65.7798C610.74 56.5688 607.081 47.7351 600.568 41.2219C594.055 34.7088 585.221 31.0497 576.01 31.0497H65.6899Z" fill="white"/>
</svg>
