<svg width="52" height="51" viewBox="0 0 52 51" fill="none" xmlns="http://www.w3.org/2000/svg">
<path fill-rule="evenodd" clip-rule="evenodd" d="M26.0699 0C31.0555 3.92234e-07 35.9292 1.47829 40.0748 4.24796C44.2203 7.01762 47.4515 10.9543 49.3599 15.5602C51.2683 20.1662 51.7681 25.2346 50.7962 30.1245C49.8243 35.0145 47.4243 39.5066 43.8996 43.0326C40.3749 46.5587 35.8838 48.9605 30.9942 49.9344C26.1046 50.9082 21.0361 50.4104 16.4294 48.5039C11.8227 46.5973 7.88472 43.3676 5.1134 39.2232C2.34209 35.0788 0.861841 30.2056 0.859863 25.22C0.859863 18.5339 3.51592 12.1216 8.24371 7.39384C12.9715 2.66604 19.3838 0.0100021 26.0699 0.0100021V0Z" fill="url(#paint0_radial_7_4958)"/>
<path fill-rule="evenodd" clip-rule="evenodd" d="M26.0699 6.05999C27.7578 6.05674 29.4389 6.27527 31.0699 6.70999L32.7298 0.48999C37.0655 1.65763 41.0199 3.93996 44.1999 7.10999L39.6499 11.67C42.042 14.0406 43.7667 17.0001 44.6499 20.25L50.8699 18.58C52.0298 22.9205 52.0298 27.4895 50.8699 31.83L44.6499 30.16C43.7692 33.4138 42.0443 36.3772 39.6499 38.75L44.1999 43.3C41.0271 46.4794 37.07 48.7633 32.7298 49.92L30.9999 43.71C27.7482 44.5633 24.3315 44.5633 21.0799 43.71L19.4198 49.92C15.0976 48.7552 11.1586 46.4719 7.99986 43.3L12.5498 38.75C10.1573 36.3757 8.43277 33.4129 7.54984 30.16L1.33988 31.83C0.166653 27.4912 0.166653 22.9187 1.33988 18.58L7.56986 20.22C8.45308 16.9701 10.1777 14.0106 12.5699 11.64L7.99986 7.10999C11.1798 3.93996 15.1342 1.65763 19.4698 0.48999L21.1299 6.70999C22.7611 6.27663 24.442 6.05811 26.1299 6.05999H26.0699Z" fill="url(#paint1_radial_7_4958)"/>
<path fill-rule="evenodd" clip-rule="evenodd" d="M26.0699 8.04004C29.4654 8.04004 32.7846 9.04679 35.608 10.933C38.4313 12.8192 40.6321 15.5002 41.9319 18.6371C43.2318 21.7739 43.5724 25.2257 42.9107 28.5561C42.249 31.8864 40.6147 34.9459 38.2144 37.3475C35.8141 39.7492 32.7557 41.3853 29.4257 42.0489C26.0957 42.7125 22.6437 42.3739 19.5061 41.0759C16.3685 39.7779 13.6863 37.5787 11.7984 34.7565C9.91054 31.9342 8.90188 28.6155 8.8999 25.22C8.8999 20.6663 10.7088 16.299 13.9288 13.079C17.1488 9.85902 21.5161 8.05004 26.0699 8.05004V8.04004ZM26.0699 9.22004C29.2344 9.22004 32.3278 10.1584 34.959 11.9165C37.5902 13.6746 39.6409 16.1735 40.8519 19.0971C42.0629 22.0207 42.3798 25.2378 41.7625 28.3415C41.1451 31.4452 39.6212 34.2961 37.3836 36.5337C35.146 38.7714 32.295 40.2952 29.1913 40.9126C26.0876 41.53 22.8706 41.2131 19.947 40.0021C17.0233 38.7911 14.5245 36.7403 12.7664 34.1092C11.0083 31.478 10.0699 28.3845 10.0699 25.22C10.0699 20.9766 11.7556 16.9069 14.7562 13.9063C17.7567 10.9058 21.8264 9.22004 26.0699 9.22004Z" fill="url(#paint2_radial_7_4958)"/>
<path d="M25.9999 35.7499C23.1633 35.822 20.3355 35.4059 17.6399 34.5199C15.8699 33.8299 15.5599 32.8899 15.5399 32.3799C15.5299 32.0725 15.6122 31.7692 15.7762 31.509C15.9402 31.2487 16.1783 31.0436 16.4599 30.9199C16.5148 30.891 16.575 30.8735 16.6368 30.8685C16.6986 30.8634 16.7608 30.8709 16.8197 30.8905C16.8785 30.9102 16.9328 30.9415 16.9793 30.9826C17.0257 31.0238 17.0634 31.0739 17.0899 31.1299C17.1429 31.2418 17.1505 31.3697 17.1114 31.4871C17.0723 31.6045 16.9894 31.7022 16.8799 31.7599C16.7612 31.8042 16.6585 31.8832 16.5853 31.9866C16.5122 32.0901 16.472 32.2132 16.4699 32.3399C16.4699 32.6899 16.8999 33.2299 17.9799 33.6499C20.5571 34.5059 23.2656 34.8986 25.9799 34.8099C28.6984 34.843 31.4031 34.4171 33.9799 33.5499C34.8499 33.1999 35.1599 32.7499 35.1599 32.4499C35.141 32.3207 35.086 32.1995 35.001 32.1004C34.916 32.0013 34.8047 31.9283 34.6799 31.8899C34.6215 31.87 34.5678 31.8384 34.5221 31.7968C34.4765 31.7553 34.4398 31.7049 34.4145 31.6486C34.3892 31.5923 34.3758 31.5314 34.375 31.4697C34.3742 31.408 34.386 31.3468 34.4099 31.2899C34.4547 31.1754 34.5426 31.0829 34.6547 31.0324C34.7669 30.9819 34.8945 30.9775 35.0099 31.0199C35.315 31.1152 35.5829 31.3032 35.7764 31.5576C35.97 31.8121 36.0796 32.1204 36.0899 32.4399C36.0899 32.8299 35.9299 33.7799 34.3299 34.4399C31.6466 35.3417 28.8305 35.7846 25.9999 35.7499Z" fill="url(#paint3_radial_7_4958)"/>
<path d="M19.33 20.6C19.2708 20.614 19.2091 20.614 19.15 20.6C19.0921 20.578 19.0392 20.5446 18.9946 20.5017C18.9499 20.4588 18.9144 20.4073 18.8901 20.3504C18.8658 20.2934 18.8533 20.2321 18.8533 20.1702C18.8532 20.1083 18.8657 20.047 18.89 19.99L19.3699 18.8C19.2088 18.6637 19.0795 18.4936 18.9914 18.3018C18.9033 18.11 18.8584 17.9011 18.8599 17.69C18.8432 17.4875 18.8686 17.2836 18.9346 17.0914C19.0007 16.8992 19.1059 16.7227 19.2435 16.5732C19.3812 16.4237 19.5484 16.3043 19.7345 16.2227C19.9206 16.141 20.1217 16.0989 20.325 16.0989C20.5282 16.0989 20.7292 16.141 20.9153 16.2227C21.1015 16.3043 21.2687 16.4237 21.4064 16.5732C21.544 16.7227 21.6492 16.8992 21.7152 17.0914C21.7812 17.2836 21.8067 17.4875 21.7899 17.69C21.7903 17.9121 21.739 18.1312 21.64 18.33L22.4699 19.14C22.5588 19.2275 22.6092 19.3468 22.6102 19.4715C22.6111 19.5962 22.5624 19.7162 22.4749 19.805C22.3874 19.8939 22.2682 19.9443 22.1435 19.9452C22.0188 19.9462 21.8988 19.8975 21.8099 19.81L20.71 18.72C20.6658 18.6771 20.6307 18.6258 20.6068 18.5692C20.5828 18.5125 20.5704 18.4516 20.5704 18.39C20.5704 18.3285 20.5828 18.2676 20.6068 18.2109C20.6307 18.1542 20.6658 18.1029 20.71 18.06C20.7586 18.0116 20.7969 17.9539 20.8226 17.8903C20.8484 17.8267 20.8611 17.7586 20.8599 17.69C20.8703 17.615 20.8645 17.5386 20.8429 17.466C20.8213 17.3935 20.7843 17.3263 20.7346 17.2692C20.6848 17.2121 20.6234 17.1664 20.5544 17.135C20.4855 17.1036 20.4107 17.0874 20.335 17.0874C20.2592 17.0874 20.1844 17.1036 20.1154 17.135C20.0465 17.1664 19.9851 17.2121 19.9353 17.2692C19.8856 17.3263 19.8487 17.3935 19.827 17.466C19.8054 17.5386 19.7996 17.615 19.8099 17.69C19.8101 17.7952 19.8416 17.898 19.9003 17.9853C19.9591 18.0725 20.0425 18.1403 20.14 18.18C20.2551 18.2267 20.3472 18.317 20.3959 18.4314C20.4446 18.5457 20.4461 18.6746 20.4 18.79L19.77 20.34C19.7305 20.422 19.6677 20.4905 19.5894 20.5367C19.511 20.583 19.4208 20.605 19.33 20.6Z" fill="url(#paint4_radial_7_4958)"/>
<path d="M32.6298 20.49C32.5362 20.4898 32.4446 20.4623 32.3664 20.4108C32.2883 20.3592 32.2269 20.286 32.1898 20.2L31.4998 18.55C31.4531 18.4358 31.4532 18.3079 31.4999 18.1938C31.5467 18.0797 31.6364 17.9885 31.7498 17.94C31.8446 17.8977 31.9252 17.829 31.9819 17.7421C32.0387 17.6552 32.0692 17.5538 32.0698 17.45C32.0698 17.3094 32.014 17.1746 31.9146 17.0752C31.8152 16.9758 31.6803 16.92 31.5398 16.92C31.3992 16.92 31.2644 16.9758 31.165 17.0752C31.0656 17.1746 31.0098 17.3094 31.0098 17.45C31.0117 17.5819 31.0656 17.7077 31.1598 17.8C31.239 17.8954 31.2817 18.016 31.2798 18.14C31.2712 18.2665 31.2138 18.3848 31.1198 18.47L29.7898 19.68C29.6969 19.7635 29.5748 19.8068 29.4501 19.8002C29.3253 19.7936 29.2083 19.7378 29.1248 19.645C29.0413 19.5522 28.998 19.4299 29.0046 19.3052C29.0111 19.1805 29.0669 19.0635 29.1598 18.98L30.1598 18.04C30.0777 17.8539 30.0335 17.6533 30.0298 17.45C30.0298 17.0601 30.1847 16.6862 30.4604 16.4105C30.736 16.1349 31.1099 15.98 31.4998 15.98C31.8897 15.98 32.2635 16.1349 32.5392 16.4105C32.8149 16.6862 32.9698 17.0601 32.9698 17.45C32.9691 17.6573 32.9252 17.8623 32.8409 18.0517C32.7565 18.2411 32.6335 18.4108 32.4798 18.55L33.0198 19.83C33.0445 19.8871 33.0576 19.9485 33.0583 20.0106C33.0591 20.0728 33.0475 20.1345 33.0243 20.1922C33.001 20.2498 32.9665 20.3023 32.9228 20.3466C32.8792 20.3908 32.8272 20.426 32.7698 20.45C32.7261 20.472 32.6786 20.4855 32.6298 20.49Z" fill="url(#paint5_radial_7_4958)"/>
<path d="M36.5198 17.78C36.0796 17.78 35.6573 17.9549 35.346 18.2662C35.0347 18.5775 34.8598 18.9997 34.8598 19.44C34.855 19.4698 34.855 19.5002 34.8598 19.53C33.3597 20.4389 32.0102 21.5759 30.8598 22.9L27.2198 17.71C27.5226 17.4404 27.7363 17.0851 27.8326 16.6913C27.9289 16.2975 27.9032 15.8837 27.759 15.5048C27.6147 15.1258 27.3587 14.7997 27.0249 14.5696C26.6911 14.3395 26.2953 14.2163 25.8898 14.2163C25.4844 14.2163 25.0885 14.3395 24.7547 14.5696C24.4209 14.7997 24.1649 15.1258 24.0207 15.5048C23.8765 15.8837 23.8507 16.2975 23.947 16.6913C24.0433 17.0851 24.257 17.4404 24.5598 17.71L20.9198 22.9C19.7635 21.5903 18.4148 20.4641 16.9198 19.56V19.44C16.9197 19.11 16.8213 18.7875 16.637 18.5137C16.4528 18.2399 16.1912 18.0273 15.8855 17.9029C15.5798 17.7785 15.244 17.7481 14.921 17.8154C14.5979 17.8828 14.3023 18.0449 14.0718 18.2811C13.8413 18.5173 13.6865 18.8168 13.627 19.1414C13.5676 19.466 13.6062 19.8009 13.738 20.1035C13.8698 20.406 14.0888 20.6624 14.367 20.8399C14.6452 21.0174 14.9699 21.1079 15.2998 21.1C16.6129 23.9893 17.3207 27.1168 17.3798 30.29C17.3812 30.3523 17.3952 30.4137 17.421 30.4704C17.4468 30.5271 17.4838 30.578 17.5299 30.62C17.6199 30.71 19.7998 32.78 25.8798 32.78C31.9598 32.78 34.1498 30.71 34.2298 30.62C34.2773 30.5792 34.3154 30.5286 34.3413 30.4716C34.3672 30.4146 34.3804 30.3526 34.3798 30.29C34.4189 27.1134 35.1205 23.9799 36.4398 21.09C36.6664 21.1135 36.8954 21.0901 37.1126 21.0213C37.3297 20.9525 37.5304 20.8397 37.7021 20.69C37.8738 20.5403 38.0129 20.3569 38.1106 20.1511C38.2084 19.9453 38.2627 19.7217 38.2703 19.494C38.2778 19.2663 38.2384 19.0395 38.1546 18.8277C38.0707 18.6159 37.9442 18.4236 37.7828 18.2629C37.6214 18.1021 37.4286 17.9762 37.2165 17.8932C37.0044 17.8101 36.7775 17.7716 36.5498 17.78H36.5198ZM20.5198 28.42C20.2305 28.4462 19.94 28.3843 19.6865 28.2424C19.433 28.1005 19.2283 27.8852 19.0994 27.6249C18.9705 27.3645 18.9233 27.0713 18.9641 26.7836C19.0049 26.496 19.1318 26.2274 19.328 26.0132C19.5243 25.7989 19.7808 25.6491 20.0637 25.5833C20.3467 25.5175 20.643 25.5388 20.9136 25.6445C21.1842 25.7502 21.4166 25.9352 21.5801 26.1754C21.7436 26.4155 21.8307 26.6995 21.8298 26.99C21.8462 27.3518 21.7185 27.7053 21.4749 27.9733C21.2313 28.2412 20.8916 28.4019 20.5299 28.42H20.5198ZM25.8399 30.02C25.2138 30.1439 24.5647 30.0709 23.9818 29.811C23.3989 29.5511 22.9107 29.1172 22.5844 28.5687C22.2581 28.0202 22.1096 27.3842 22.1594 26.7479C22.2091 26.1116 22.4547 25.5064 22.8623 25.0153C23.2699 24.5242 23.8195 24.1714 24.4357 24.0053C25.052 23.8392 25.7045 23.8679 26.3037 24.0876C26.9029 24.3073 27.4194 24.7072 27.7822 25.2322C28.145 25.7573 28.3363 26.3818 28.3298 27.02C28.3837 27.7435 28.1556 28.4598 27.6934 29.0189C27.2311 29.5781 26.5705 29.9368 25.8498 30.02H25.8399ZM31.1598 28.42C30.8703 28.4483 30.579 28.3882 30.3242 28.2477C30.0695 28.1072 29.8634 27.8928 29.7329 27.6328C29.6024 27.3728 29.5537 27.0793 29.5932 26.7911C29.6327 26.5029 29.7586 26.2334 29.9543 26.0182C30.15 25.8029 30.4063 25.652 30.6895 25.5852C30.9726 25.5185 31.2694 25.5391 31.5406 25.6443C31.8118 25.7495 32.0448 25.9344 32.2089 26.1746C32.373 26.4148 32.4605 26.6991 32.4599 26.99C32.4736 27.3495 32.3465 27.7001 32.1055 27.9672C31.8646 28.2343 31.5288 28.3968 31.1698 28.42H31.1598Z" fill="url(#paint6_radial_7_4958)"/>
<defs>
<radialGradient id="paint0_radial_7_4958" cx="0" cy="0" r="1" gradientUnits="userSpaceOnUse" gradientTransform="translate(26.0699 25.21) scale(25.21 25.21)">
<stop offset="0.48" stop-color="#FF8C00"/>
<stop offset="0.8" stop-color="#F5FF70"/>
<stop offset="0.86" stop-color="#F9E63E"/>
<stop offset="0.92" stop-color="#FDD011"/>
<stop offset="0.95" stop-color="#FFC700"/>
<stop offset="0.96" stop-color="#FFC903"/>
<stop offset="0.97" stop-color="#FECD0D"/>
<stop offset="0.98" stop-color="#FCD61D"/>
<stop offset="0.99" stop-color="#F8F052"/>
<stop offset="1" stop-color="#F5FF70"/>
</radialGradient>
<radialGradient id="paint1_radial_7_4958" cx="0" cy="0" r="1" gradientUnits="userSpaceOnUse" gradientTransform="translate(10.4399 4.23999) scale(52.09 52.09)">
<stop stop-color="#113DAD"/>
<stop offset="1" stop-color="#0B1B54"/>
</radialGradient>
<radialGradient id="paint2_radial_7_4958" cx="0" cy="0" r="1" gradientUnits="userSpaceOnUse" gradientTransform="translate(36.1399 38.59) scale(34.09 34.09)">
<stop stop-color="#F5FF7A"/>
<stop offset="1" stop-color="#E2E600"/>
</radialGradient>
<radialGradient id="paint3_radial_7_4958" cx="0" cy="0" r="1" gradientUnits="userSpaceOnUse" gradientTransform="translate(25.8599 33.3099) scale(7.47002 7.47)">
<stop stop-color="#F5FF70"/>
<stop offset="0.16" stop-color="#F6FD6A"/>
<stop offset="0.37" stop-color="#F7F75A"/>
<stop offset="0.6" stop-color="#F9ED3F"/>
<stop offset="0.85" stop-color="#FDDE19"/>
<stop offset="1" stop-color="#FFD500"/>
</radialGradient>
<radialGradient id="paint4_radial_7_4958" cx="0" cy="0" r="1" gradientUnits="userSpaceOnUse" gradientTransform="translate(20.7299 18.39) scale(2.05 2.05)">
<stop stop-color="#F5FF70"/>
<stop offset="0.16" stop-color="#F6FD6A"/>
<stop offset="0.37" stop-color="#F7F75A"/>
<stop offset="0.6" stop-color="#F9ED3F"/>
<stop offset="0.85" stop-color="#FDDE19"/>
<stop offset="1" stop-color="#FFD500"/>
</radialGradient>
<radialGradient id="paint5_radial_7_4958" cx="0" cy="0" r="1" gradientUnits="userSpaceOnUse" gradientTransform="translate(31.0498 18.24) scale(2.15001 2.15)">
<stop stop-color="#F5FF70"/>
<stop offset="0.16" stop-color="#F6FD6A"/>
<stop offset="0.37" stop-color="#F7F75A"/>
<stop offset="0.6" stop-color="#F9ED3F"/>
<stop offset="0.85" stop-color="#FDDE19"/>
<stop offset="1" stop-color="#FFD500"/>
</radialGradient>
<radialGradient id="paint6_radial_7_4958" cx="0" cy="0" r="1" gradientUnits="userSpaceOnUse" gradientTransform="translate(25.8799 23.53) scale(10.89 10.89)">
<stop stop-color="#F5FF70"/>
<stop offset="0.16" stop-color="#F6FD6A"/>
<stop offset="0.37" stop-color="#F7F75A"/>
<stop offset="0.6" stop-color="#F9ED3F"/>
<stop offset="0.85" stop-color="#FDDE19"/>
<stop offset="1" stop-color="#FFD500"/>
</radialGradient>
</defs>
</svg>
