<svg width="52" height="51" viewBox="0 0 52 51" fill="none" xmlns="http://www.w3.org/2000/svg">
<path fill-rule="evenodd" clip-rule="evenodd" d="M26.0699 0C31.0555 3.92234e-07 35.9292 1.47829 40.0748 4.24796C44.2203 7.01762 47.4515 10.9543 49.3599 15.5602C51.2683 20.1662 51.7681 25.2346 50.7962 30.1245C49.8243 35.0145 47.4243 39.5066 43.8996 43.0326C40.3749 46.5587 35.8838 48.9605 30.9942 49.9344C26.1046 50.9082 21.0361 50.4104 16.4294 48.5039C11.8227 46.5973 7.88472 43.3676 5.1134 39.2232C2.34209 35.0788 0.861841 30.2056 0.859863 25.22C0.859863 18.5339 3.51592 12.1216 8.24371 7.39384C12.9715 2.66604 19.3838 0.0100021 26.0699 0.0100021V0Z" fill="url(#paint0_radial_55_10)"/>
<path fill-rule="evenodd" clip-rule="evenodd" d="M26.0699 6.05999C27.7578 6.05674 29.4389 6.27527 31.0699 6.70999L32.7298 0.48999C37.0655 1.65763 41.0199 3.93996 44.1999 7.10999L39.6499 11.67C42.042 14.0406 43.7667 17.0001 44.6499 20.25L50.8699 18.58C52.0298 22.9205 52.0298 27.4895 50.8699 31.83L44.6499 30.16C43.7692 33.4138 42.0443 36.3772 39.6499 38.75L44.1999 43.3C41.0271 46.4794 37.07 48.7633 32.7298 49.92L30.9999 43.71C27.7482 44.5633 24.3315 44.5633 21.0799 43.71L19.4198 49.92C15.0976 48.7552 11.1586 46.4719 7.99986 43.3L12.5498 38.75C10.1573 36.3757 8.43277 33.4129 7.54984 30.16L1.33988 31.83C0.166653 27.4912 0.166653 22.9187 1.33988 18.58L7.56986 20.22C8.45308 16.9701 10.1777 14.0106 12.5699 11.64L7.99986 7.10999C11.1798 3.93996 15.1342 1.65763 19.4698 0.48999L21.1299 6.70999C22.7611 6.27663 24.442 6.05811 26.1299 6.05999H26.0699Z" fill="url(#paint1_radial_55_10)"/>
<path fill-rule="evenodd" clip-rule="evenodd" d="M26.0699 6.05999C27.7578 6.05674 29.4389 6.27527 31.0699 6.70999L32.7298 0.48999C37.0655 1.65763 41.0199 3.93996 44.1999 7.10999L39.6499 11.67C42.042 14.0406 43.7667 17.0001 44.6499 20.25L50.8699 18.58C52.0298 22.9205 52.0298 27.4895 50.8699 31.83L44.6499 30.16C43.7692 33.4138 42.0443 36.3772 39.6499 38.75L44.1999 43.3C41.0271 46.4794 37.07 48.7633 32.7298 49.92L30.9999 43.71C27.7482 44.5633 24.3315 44.5633 21.0799 43.71L19.4198 49.92C15.0976 48.7552 11.1586 46.4719 7.99986 43.3L12.5498 38.75C10.1573 36.3757 8.43277 33.4129 7.54984 30.16L1.33988 31.83C0.166653 27.4912 0.166653 22.9187 1.33988 18.58L7.56986 20.22C8.45308 16.9701 10.1777 14.0106 12.5699 11.64L7.99986 7.10999C11.1798 3.93996 15.1342 1.65763 19.4698 0.48999L21.1299 6.70999C22.7611 6.27663 24.442 6.05811 26.1299 6.05999H26.0699Z" fill="url(#paint2_radial_55_10)"/>
<path fill-rule="evenodd" clip-rule="evenodd" d="M26.0699 8.04004C29.4654 8.04004 32.7846 9.04679 35.608 10.933C38.4313 12.8192 40.6321 15.5002 41.9319 18.6371C43.2318 21.7739 43.5724 25.2257 42.9107 28.5561C42.249 31.8864 40.6147 34.9459 38.2144 37.3475C35.8141 39.7492 32.7557 41.3853 29.4257 42.0489C26.0957 42.7125 22.6437 42.3739 19.5061 41.0759C16.3685 39.7779 13.6863 37.5787 11.7984 34.7565C9.91054 31.9342 8.90188 28.6155 8.8999 25.22C8.8999 20.6663 10.7088 16.299 13.9288 13.079C17.1488 9.85902 21.5161 8.05004 26.0699 8.05004V8.04004ZM26.0699 9.22004C29.2344 9.22004 32.3278 10.1584 34.959 11.9165C37.5902 13.6746 39.6409 16.1735 40.8519 19.0971C42.0629 22.0207 42.3798 25.2378 41.7625 28.3415C41.1451 31.4452 39.6212 34.2961 37.3836 36.5337C35.146 38.7714 32.295 40.2952 29.1913 40.9126C26.0876 41.53 22.8706 41.2131 19.947 40.0021C17.0233 38.7911 14.5245 36.7403 12.7664 34.1092C11.0083 31.478 10.0699 28.3845 10.0699 25.22C10.0699 20.9766 11.7556 16.9069 14.7562 13.9063C17.7567 10.9058 21.8264 9.22004 26.0699 9.22004Z" fill="url(#paint3_radial_55_10)"/>
<path d="M25.9999 35.7502C23.1633 35.8222 20.3355 35.4062 17.6399 34.5202C15.8699 33.8302 15.5599 32.8902 15.5399 32.3802C15.5299 32.0728 15.6122 31.7694 15.7762 31.5092C15.9402 31.249 16.1783 31.0438 16.4599 30.9202C16.5148 30.8913 16.575 30.8738 16.6368 30.8687C16.6986 30.8637 16.7608 30.8712 16.8197 30.8908C16.8785 30.9104 16.9328 30.9417 16.9793 30.9829C17.0257 31.024 17.0634 31.0741 17.0899 31.1302C17.1429 31.242 17.1505 31.37 17.1114 31.4873C17.0723 31.6047 16.9894 31.7025 16.8799 31.7602C16.7612 31.8044 16.6585 31.8834 16.5853 31.9869C16.5122 32.0903 16.472 32.2135 16.4699 32.3402C16.4699 32.6902 16.8999 33.2302 17.9799 33.6502C20.5571 34.5061 23.2656 34.8988 25.9799 34.8102C28.6984 34.8433 31.4031 34.4173 33.9799 33.5502C34.8499 33.2002 35.1599 32.7502 35.1599 32.4502C35.141 32.321 35.086 32.1998 35.001 32.1007C34.916 32.0015 34.8047 31.9285 34.6799 31.8902C34.6215 31.8703 34.5678 31.8386 34.5221 31.7971C34.4765 31.7556 34.4398 31.7051 34.4145 31.6488C34.3892 31.5926 34.3758 31.5317 34.375 31.47C34.3742 31.4083 34.386 31.3471 34.4099 31.2902C34.4547 31.1756 34.5426 31.0831 34.6547 31.0327C34.7669 30.9822 34.8945 30.9777 35.0099 31.0202C35.315 31.1155 35.5829 31.3034 35.7764 31.5579C35.97 31.8123 36.0796 32.1207 36.0899 32.4402C36.0899 32.8302 35.9299 33.7802 34.3299 34.4402C31.6466 35.342 28.8305 35.7848 25.9999 35.7502Z" fill="url(#paint4_radial_55_10)"/>
<path d="M19.3302 20.6C19.271 20.614 19.2094 20.614 19.1502 20.6C19.0923 20.578 19.0395 20.5446 18.9948 20.5017C18.9502 20.4588 18.9146 20.4073 18.8903 20.3504C18.866 20.2934 18.8535 20.2321 18.8535 20.1702C18.8535 20.1083 18.866 20.047 18.8902 19.99L19.3702 18.8C19.209 18.6637 19.0798 18.4936 18.9916 18.3018C18.9035 18.11 18.8586 17.9011 18.8602 17.69C18.8434 17.4875 18.8689 17.2836 18.9349 17.0914C19.0009 16.8992 19.1061 16.7227 19.2438 16.5732C19.3814 16.4237 19.5486 16.3043 19.7347 16.2227C19.9209 16.141 20.1219 16.0989 20.3252 16.0989C20.5284 16.0989 20.7295 16.141 20.9156 16.2227C21.1017 16.3043 21.2689 16.4237 21.4066 16.5732C21.5443 16.7227 21.6494 16.8992 21.7155 17.0914C21.7815 17.2836 21.8069 17.4875 21.7902 17.69C21.7905 17.9121 21.7392 18.1312 21.6402 18.33L22.4702 19.14C22.559 19.2275 22.6095 19.3468 22.6104 19.4715C22.6114 19.5962 22.5627 19.7162 22.4752 19.805C22.3876 19.8939 22.2684 19.9443 22.1437 19.9452C22.019 19.9462 21.899 19.8975 21.8102 19.81L20.7102 18.72C20.6661 18.6771 20.631 18.6258 20.607 18.5692C20.583 18.5125 20.5707 18.4516 20.5707 18.39C20.5707 18.3285 20.583 18.2676 20.607 18.2109C20.631 18.1542 20.6661 18.1029 20.7102 18.06C20.7588 18.0116 20.7971 17.9539 20.8229 17.8903C20.8486 17.8267 20.8613 17.7586 20.8602 17.69C20.8705 17.615 20.8648 17.5386 20.8431 17.466C20.8215 17.3935 20.7846 17.3263 20.7348 17.2692C20.6851 17.2121 20.6236 17.1664 20.5547 17.135C20.4858 17.1036 20.4109 17.0874 20.3352 17.0874C20.2595 17.0874 20.1846 17.1036 20.1157 17.135C20.0467 17.1664 19.9853 17.2121 19.9355 17.2692C19.8858 17.3263 19.8489 17.3935 19.8273 17.466C19.8056 17.5386 19.7998 17.615 19.8102 17.69C19.8103 17.7952 19.8418 17.898 19.9006 17.9853C19.9593 18.0725 20.0428 18.1403 20.1402 18.18C20.2554 18.2267 20.3474 18.317 20.3961 18.4314C20.4448 18.5457 20.4463 18.6746 20.4002 18.79L19.7702 20.34C19.7308 20.422 19.6679 20.4905 19.5896 20.5367C19.5113 20.583 19.421 20.605 19.3302 20.6Z" fill="url(#paint5_radial_55_10)"/>
<path d="M32.6298 20.49C32.5362 20.4898 32.4446 20.4623 32.3664 20.4108C32.2883 20.3592 32.2269 20.286 32.1898 20.2L31.4998 18.55C31.4531 18.4358 31.4532 18.3079 31.4999 18.1938C31.5467 18.0797 31.6364 17.9885 31.7498 17.94C31.8446 17.8977 31.9252 17.829 31.9819 17.7421C32.0387 17.6552 32.0692 17.5538 32.0698 17.45C32.0698 17.3094 32.014 17.1746 31.9146 17.0752C31.8152 16.9758 31.6803 16.92 31.5398 16.92C31.3992 16.92 31.2644 16.9758 31.165 17.0752C31.0656 17.1746 31.0098 17.3094 31.0098 17.45C31.0117 17.5819 31.0656 17.7077 31.1598 17.8C31.239 17.8954 31.2817 18.016 31.2798 18.14C31.2712 18.2665 31.2138 18.3848 31.1198 18.47L29.7898 19.68C29.6969 19.7635 29.5748 19.8068 29.4501 19.8002C29.3253 19.7936 29.2083 19.7378 29.1248 19.645C29.0413 19.5522 28.998 19.4299 29.0046 19.3052C29.0111 19.1805 29.0669 19.0635 29.1598 18.98L30.1598 18.04C30.0777 17.8539 30.0335 17.6533 30.0298 17.45C30.0298 17.0601 30.1847 16.6862 30.4604 16.4105C30.736 16.1349 31.1099 15.98 31.4998 15.98C31.8897 15.98 32.2635 16.1349 32.5392 16.4105C32.8149 16.6862 32.9698 17.0601 32.9698 17.45C32.9691 17.6573 32.9252 17.8623 32.8409 18.0517C32.7565 18.2411 32.6335 18.4108 32.4798 18.55L33.0198 19.83C33.0445 19.8871 33.0576 19.9485 33.0583 20.0106C33.0591 20.0728 33.0475 20.1345 33.0243 20.1922C33.001 20.2498 32.9665 20.3023 32.9228 20.3466C32.8792 20.3908 32.8272 20.426 32.7698 20.45C32.7261 20.472 32.6786 20.4855 32.6298 20.49Z" fill="url(#paint6_radial_55_10)"/>
<path d="M36.5201 17.78C36.0798 17.78 35.6576 17.9549 35.3463 18.2662C35.035 18.5775 34.8601 18.9997 34.8601 19.44C34.8552 19.4698 34.8552 19.5002 34.8601 19.53C33.3599 20.4389 32.0104 21.5759 30.8601 22.9L27.22 17.71C27.5228 17.4404 27.7366 17.0851 27.8328 16.6913C27.9291 16.2975 27.9035 15.8837 27.7592 15.5048C27.615 15.1258 27.359 14.7997 27.0252 14.5696C26.6914 14.3395 26.2955 14.2163 25.8901 14.2163C25.4847 14.2163 25.0888 14.3395 24.755 14.5696C24.4211 14.7997 24.1652 15.1258 24.0209 15.5048C23.8767 15.8837 23.851 16.2975 23.9473 16.6913C24.0436 17.0851 24.2573 17.4404 24.5601 17.71L20.9201 22.9C19.7638 21.5903 18.415 20.4641 16.9201 19.56V19.44C16.92 19.11 16.8215 18.7875 16.6373 18.5137C16.453 18.2399 16.1914 18.0273 15.8858 17.9029C15.5801 17.7785 15.2443 17.7481 14.9212 17.8154C14.5982 17.8828 14.3025 18.0449 14.072 18.2811C13.8416 18.5173 13.6867 18.8168 13.6273 19.1414C13.5678 19.466 13.6064 19.8009 13.7382 20.1035C13.87 20.406 14.089 20.6624 14.3672 20.8399C14.6454 21.0174 14.9702 21.1079 15.3001 21.1C16.6131 23.9893 17.321 27.1168 17.3801 30.29C17.3814 30.3523 17.3954 30.4137 17.4212 30.4704C17.447 30.5271 17.4841 30.578 17.5301 30.62C17.6201 30.71 19.8001 32.78 25.8801 32.78C31.9601 32.78 34.1501 30.71 34.2301 30.62C34.2776 30.5792 34.3157 30.5286 34.3416 30.4716C34.3675 30.4146 34.3806 30.3526 34.3801 30.29C34.4192 27.1134 35.1208 23.9799 36.4401 21.09C36.6667 21.1135 36.8956 21.0901 37.1128 21.0213C37.33 20.9525 37.5306 20.8397 37.7023 20.69C37.874 20.5403 38.0131 20.3569 38.1109 20.1511C38.2086 19.9453 38.263 19.7217 38.2705 19.494C38.2781 19.2663 38.2387 19.0395 38.1548 18.8277C38.0709 18.6159 37.9444 18.4236 37.783 18.2629C37.6217 18.1021 37.4289 17.9762 37.2167 17.8932C37.0046 17.8101 36.7777 17.7716 36.5501 17.78H36.5201ZM20.5201 28.42C20.2308 28.4462 19.9402 28.3843 19.6867 28.2424C19.4332 28.1005 19.2285 27.8852 19.0996 27.6249C18.9707 27.3645 18.9236 27.0713 18.9644 26.7836C19.0052 26.496 19.132 26.2274 19.3283 26.0132C19.5245 25.7989 19.781 25.6491 20.064 25.5833C20.347 25.5175 20.6432 25.5388 20.9138 25.6445C21.1845 25.7502 21.4168 25.9352 21.5803 26.1754C21.7439 26.4155 21.8309 26.6995 21.8301 26.99C21.8464 27.3518 21.7188 27.7053 21.4752 27.9733C21.2316 28.2412 20.8918 28.4019 20.5301 28.42H20.5201ZM25.8401 30.02C25.214 30.1439 24.5649 30.0709 23.982 29.811C23.3991 29.5511 22.911 29.1172 22.5847 28.5687C22.2584 28.0202 22.1099 27.3842 22.1596 26.7479C22.2094 26.1116 22.455 25.5064 22.8626 25.0153C23.2702 24.5242 23.8198 24.1714 24.436 24.0053C25.0522 23.8392 25.7048 23.8679 26.304 24.0876C26.9032 24.3073 27.4196 24.7072 27.7824 25.2322C28.1452 25.7573 28.3365 26.3818 28.3301 27.02C28.3839 27.7435 28.1559 28.4598 27.6936 29.0189C27.2314 29.5781 26.5707 29.9368 25.85 30.02H25.8401ZM31.16 28.42C30.8705 28.4483 30.5792 28.3882 30.3245 28.2477C30.0698 28.1072 29.8636 27.8928 29.7331 27.6328C29.6026 27.3728 29.5539 27.0793 29.5935 26.7911C29.633 26.5029 29.7589 26.2334 29.9545 26.0182C30.1502 25.8029 30.4066 25.652 30.6897 25.5852C30.9729 25.5185 31.2696 25.5391 31.5408 25.6443C31.8121 25.7495 32.045 25.9344 32.2091 26.1746C32.3732 26.4148 32.4607 26.6991 32.4601 26.99C32.4739 27.3495 32.3467 27.7001 32.1058 27.9672C31.8648 28.2343 31.529 28.3968 31.1701 28.42H31.16Z" fill="url(#paint7_radial_55_10)"/>
<defs>
<radialGradient id="paint0_radial_55_10" cx="0" cy="0" r="1" gradientUnits="userSpaceOnUse" gradientTransform="translate(26.0699 25.21) scale(25.21 25.21)">
<stop offset="0.48" stop-color="#FF8C00"/>
<stop offset="0.8" stop-color="#F5FF70"/>
<stop offset="0.86" stop-color="#F9E63E"/>
<stop offset="0.92" stop-color="#FDD011"/>
<stop offset="0.95" stop-color="#FFC700"/>
<stop offset="0.96" stop-color="#FFC903"/>
<stop offset="0.97" stop-color="#FECD0D"/>
<stop offset="0.98" stop-color="#FCD61D"/>
<stop offset="0.99" stop-color="#F8F052"/>
<stop offset="1" stop-color="#F5FF70"/>
</radialGradient>
<radialGradient id="paint1_radial_55_10" cx="0" cy="0" r="1" gradientUnits="userSpaceOnUse" gradientTransform="translate(10.4399 4.23999) scale(52.09 52.09)">
<stop stop-color="#113DAD"/>
<stop offset="1" stop-color="#0B1B54"/>
</radialGradient>
<radialGradient id="paint2_radial_55_10" cx="0" cy="0" r="1" gradientUnits="userSpaceOnUse" gradientTransform="translate(10.4399 4.23999) scale(52.09 52.09)">
<stop stop-color="#113DAD"/>
<stop offset="1" stop-color="#0B1B54"/>
</radialGradient>
<radialGradient id="paint3_radial_55_10" cx="0" cy="0" r="1" gradientUnits="userSpaceOnUse" gradientTransform="translate(36.1399 38.59) scale(34.09 34.09)">
<stop stop-color="#F5FF7A"/>
<stop offset="1" stop-color="#E2E600"/>
</radialGradient>
<radialGradient id="paint4_radial_55_10" cx="0" cy="0" r="1" gradientUnits="userSpaceOnUse" gradientTransform="translate(25.8599 33.3102) scale(7.47002 7.47)">
<stop stop-color="#F5FF70"/>
<stop offset="0.16" stop-color="#F6FD6A"/>
<stop offset="0.37" stop-color="#F7F75A"/>
<stop offset="0.6" stop-color="#F9ED3F"/>
<stop offset="0.85" stop-color="#FDDE19"/>
<stop offset="1" stop-color="#FFD500"/>
</radialGradient>
<radialGradient id="paint5_radial_55_10" cx="0" cy="0" r="1" gradientUnits="userSpaceOnUse" gradientTransform="translate(20.7302 18.39) scale(2.05 2.05)">
<stop stop-color="#F5FF70"/>
<stop offset="0.16" stop-color="#F6FD6A"/>
<stop offset="0.37" stop-color="#F7F75A"/>
<stop offset="0.6" stop-color="#F9ED3F"/>
<stop offset="0.85" stop-color="#FDDE19"/>
<stop offset="1" stop-color="#FFD500"/>
</radialGradient>
<radialGradient id="paint6_radial_55_10" cx="0" cy="0" r="1" gradientUnits="userSpaceOnUse" gradientTransform="translate(31.0498 18.24) scale(2.15001 2.15)">
<stop stop-color="#F5FF70"/>
<stop offset="0.16" stop-color="#F6FD6A"/>
<stop offset="0.37" stop-color="#F7F75A"/>
<stop offset="0.6" stop-color="#F9ED3F"/>
<stop offset="0.85" stop-color="#FDDE19"/>
<stop offset="1" stop-color="#FFD500"/>
</radialGradient>
<radialGradient id="paint7_radial_55_10" cx="0" cy="0" r="1" gradientUnits="userSpaceOnUse" gradientTransform="translate(25.8801 23.53) scale(10.89 10.89)">
<stop stop-color="#F5FF70"/>
<stop offset="0.16" stop-color="#F6FD6A"/>
<stop offset="0.37" stop-color="#F7F75A"/>
<stop offset="0.6" stop-color="#F9ED3F"/>
<stop offset="0.85" stop-color="#FDDE19"/>
<stop offset="1" stop-color="#FFD500"/>
</radialGradient>
</defs>
</svg>
