<svg width="333" height="132" viewBox="0 0 333 132" fill="none" xmlns="http://www.w3.org/2000/svg">
<g opacity="0.01">
<path d="M266.55 126.6H66.2301C50.2057 126.6 34.8376 120.234 23.5067 108.903C12.1757 97.5724 5.81006 82.2044 5.81006 66.18C5.81006 50.1556 12.1757 34.7876 23.5067 23.4566C34.8376 12.1257 50.2057 5.76001 66.2301 5.76001H266.55C282.574 5.76001 297.942 12.1257 309.273 23.4566C320.604 34.7876 326.97 50.1556 326.97 66.18C326.97 82.2044 320.604 97.5724 309.273 108.903C297.942 120.234 282.574 126.6 266.55 126.6ZM66.2301 54.81C63.2146 54.81 60.3225 56.0079 58.1902 58.1402C56.058 60.2725 54.86 63.1645 54.86 66.18C54.86 69.1955 56.058 72.0875 58.1902 74.2198C60.3225 76.3521 63.2146 77.55 66.2301 77.55H266.55C269.566 77.55 272.458 76.3521 274.59 74.2198C276.722 72.0875 277.92 69.1955 277.92 66.18C277.92 63.1645 276.722 60.2725 274.59 58.1402C272.458 56.0079 269.566 54.81 266.55 54.81H66.2301Z" fill="#0072FF"/>
</g>
<g opacity="0.01">
<path d="M266.55 124.85H66.2301C50.6699 124.85 35.7469 118.669 24.7441 107.666C13.7414 96.6632 7.56006 81.7402 7.56006 66.18C7.56006 50.6197 13.7414 35.6968 24.7441 24.694C35.7469 13.6913 50.6699 7.51001 66.2301 7.51001H266.55C282.11 7.51001 297.033 13.6913 308.036 24.694C319.039 35.6968 325.22 50.6197 325.22 66.18C325.22 81.7402 319.039 96.6632 308.036 107.666C297.033 118.669 282.11 124.85 266.55 124.85ZM66.2301 53.05C62.8119 53.1443 59.5652 54.5685 57.1808 57.0197C54.7965 59.4708 53.4624 62.7554 53.4624 66.175C53.4624 69.5945 54.7965 72.8792 57.1808 75.3303C59.5652 77.7814 62.8119 79.2056 66.2301 79.3H266.55C268.304 79.3484 270.05 79.0447 271.685 78.4069C273.32 77.7691 274.81 76.8101 276.068 75.5865C277.325 74.363 278.325 72.8997 279.008 71.2832C279.691 69.6667 280.042 67.9297 280.042 66.175C280.042 64.4202 279.691 62.6833 279.008 61.0668C278.325 59.4503 277.325 57.987 276.068 56.7635C274.81 55.5399 273.32 54.5809 271.685 53.9431C270.05 53.3052 268.304 53.0016 266.55 53.05H66.2301Z" fill="#0072FF"/>
</g>
<g opacity="0.01">
<path d="M266.55 123.09H66.23C51.2659 122.892 36.9819 116.808 26.4701 106.156C15.9583 95.5037 10.0645 81.1403 10.0645 66.1749C10.0645 51.2094 15.9583 36.846 26.4701 26.194C36.9819 15.5419 51.2659 9.45824 66.23 9.25988H266.55C274.088 9.15997 281.57 10.5583 288.563 13.3737C295.556 16.1891 301.92 20.3656 307.285 25.6605C312.651 30.9555 316.911 37.2635 319.819 44.2184C322.727 51.1733 324.224 58.6365 324.224 66.1749C324.224 73.7132 322.727 81.1764 319.819 88.1313C316.911 95.0862 312.651 101.394 307.285 106.689C301.92 111.984 295.556 116.161 288.563 118.976C281.57 121.791 274.088 123.19 266.55 123.09ZM66.23 51.2999C62.3517 51.4004 58.666 53.0118 55.9585 55.7904C53.251 58.569 51.7357 62.2952 51.7357 66.1749C51.7357 70.0545 53.251 73.7807 55.9585 76.5594C58.666 79.338 62.3517 80.9493 66.23 81.0499H266.55C268.536 81.1014 270.512 80.7547 272.362 80.0303C274.211 79.3059 275.897 78.2185 277.32 76.8321C278.743 75.4458 279.874 73.7885 280.646 71.9582C281.418 70.1278 281.816 68.1614 281.816 66.1749C281.816 64.1883 281.418 62.2219 280.646 60.3915C279.874 58.5612 278.743 56.904 277.32 55.5176C275.897 54.1313 274.211 53.0438 272.362 52.3195C270.512 51.5951 268.536 51.2484 266.55 51.2999H66.23Z" fill="#0072FF"/>
</g>
<g opacity="0.02">
<path d="M266.55 121.34H66.2301C58.9864 121.34 51.8136 119.913 45.1213 117.141C38.429 114.369 32.3482 110.306 27.2261 105.184C22.104 100.062 18.0409 93.9811 15.2689 87.2888C12.4968 80.5965 11.0701 73.4237 11.0701 66.18C11.0701 58.9363 12.4968 51.7635 15.2689 45.0712C18.0409 38.3788 22.104 32.298 27.2261 27.176C32.3482 22.0539 38.429 17.9909 45.1213 15.2188C51.8136 12.4468 58.9864 11.02 66.2301 11.02H266.55C281.179 11.02 295.21 16.8315 305.554 27.176C315.899 37.5205 321.71 51.5507 321.71 66.18C321.71 80.8093 315.899 94.8395 305.554 105.184C295.21 115.529 281.179 121.34 266.55 121.34ZM66.2301 49.55C61.8196 49.55 57.5896 51.3021 54.4709 54.4208C51.3522 57.5396 49.6001 61.7694 49.6001 66.18C49.6001 70.5905 51.3522 74.8205 54.4709 77.9392C57.5896 81.0579 61.8196 82.81 66.2301 82.81H266.55C270.961 82.81 275.191 81.0579 278.309 77.9392C281.428 74.8205 283.18 70.5905 283.18 66.18C283.18 61.7694 281.428 57.5396 278.309 54.4208C275.191 51.3021 270.961 49.55 266.55 49.55H66.2301Z" fill="#0072FF"/>
</g>
<g opacity="0.02">
<path d="M266.55 119.59H66.2301C59.2162 119.59 52.271 118.209 45.791 115.524C39.311 112.84 33.4231 108.906 28.4635 103.947C23.5039 98.987 19.5698 93.0991 16.8857 86.6191C14.2016 80.1391 12.8201 73.1939 12.8201 66.18C12.8201 59.1661 14.2016 52.2209 16.8857 45.7409C19.5698 39.2609 23.5039 33.373 28.4635 28.4135C33.4231 23.4539 39.311 19.5197 45.791 16.8356C52.271 14.1515 59.2162 12.77 66.2301 12.77H266.55C280.715 12.77 294.3 18.3971 304.317 28.4135C314.333 38.4298 319.96 52.0148 319.96 66.18C319.96 80.3452 314.333 93.9303 304.317 103.947C294.3 113.963 280.715 119.59 266.55 119.59ZM66.2301 47.8C61.3554 47.8 56.6804 49.7364 53.2335 53.1833C49.7865 56.6303 47.8501 61.3053 47.8501 66.18C47.8501 71.0547 49.7865 75.7297 53.2335 79.1766C56.6804 82.6236 61.3554 84.56 66.2301 84.56H266.55C271.425 84.56 276.1 82.6236 279.547 79.1766C282.994 75.7297 284.93 71.0547 284.93 66.18C284.93 61.3053 282.994 56.6303 279.547 53.1833C276.1 49.7364 271.425 47.8 266.55 47.8H66.2301Z" fill="#0072FF"/>
</g>
<g opacity="0.03">
<path d="M266.55 117.84H66.2301C52.529 117.84 39.3891 112.397 29.7009 102.709C20.0128 93.021 14.5701 79.8811 14.5701 66.18C14.5701 52.4789 20.0128 39.339 29.7009 29.6509C39.3891 19.9627 52.529 14.52 66.2301 14.52H266.55C280.251 14.52 293.391 19.9627 303.079 29.6509C312.767 39.339 318.21 52.4789 318.21 66.18C318.21 79.8811 312.767 93.021 303.079 102.709C293.391 112.397 280.251 117.84 266.55 117.84ZM66.2301 46.05C60.8913 46.05 55.7711 48.1708 51.996 51.9459C48.2209 55.721 46.1001 60.8412 46.1001 66.18C46.1001 71.5188 48.2209 76.639 51.996 80.4141C55.7711 84.1892 60.8913 86.31 66.2301 86.31H266.55C271.889 86.31 277.009 84.1892 280.784 80.4141C284.559 76.639 286.68 71.5188 286.68 66.18C286.68 60.8412 284.559 55.721 280.784 51.9459C277.009 48.1708 271.889 46.05 266.55 46.05H66.2301Z" fill="#0072FF"/>
</g>
<g opacity="0.03">
<path d="M266.55 116.09H66.2301C59.6758 116.09 53.1857 114.799 47.1304 112.291C41.075 109.783 35.5729 106.106 30.9384 101.472C26.3038 96.8371 22.6275 91.3351 20.1193 85.2797C17.6111 79.2244 16.3201 72.7343 16.3201 66.18C16.3201 59.6257 17.6111 53.1356 20.1193 47.0803C22.6275 41.0249 26.3038 35.5229 30.9384 30.8883C35.5729 26.2537 41.075 22.5774 47.1304 20.0692C53.1857 17.5609 59.6758 16.27 66.2301 16.27H266.55C279.787 16.27 292.482 21.5284 301.842 30.8883C311.202 40.2482 316.46 52.943 316.46 66.18C316.46 79.4169 311.202 92.1117 301.842 101.472C292.482 110.832 279.787 116.09 266.55 116.09ZM66.2301 44.3C60.4272 44.3 54.8619 46.6052 50.7586 50.7085C46.6553 54.8118 44.3501 60.3771 44.3501 66.18C44.3501 71.9829 46.6553 77.5482 50.7586 81.6515C54.8619 85.7548 60.4272 88.06 66.2301 88.06H266.55C272.353 88.06 277.918 85.7548 282.022 81.6515C286.125 77.5482 288.43 71.9829 288.43 66.18C288.43 60.3771 286.125 54.8118 282.022 50.7085C277.918 46.6052 272.353 44.3 266.55 44.3H66.2301Z" fill="#0072FF"/>
</g>
<g opacity="0.04">
<path d="M266.55 114.34H66.2301C59.9056 114.34 53.6431 113.094 47.8 110.674C41.957 108.254 36.6479 104.706 32.1758 100.234C27.7037 95.7622 24.1563 90.4531 21.736 84.61C19.3158 78.767 18.0701 72.5045 18.0701 66.18C18.0701 59.8555 19.3158 53.593 21.736 47.7499C24.1563 41.9069 27.7037 36.5978 32.1758 32.1257C36.6479 27.6537 41.957 24.1062 47.8 21.686C53.6431 19.2657 59.9056 18.02 66.2301 18.02H266.55C279.323 18.02 291.573 23.094 300.604 32.1257C309.636 41.1575 314.71 53.4072 314.71 66.18C314.71 78.9528 309.636 91.2025 300.604 100.234C291.573 109.266 279.323 114.34 266.55 114.34ZM66.2301 42.54C60.0459 42.6672 54.1578 45.2132 49.8292 49.6318C45.5006 54.0503 43.0762 59.9895 43.0762 66.175C43.0762 72.3605 45.5006 78.2996 49.8292 82.7182C54.1578 87.1368 60.0459 89.6828 66.2301 89.81H266.55C269.695 89.8747 272.821 89.3112 275.745 88.1525C278.669 86.9938 281.333 85.2631 283.579 83.062C285.826 80.8609 287.611 78.2335 288.83 75.3338C290.049 72.4341 290.676 69.3204 290.676 66.175C290.676 63.0296 290.049 59.9159 288.83 57.0162C287.611 54.1165 285.826 51.4891 283.579 49.288C281.333 47.0868 278.669 45.3563 275.745 44.1976C272.821 43.0389 269.695 42.4753 266.55 42.54H66.2301Z" fill="#0072FF"/>
</g>
<g opacity="0.05">
<path d="M266.55 112.58H66.23C54.0406 112.401 42.4111 107.433 33.8544 98.7502C25.2978 90.067 20.5012 78.3658 20.5012 66.1751C20.5012 53.9844 25.2978 42.2832 33.8544 33.6C42.4111 24.9169 54.0406 19.9491 66.23 19.7701H266.55C272.701 19.6798 278.809 20.8134 284.518 23.1049C290.228 25.3965 295.424 28.8003 299.806 33.1183C304.188 37.4364 307.668 42.5826 310.043 48.2576C312.418 53.9326 313.641 60.0231 313.641 66.1751C313.641 72.3271 312.418 78.4177 310.043 84.0927C307.668 89.7677 304.188 94.9139 299.806 99.2319C295.424 103.55 290.228 106.954 284.518 109.245C278.809 111.537 272.701 112.67 266.55 112.58ZM66.23 40.7901C59.5848 40.922 53.2561 43.6544 48.6031 48.4007C43.9502 53.1469 41.3439 59.5285 41.3439 66.1751C41.3439 72.8217 43.9502 79.2033 48.6031 83.9495C53.2561 88.6958 59.5848 91.4282 66.23 91.5601H266.55C269.926 91.6271 273.281 91.02 276.42 89.7744C279.559 88.5288 282.417 86.6697 284.828 84.3058C287.24 81.942 289.155 79.1209 290.463 76.0077C291.77 72.8945 292.444 69.5518 292.444 66.1751C292.444 62.7984 291.77 59.4557 290.463 56.3425C289.155 53.2293 287.24 50.4083 284.828 48.0444C282.417 45.6806 279.559 43.8214 276.42 42.5758C273.281 41.3302 269.926 40.7231 266.55 40.7901H66.23Z" fill="#0072FF"/>
</g>
<g opacity="0.06">
<path d="M266.55 110.83H66.2301C54.3882 110.83 43.0313 106.126 34.6578 97.7523C26.2843 89.3788 21.5801 78.0219 21.5801 66.18C21.5801 54.3381 26.2843 42.9812 34.6578 34.6077C43.0313 26.2342 54.3882 21.53 66.2301 21.53H266.55C278.392 21.53 289.749 26.2342 298.122 34.6077C306.496 42.9812 311.2 54.3381 311.2 66.18C311.2 78.0219 306.496 89.3788 298.122 97.7523C289.749 106.126 278.392 110.83 266.55 110.83ZM66.2301 39C59.0321 39 52.1289 41.8594 47.0392 46.9491C41.9494 52.0388 39.0901 58.942 39.0901 66.14C39.0901 73.338 41.9494 80.2411 47.0392 85.3309C52.1289 90.4206 59.0321 93.28 66.2301 93.28H266.55C273.748 93.28 280.651 90.4206 285.741 85.3309C290.831 80.2411 293.69 73.338 293.69 66.14C293.69 58.942 290.831 52.0388 285.741 46.9491C280.651 41.8594 273.748 39 266.55 39H66.2301Z" fill="#0072FF"/>
</g>
<g opacity="0.08">
<path d="M266.55 109.08H66.2301C60.5964 109.08 55.0178 107.97 49.8129 105.814C44.6081 103.659 39.8788 100.499 35.8952 96.5149C31.9116 92.5313 28.7516 87.802 26.5956 82.5971C24.4397 77.3922 23.3301 71.8137 23.3301 66.18C23.3301 60.5463 24.4397 54.9677 26.5956 49.7629C28.7516 44.558 31.9116 39.8287 35.8952 35.8451C39.8788 31.8615 44.6081 28.7015 49.8129 26.5456C55.0178 24.3897 60.5964 23.28 66.2301 23.28H266.55C277.928 23.28 288.84 27.7998 296.885 35.8451C304.93 43.8904 309.45 54.8022 309.45 66.18C309.45 77.5578 304.93 88.4696 296.885 96.5149C288.84 104.56 277.928 109.08 266.55 109.08ZM66.2301 37.29C58.568 37.29 51.2197 40.3338 45.8018 45.7517C40.3838 51.1696 37.3401 58.5179 37.3401 66.18C37.3401 73.8421 40.3838 81.1904 45.8018 86.6083C51.2197 92.0263 58.568 95.07 66.2301 95.07H266.55C274.212 95.07 281.56 92.0263 286.978 86.6083C292.396 81.1904 295.44 73.8421 295.44 66.18C295.44 58.5179 292.396 51.1696 286.978 45.7517C281.56 40.3338 274.212 37.29 266.55 37.29H66.2301Z" fill="#0072FF"/>
</g>
<g opacity="0.15">
<path d="M266.55 107.33H66.2301C60.8262 107.33 55.4752 106.266 50.4827 104.198C45.4901 102.13 40.9538 99.0986 37.1326 95.2775C33.3115 91.4563 30.2804 86.92 28.2124 81.9274C26.1444 76.9349 25.0801 71.5839 25.0801 66.18C25.0801 60.7761 26.1444 55.4251 28.2124 50.4326C30.2804 45.44 33.3115 40.9037 37.1326 37.0826C40.9538 33.2614 45.4901 30.2303 50.4827 28.1624C55.4752 26.0944 60.8262 25.03 66.2301 25.03H266.55C277.464 25.03 287.93 29.3655 295.648 37.0826C303.365 44.7997 307.7 55.2663 307.7 66.18C307.7 77.0937 303.365 87.5603 295.648 95.2775C287.93 102.995 277.464 107.33 266.55 107.33ZM66.2301 35.54C58.1039 35.54 50.3104 38.7681 44.5643 44.5142C38.8182 50.2603 35.5901 58.0538 35.5901 66.18C35.5901 74.3062 38.8182 82.0996 44.5643 87.8458C50.3104 93.5919 58.1039 96.82 66.2301 96.82H266.55C274.676 96.82 282.47 93.5919 288.216 87.8458C293.962 82.0996 297.19 74.3062 297.19 66.18C297.19 58.0538 293.962 50.2603 288.216 44.5142C282.47 38.7681 274.676 35.54 266.55 35.54H66.2301Z" fill="#0072FF"/>
</g>
<path d="M266.55 105.58H66.2301C55.7806 105.58 45.759 101.429 38.3701 94.04C30.9811 86.651 26.8301 76.6295 26.8301 66.18C26.8301 55.7305 30.9811 45.7089 38.3701 38.32C45.759 30.9311 55.7806 26.78 66.2301 26.78H266.55C277 26.78 287.021 30.9311 294.41 38.32C301.799 45.7089 305.95 55.7305 305.95 66.18C305.95 76.6295 301.799 86.651 294.41 94.04C287.021 101.429 277 105.58 266.55 105.58ZM66.2301 33.79C57.6397 33.79 49.4012 37.2025 43.3269 43.2768C37.2526 49.3511 33.8401 57.5896 33.8401 66.18C33.8401 74.7704 37.2526 83.0089 43.3269 89.0832C49.4012 95.1575 57.6397 98.57 66.2301 98.57H266.55C275.14 98.57 283.379 95.1575 289.453 89.0832C295.528 83.0089 298.94 74.7704 298.94 66.18C298.94 57.5896 295.528 49.3511 289.453 43.2768C283.379 37.2025 275.14 33.79 266.55 33.79H66.2301Z" fill="#0072FF"/>
<path d="M266.55 103.24H66.23C56.4011 103.24 46.9747 99.3356 40.0246 92.3855C33.0745 85.4354 29.1699 76.009 29.1699 66.1801C29.1699 56.3512 33.0745 46.9248 40.0246 39.9747C46.9747 33.0246 56.4011 29.1201 66.23 29.1201H266.55C276.379 29.1201 285.805 33.0246 292.755 39.9747C299.705 46.9248 303.61 56.3512 303.61 66.1801C303.61 76.009 299.705 85.4354 292.755 92.3855C285.805 99.3356 276.379 103.24 266.55 103.24ZM66.23 31.4501C57.019 31.4501 48.1853 35.1092 41.6721 41.6223C35.159 48.1355 31.4999 56.9691 31.4999 66.1801C31.4999 75.3911 35.159 84.2248 41.6721 90.7379C48.1853 97.2511 57.019 100.91 66.23 100.91H266.55C275.761 100.91 284.595 97.2511 291.108 90.7379C297.621 84.2248 301.28 75.3911 301.28 66.1801C301.28 56.9691 297.621 48.1355 291.108 41.6223C284.595 35.1092 275.761 31.4501 266.55 31.4501H66.23Z" fill="white"/>
</svg>
