<svg width="141" height="141" viewBox="0 0 141 141" fill="none" xmlns="http://www.w3.org/2000/svg">
<path d="M70.2601 140.52C56.364 140.52 42.7799 136.399 31.2257 128.679C19.6715 120.959 10.6661 109.986 5.34828 97.1474C0.0304666 84.309 -1.36095 70.1821 1.35005 56.553C4.06105 42.9239 10.7527 30.4047 20.5787 20.5787C30.4047 10.7527 42.9238 4.06105 56.5529 1.35005C70.182 -1.36095 84.3091 0.0304666 97.1474 5.34828C109.986 10.6661 120.959 19.6715 128.679 31.2257C136.399 42.7799 140.52 56.3639 140.52 70.26C140.499 88.8876 133.09 106.746 119.918 119.918C106.746 133.09 88.8877 140.499 70.2601 140.52ZM70.2601 11.7901C58.6958 11.7901 47.3912 15.2192 37.7758 21.644C28.1605 28.0688 20.6663 37.2005 16.2408 47.8845C11.8153 58.5685 10.6574 70.3249 12.9135 81.6669C15.1696 93.009 20.7383 103.427 28.9155 111.605C37.0927 119.782 47.511 125.35 58.8531 127.607C70.1952 129.863 81.9516 128.705 92.6356 124.279C103.32 119.854 112.451 112.36 118.876 102.744C125.301 93.1289 128.73 81.8243 128.73 70.26C128.712 54.7585 122.545 39.8972 111.584 28.9359C100.623 17.9747 85.7616 11.8086 70.2601 11.7901Z" fill="#005CCE"/>
<path d="M70.26 138.56C56.7516 138.56 43.5464 134.554 32.3145 127.049C21.0827 119.544 12.3285 108.877 7.15902 96.3972C1.98955 83.917 0.636988 70.1842 3.27236 56.9353C5.90773 43.6864 12.4126 31.5165 21.9646 21.9646C31.5165 12.4126 43.6864 5.90773 56.9353 3.27236C70.1842 0.636988 83.917 1.98955 96.3972 7.15902C108.877 12.3285 119.544 21.0827 127.049 32.3145C134.554 43.5464 138.56 56.7515 138.56 70.26C138.541 88.3686 131.34 105.73 118.535 118.535C105.73 131.34 88.3686 138.541 70.26 138.56ZM70.26 9.82998C58.3057 9.82998 46.6198 13.3749 36.6803 20.0166C26.7407 26.6583 18.994 36.0984 14.4198 47.1429C9.84549 58.1875 8.64917 70.3404 10.9821 82.0649C13.315 93.7894 19.0723 104.559 27.526 113.011C35.9796 121.463 46.75 127.219 58.4749 129.55C70.1997 131.881 82.3525 130.683 93.3963 126.106C104.44 121.53 113.879 113.782 120.519 103.841C127.159 93.9008 130.702 82.2143 130.7 70.26C130.681 54.2369 124.307 38.8756 112.976 27.5465C101.645 16.2174 86.2831 9.84586 70.26 9.82998Z" fill="#005CCE"/>
<path d="M70.2602 135.94C57.2699 135.94 44.5713 132.088 33.7702 124.871C22.9692 117.654 14.5508 107.396 9.57968 95.3946C4.60852 83.3932 3.30786 70.1871 5.84214 57.4464C8.37641 44.7058 14.6318 33.0027 23.8174 23.8172C33.0029 14.6317 44.7059 8.37629 57.4466 5.84201C70.1872 3.30774 83.3934 4.6084 95.3948 9.57956C107.396 14.5507 117.654 22.9691 124.871 33.7701C132.088 44.5711 135.94 57.2697 135.94 70.26C135.922 87.6737 128.996 104.369 116.682 116.682C104.369 128.996 87.6739 135.921 70.2602 135.94ZM70.2602 7.20999C57.7855 7.21 45.5911 10.9099 35.2196 17.8417C24.8482 24.7735 16.7656 34.6256 11.9945 46.1518C7.22345 57.678 5.97818 70.3604 8.41623 82.5945C10.8543 94.8285 16.8661 106.065 25.6912 114.881C34.5163 123.698 45.7581 129.699 57.9945 132.126C70.2309 134.552 82.9121 133.295 94.4337 128.513C105.955 123.731 115.8 115.639 122.722 105.261C129.644 94.8825 133.332 82.6846 133.32 70.21C133.288 53.5007 126.632 37.4858 114.812 25.6761C102.991 13.8665 86.9695 7.22585 70.2602 7.20999Z" fill="#F5F8FD"/>
</svg>
