<svg width="993" height="656" viewBox="0 0 993 656" fill="none" xmlns="http://www.w3.org/2000/svg">
<g opacity="0.01">
<path d="M886.153 578.323H840.286C832.07 578.102 824.265 574.682 818.532 568.793C812.8 562.903 809.592 555.009 809.592 546.79C809.592 538.571 812.8 530.677 818.532 524.787C824.265 518.898 832.07 515.478 840.286 515.257H886.153C895.942 515.251 905.329 511.358 912.25 504.435C919.171 497.512 923.061 488.124 923.064 478.334V107.045C923.045 97.2661 919.149 87.8941 912.229 80.985C905.309 74.0758 895.931 70.1939 886.153 70.1909H106.697C96.9162 70.2 87.5389 74.0893 80.623 81.0052C73.7071 87.9211 69.8178 97.2985 69.8087 107.079V478.369C69.8178 488.15 73.7067 497.529 80.6223 504.446C87.5379 511.364 96.9152 515.256 106.697 515.268H156.003C164.219 515.49 172.024 518.909 177.757 524.799C183.49 530.688 186.698 538.583 186.698 546.801C186.698 555.02 183.49 562.915 177.757 568.804C172.024 574.694 164.219 578.113 156.003 578.335H106.697C80.1884 578.304 54.7746 567.76 36.0314 549.014C17.2883 530.269 6.74655 504.854 6.71924 478.346V107.045C6.76173 80.5473 17.3105 55.1482 36.0524 36.417C54.7942 17.6859 80.1994 7.15168 106.697 7.12439H886.153C912.65 7.15168 938.055 17.6859 956.797 36.417C975.539 55.1482 986.088 80.5473 986.13 107.045V478.334C986.103 504.843 975.561 530.258 956.818 549.003C938.075 567.748 912.661 578.293 886.153 578.323Z" fill="#005CCE"/>
</g>
<g opacity="0.01">
<path d="M886.153 576.064H840.286C832.618 575.912 825.315 572.76 819.946 567.283C814.576 561.806 811.569 554.442 811.569 546.773C811.569 539.103 814.576 531.739 819.946 526.262C825.315 520.786 832.618 517.633 840.286 517.481H886.153C896.531 517.469 906.48 513.34 913.817 506.001C921.154 498.662 925.279 488.712 925.288 478.334V107.045C925.279 96.6669 921.154 86.7167 913.817 79.3775C906.48 72.0383 896.531 67.9096 886.153 67.8975H106.697C96.3184 67.9096 86.3683 72.0379 79.0294 79.3768C71.6905 86.7157 67.5622 96.6658 67.55 107.045V478.334C67.5622 488.713 71.6905 498.663 79.0294 506.002C86.3683 513.341 96.3184 517.469 106.697 517.481H156.004C159.899 517.404 163.771 518.105 167.392 519.542C171.013 520.98 174.311 523.125 177.094 525.852C179.876 528.58 182.086 531.835 183.595 535.427C185.103 539.02 185.881 542.876 185.881 546.773C185.881 550.669 185.103 554.526 183.595 558.118C182.086 561.71 179.876 564.965 177.094 567.693C174.311 570.42 171.013 572.566 167.392 574.003C163.771 575.441 159.899 576.141 156.004 576.064H106.697C80.7868 576.034 55.9464 565.728 37.625 547.406C19.3036 529.085 8.99739 504.244 8.96704 478.334V107.045C8.99739 81.1342 19.3036 56.2938 37.625 37.9725C55.9464 19.6511 80.7868 9.3448 106.697 9.31445H886.153C912.056 9.35391 936.887 19.6646 955.199 37.9853C973.511 56.306 983.81 81.1412 983.837 107.045V478.334C983.81 504.237 973.511 529.073 955.199 547.393C936.887 565.714 912.056 576.025 886.153 576.064Z" fill="#005CCE"/>
</g>
<g opacity="0.02">
<path d="M886.153 573.817H840.287C836.736 573.817 833.22 573.117 829.939 571.759C826.659 570.4 823.678 568.408 821.168 565.897C818.657 563.387 816.665 560.406 815.306 557.125C813.948 553.845 813.248 550.329 813.248 546.778C813.248 543.228 813.948 539.712 815.306 536.431C816.665 533.151 818.657 530.17 821.168 527.659C823.678 525.149 826.659 523.157 829.939 521.798C833.22 520.439 836.736 519.74 840.287 519.74H886.153C897.129 519.725 907.651 515.357 915.411 507.595C923.171 499.833 927.535 489.31 927.548 478.334V107.045C927.535 96.0698 923.17 85.5479 915.41 77.7876C907.65 70.0272 897.128 65.6621 886.153 65.65H106.697C95.7225 65.6621 85.2007 70.0272 77.4403 77.7876C69.68 85.5479 65.3149 96.0698 65.3027 107.045V478.334C65.3119 489.311 69.6756 499.836 77.4363 507.598C85.197 515.361 95.7205 519.728 106.697 519.74H156.004C163.175 519.74 170.052 522.589 175.123 527.659C180.193 532.73 183.042 539.607 183.042 546.778C183.042 553.949 180.193 560.827 175.123 565.897C170.052 570.968 163.175 573.817 156.004 573.817H106.697C81.3841 573.786 57.1165 563.716 39.2184 545.816C21.3203 527.916 11.2534 503.647 11.2261 478.334V107.045C11.2534 81.7324 21.3207 57.4648 39.2191 39.5664C57.1175 21.668 81.3851 11.6007 106.697 11.5734H886.153C911.465 11.6007 935.733 21.668 953.631 39.5664C971.53 57.4648 981.597 81.7324 981.624 107.045V478.334C981.597 503.647 971.53 527.916 953.632 545.816C935.734 563.716 911.466 573.786 886.153 573.817Z" fill="#005CCE"/>
</g>
<g opacity="0.02">
<path d="M886.153 571.558H840.286C833.805 571.419 827.636 568.746 823.102 564.113C818.568 559.48 816.029 553.255 816.029 546.773C816.029 540.29 818.568 534.066 823.102 529.433C827.636 524.8 833.805 522.127 840.286 521.988H886.153C897.726 521.976 908.821 517.372 917.003 509.188C925.185 501.003 929.786 489.907 929.795 478.334V107.045C929.783 95.4729 925.181 84.3782 917 76.1945C908.818 68.0109 897.725 63.4065 886.153 63.3913H106.697C95.1281 63.4125 84.0394 68.0193 75.861 76.2019C67.6826 84.3846 63.0817 95.4758 63.0666 107.045V478.334C63.0817 489.902 67.683 500.992 75.8617 509.173C84.0404 517.354 95.1292 521.958 106.697 521.976H156.004C159.303 521.905 162.584 522.494 165.653 523.708C168.722 524.921 171.518 526.736 173.877 529.044C176.236 531.353 178.11 534.109 179.389 537.151C180.669 540.194 181.328 543.461 181.328 546.761C181.328 550.062 180.669 553.329 179.389 556.371C178.11 559.414 176.236 562.17 173.877 564.479C171.518 566.787 168.722 568.602 165.653 569.815C162.584 571.029 159.303 571.617 156.004 571.546H106.697C81.981 571.519 58.285 561.689 40.8081 544.212C23.3312 526.735 13.5007 503.039 13.4734 478.323V107.045C13.5007 82.3287 23.3312 58.6327 40.8081 41.1558C58.285 23.6789 81.981 13.8484 106.697 13.821H886.153C910.867 13.8514 934.56 23.6833 952.034 41.1599C969.509 58.6365 979.338 82.3307 979.365 107.045V478.334C979.338 503.048 969.509 526.743 952.034 544.219C934.56 561.696 910.867 571.528 886.153 571.558Z" fill="#005CCE"/>
</g>
<g opacity="0.03">
<path d="M886.153 569.31H840.286C834.31 569.31 828.579 566.936 824.354 562.711C820.128 558.485 817.754 552.754 817.754 546.778C817.754 540.803 820.128 535.072 824.354 530.846C828.579 526.62 834.31 524.246 840.286 524.246H886.153C898.31 524.222 909.962 519.382 918.558 510.786C927.155 502.189 931.995 490.537 932.019 478.38V107.045C931.998 94.8866 927.159 83.2326 918.562 74.6355C909.965 66.0385 898.311 61.1993 886.153 61.1781H106.697C94.5389 61.1993 82.885 66.0385 74.2879 74.6355C65.6909 83.2326 60.8517 94.8866 60.8305 107.045V478.334C60.8547 490.491 65.6948 502.143 74.2912 510.74C82.8876 519.336 94.5399 524.176 106.697 524.201H156.003C161.979 524.201 167.71 526.575 171.936 530.8C176.162 535.026 178.535 540.757 178.535 546.733C178.535 552.708 176.162 558.439 171.936 562.665C167.71 566.891 161.979 569.264 156.003 569.264H106.697C82.5789 569.234 59.4576 559.639 42.4046 542.584C25.3517 525.529 15.7595 502.406 15.7322 478.288V107.045C15.7595 82.9277 25.352 59.8063 42.4053 42.753C59.4586 25.6997 82.58 16.1071 106.697 16.0798H886.153C910.27 16.1071 933.391 25.6997 950.444 42.753C967.498 59.8063 977.09 82.9277 977.117 107.045V478.334C977.09 502.452 967.498 525.575 950.445 542.63C933.392 559.685 910.271 569.28 886.153 569.31Z" fill="#005CCE"/>
<path d="M224.138 543.9L229.722 550.906L235.307 543.9L229.722 536.906L224.138 543.9Z" fill="#005CCE"/>
</g>
<g opacity="0.04">
<path d="M886.153 567.051H840.286C834.991 566.926 829.956 564.734 826.255 560.944C822.555 557.155 820.484 552.069 820.484 546.773C820.484 541.476 822.555 536.39 826.255 532.601C829.956 528.812 834.991 526.62 840.286 526.494H886.153C892.477 526.494 898.739 525.248 904.582 522.828C910.425 520.408 915.735 516.86 920.207 512.388C924.679 507.916 928.226 502.607 930.646 496.764C933.067 490.921 934.312 484.659 934.312 478.334V107.045C934.312 94.2718 929.238 82.0222 920.207 72.9905C911.175 63.9587 898.925 58.8848 886.153 58.8848H106.697C93.924 58.8848 81.6744 63.9587 72.6427 72.9905C63.6109 82.0222 58.537 94.2718 58.537 107.045V478.334C58.537 491.107 63.6109 503.357 72.6427 512.388C81.6744 521.42 93.924 526.494 106.697 526.494H156.003C158.707 526.43 161.396 526.907 163.913 527.897C166.429 528.887 168.722 530.37 170.657 532.26C172.592 534.149 174.13 536.407 175.179 538.899C176.229 541.391 176.77 544.068 176.77 546.773C176.77 549.477 176.229 552.154 175.179 554.647C174.13 557.139 172.592 559.396 170.657 561.286C168.722 563.175 166.429 564.658 163.913 565.649C161.396 566.639 158.707 567.116 156.003 567.051H106.697C83.175 567.027 60.6235 557.672 43.9911 541.04C27.3586 524.407 18.0038 501.856 17.9795 478.334V107.045C18.0068 83.5237 27.3625 60.9739 43.9943 44.3421C60.6261 27.7103 83.1759 18.3546 106.697 18.3273H886.153C909.672 18.3546 932.221 27.7107 948.851 44.3428C965.481 60.975 974.834 83.5248 974.858 107.045V478.334C974.834 501.854 965.481 524.404 948.851 541.036C932.221 557.668 909.672 567.024 886.153 567.051Z" fill="#005CCE"/>
</g>
<g opacity="0.05">
<path d="M886.153 564.804H840.286C835.505 564.804 830.921 562.905 827.54 559.525C824.16 556.144 822.26 551.559 822.26 546.779C822.26 541.998 824.16 537.413 827.54 534.033C830.921 530.652 835.505 528.753 840.286 528.753H886.153C899.534 528.753 912.367 523.437 921.828 513.976C931.29 504.514 936.606 491.681 936.606 478.3V107.045C936.606 93.6637 931.29 80.8307 921.828 71.3689C912.367 61.9071 899.534 56.5915 886.153 56.5915H106.697C93.3159 56.5915 80.4829 61.9071 71.0211 71.3689C61.5593 80.8307 56.2437 93.6637 56.2437 107.045V478.334C56.2437 491.715 61.5593 504.548 71.0211 514.01C80.4829 523.472 93.3159 528.787 106.697 528.787H156.003C160.784 528.787 165.369 530.687 168.749 534.067C172.13 537.447 174.029 542.032 174.029 546.813C174.029 551.594 172.13 556.178 168.749 559.559C165.369 562.939 160.784 564.838 156.003 564.838H106.697C83.7731 564.811 61.7962 555.692 45.5877 539.481C29.3792 523.271 20.2628 501.292 20.2385 478.369V107.045C20.2628 84.122 29.3795 62.145 45.5884 45.9362C61.7972 29.7274 83.7741 20.6106 106.697 20.5863H886.153C909.074 20.6136 931.049 29.7314 947.258 45.9395C963.466 62.1477 972.584 84.1229 972.611 107.045V478.334C972.587 501.258 963.47 523.236 947.262 539.447C931.053 555.657 909.076 564.777 886.153 564.804Z" fill="#005CCE"/>
</g>
<g opacity="0.07">
<path d="M886.153 562.545H840.286C836.177 562.434 832.273 560.724 829.405 557.778C826.538 554.832 824.933 550.884 824.933 546.773C824.933 542.662 826.538 538.713 829.405 535.767C832.273 532.822 836.177 531.111 840.286 531H886.153C900.112 530.976 913.493 525.419 923.362 515.547C933.232 505.675 938.786 492.294 938.807 478.334V107.045C938.786 93.0852 933.232 79.7034 923.362 69.8315C913.493 59.9596 900.112 54.4027 886.153 54.3784H106.697C92.7354 54.3997 79.3518 59.9553 69.4796 69.8275C59.6073 79.6997 54.0518 93.0833 54.0306 107.045V478.334C54.0518 492.296 59.6073 505.679 69.4796 515.551C79.3518 525.424 92.7354 530.979 106.697 531H156.003C158.11 530.944 160.207 531.309 162.171 532.077C164.134 532.844 165.924 533.996 167.434 535.467C168.944 536.937 170.145 538.695 170.965 540.637C171.784 542.579 172.207 544.665 172.207 546.773C172.207 548.881 171.784 550.967 170.965 552.909C170.145 554.851 168.944 556.609 167.434 558.079C165.924 559.549 164.134 560.702 162.171 561.469C160.207 562.236 158.11 562.602 156.003 562.545H106.697C84.3701 562.521 62.9649 553.641 47.1775 537.853C31.3902 522.066 22.5101 500.661 22.4858 478.334V107.045C22.5101 84.718 31.3902 63.3127 47.1775 47.5254C62.9649 31.738 84.3701 22.858 106.697 22.8337H886.153C908.478 22.858 929.882 31.7384 945.668 47.5261C961.453 63.3137 970.331 84.7191 970.352 107.045V478.334C970.331 500.66 961.453 522.065 945.668 537.853C929.882 553.64 908.478 562.521 886.153 562.545Z" fill="#005CCE"/>
</g>
<g opacity="0.08">
<path d="M886.153 560.298H840.286C836.701 560.298 833.262 558.873 830.727 556.338C828.192 553.803 826.767 550.364 826.767 546.778C826.767 543.193 828.192 539.754 830.727 537.219C833.262 534.684 836.701 533.259 840.286 533.259H886.153C900.709 533.226 914.658 527.428 924.95 517.135C935.241 506.841 941.036 492.89 941.066 478.334V107.045C941.033 92.4908 935.237 78.5426 924.946 68.2515C914.655 57.9604 900.707 52.1642 886.153 52.1308H106.697C92.1377 52.146 78.1791 57.9364 67.884 68.2314C57.589 78.5265 51.7986 92.4852 51.7834 107.045V478.334C51.8137 492.89 57.6086 506.841 67.9 517.135C78.1914 527.428 92.1413 533.226 106.697 533.259H156.004C159.589 533.259 163.028 534.684 165.563 537.219C168.098 539.754 169.523 543.193 169.523 546.778C169.523 550.364 168.098 553.803 165.563 556.338C163.028 558.873 159.589 560.298 156.004 560.298H106.697C84.9685 560.27 64.1378 551.626 48.7744 536.26C33.411 520.895 24.7694 500.063 24.7451 478.334V107.045C24.7694 85.317 33.4113 64.4863 48.7751 49.1225C64.1388 33.7588 84.9695 25.1168 106.697 25.0925H886.153C907.88 25.1168 928.711 33.7588 944.075 49.1225C959.438 64.4863 968.081 85.317 968.105 107.045V478.334C968.081 500.063 959.439 520.895 944.075 536.26C928.712 551.626 907.881 560.27 886.153 560.298Z" fill="#005CCE"/>
</g>
<g opacity="0.1">
<path d="M886.153 558.039H840.286C837.361 557.945 834.586 556.718 832.549 554.615C830.513 552.512 829.374 549.7 829.374 546.773C829.374 543.846 830.513 541.033 832.549 538.931C834.586 536.828 837.361 535.6 840.286 535.507H886.153C901.309 535.489 915.84 529.459 926.556 518.741C937.272 508.022 943.299 493.491 943.314 478.334V107.045C943.299 91.8882 937.272 77.3566 926.556 66.6383C915.84 55.92 901.309 49.8902 886.153 49.872H106.697C91.5395 49.8902 77.008 55.9196 66.29 66.6376C55.572 77.3556 49.5426 91.8871 49.5244 107.045V478.334C49.5396 493.493 55.568 508.026 66.2866 518.745C77.0053 529.463 91.5385 535.492 106.697 535.507H156.004C157.513 535.459 159.017 535.714 160.426 536.259C161.835 536.803 163.12 537.625 164.205 538.676C165.29 539.727 166.153 540.985 166.742 542.376C167.331 543.767 167.635 545.262 167.635 546.773C167.635 548.283 167.331 549.778 166.742 551.169C166.153 552.56 165.29 553.818 164.205 554.869C163.12 555.92 161.835 556.742 160.426 557.287C159.017 557.831 157.513 558.087 156.004 558.039H106.697C85.5655 558.014 65.3064 549.609 50.3642 534.667C35.4219 519.725 27.0167 499.466 26.9924 478.334V107.045C27.0167 85.9131 35.4219 65.6541 50.3642 50.7118C65.3064 35.7696 85.5655 27.3644 106.697 27.3401H886.153C907.283 27.3644 927.541 35.7699 942.481 50.7125C957.422 65.6551 965.825 85.9142 965.846 107.045V478.334C965.825 499.465 957.422 519.724 942.481 534.666C927.541 549.609 907.283 558.014 886.153 558.039Z" fill="#005CCE"/>
</g>
<path d="M886.153 553.532H840.286C838.542 553.46 836.892 552.717 835.683 551.457C834.474 550.197 833.799 548.519 833.799 546.773C833.799 545.027 834.474 543.348 835.683 542.088C836.892 540.829 838.542 540.085 840.286 540.013H886.153C902.504 539.995 918.181 533.49 929.742 521.927C941.303 510.364 947.805 494.686 947.82 478.334V107.045C947.805 90.693 941.303 75.0152 929.742 63.4518C918.181 51.8883 902.504 45.3838 886.153 45.3656H106.697C90.3443 45.3838 74.6666 51.8879 63.1035 63.4511C51.5404 75.0142 45.0362 90.6919 45.018 107.045V478.334C45.0362 494.687 51.5404 510.365 63.1035 521.928C74.6666 533.491 90.3443 539.995 106.697 540.013H156.003C156.915 539.976 157.824 540.123 158.677 540.445C159.53 540.768 160.308 541.26 160.966 541.891C161.624 542.523 162.148 543.281 162.505 544.119C162.863 544.958 163.047 545.861 163.047 546.773C163.047 547.685 162.863 548.587 162.505 549.426C162.148 550.265 161.624 551.023 160.966 551.654C160.308 552.285 159.53 552.777 158.677 553.1C157.824 553.423 156.915 553.57 156.003 553.532H106.697C86.7606 553.508 67.6478 545.578 53.5506 531.48C39.4535 517.383 31.5231 498.27 31.4988 478.334V107.045C31.5231 87.1083 39.4535 67.9954 53.5506 53.8983C67.6478 39.8012 86.7606 31.8707 106.697 31.8464H886.153C906.088 31.8707 925.2 39.8015 939.295 53.899C953.39 67.9964 961.318 87.1093 961.339 107.045V478.334C961.318 498.269 953.39 517.382 939.295 531.48C925.2 545.577 906.088 553.508 886.153 553.532Z" fill="#005CCE"/>
<path d="M886.153 551.285H840.286C839.091 551.285 837.945 550.81 837.1 549.965C836.255 549.12 835.78 547.974 835.78 546.778C835.78 545.583 836.255 544.437 837.1 543.592C837.945 542.747 839.091 542.272 840.286 542.272H886.153C903.103 542.251 919.352 535.507 931.336 523.521C943.32 511.534 950.061 495.284 950.079 478.334V107.045C950.061 90.0958 943.32 73.8464 931.336 61.8619C919.351 49.8773 903.102 43.1363 886.153 43.1181H106.697C89.7483 43.1363 73.4989 49.8773 61.5144 61.8619C49.5298 73.8464 42.7888 90.0958 42.7706 107.045V478.334C42.7888 495.284 49.5294 511.534 61.5137 523.521C73.4979 535.507 89.7472 542.251 106.697 542.272H156.004C157.199 542.272 158.345 542.747 159.19 543.592C160.035 544.437 160.51 545.583 160.51 546.778C160.51 547.974 160.035 549.12 159.19 549.965C158.345 550.81 157.199 551.285 156.004 551.285H106.697C87.3569 551.264 68.8151 543.57 55.1407 529.894C41.4662 516.217 33.776 497.674 33.7578 478.334V107.045C33.7791 87.7064 41.4706 69.1664 55.1447 55.4922C68.8189 41.8181 87.3589 34.1266 106.697 34.1053H886.153C905.491 34.1266 924.031 41.8181 937.705 55.4922C951.379 69.1664 959.071 87.7064 959.092 107.045V478.334C959.071 497.673 951.38 516.215 937.706 529.891C924.032 543.567 905.492 551.261 886.153 551.285Z" fill="#005CCE"/>
<path d="M886.153 548.281H840.286C839.888 548.281 839.506 548.122 839.224 547.841C838.942 547.559 838.784 547.177 838.784 546.778C838.784 546.38 838.942 545.998 839.224 545.716C839.506 545.435 839.888 545.276 840.286 545.276H886.153C903.898 545.252 920.91 538.191 933.457 525.642C946.004 513.093 953.062 496.08 953.084 478.334V107.045C953.062 89.3 946.004 72.2882 933.456 59.7409C920.909 47.1935 903.897 40.1351 886.153 40.1138H106.697C88.9514 40.1321 71.9379 47.1895 59.3899 59.7375C46.8419 72.2855 39.7844 89.299 39.7662 107.045V478.334C39.7844 496.081 46.8415 513.095 59.3892 525.645C71.9369 538.195 88.9503 545.255 106.697 545.276H156.003C156.402 545.276 156.784 545.435 157.066 545.716C157.347 545.998 157.506 546.38 157.506 546.778C157.506 547.177 157.347 547.559 157.066 547.841C156.784 548.122 156.402 548.281 156.003 548.281H106.697C88.1516 548.262 70.371 540.887 57.2575 527.774C44.1439 514.66 36.7687 496.879 36.7505 478.334V107.045C36.7687 88.4992 44.1439 70.7186 57.2575 57.6051C70.371 44.4915 88.1516 37.1164 106.697 37.0981H886.153C904.698 37.1164 922.479 44.4915 935.592 57.6051C948.706 70.7186 956.081 88.4992 956.099 107.045V478.334C956.081 496.879 948.706 514.66 935.592 527.774C922.479 540.887 904.698 548.262 886.153 548.281Z" fill="#F5F8FD"/>
</svg>
