<svg width="866" height="638" viewBox="0 0 866 638" fill="none" xmlns="http://www.w3.org/2000/svg">
<g opacity="0.01">
<path d="M772.81 569.71H732.81C725.645 569.517 718.838 566.535 713.839 561.398C708.839 556.262 706.042 549.378 706.042 542.21C706.042 535.042 708.839 528.158 713.839 523.022C718.838 517.885 725.645 514.903 732.81 514.71H772.81C781.347 514.705 789.534 511.31 795.569 505.272C801.605 499.235 804.997 491.047 805 482.51V158.71C804.984 150.182 801.586 142.009 795.551 135.983C789.516 129.958 781.338 126.573 772.81 126.57H93.05C84.5204 126.578 76.3425 129.97 70.3112 136.001C64.2798 142.032 60.8879 150.21 60.88 158.74V482.54C60.8879 491.07 64.2795 499.249 70.3105 505.282C76.3416 511.315 84.5195 514.709 93.05 514.72H136.05C143.215 514.913 150.022 517.895 155.021 523.031C160.021 528.168 162.818 535.052 162.818 542.22C162.818 549.388 160.021 556.272 155.021 561.409C150.022 566.545 143.215 569.527 136.05 569.72H93.05C69.9322 569.694 47.7689 560.498 31.423 544.15C15.0772 527.802 5.88381 505.638 5.85999 482.52V158.71C5.89704 135.602 15.0966 113.451 31.4413 97.116C47.786 80.7807 69.9417 71.5938 93.05 71.57H772.81C795.918 71.5938 818.074 80.7807 834.419 97.116C850.763 113.451 859.963 135.602 860 158.71V482.51C859.976 505.628 850.783 527.792 834.437 544.14C818.091 560.488 795.928 569.684 772.81 569.71Z" fill="#005CCE"/>
</g>
<g opacity="0.01">
<path d="M772.81 567.74H732.81C726.123 567.608 719.754 564.858 715.071 560.082C710.388 555.306 707.766 548.884 707.766 542.195C707.766 535.506 710.388 529.084 715.071 524.308C719.754 519.532 726.123 516.782 732.81 516.65H772.81C781.86 516.639 790.537 513.039 796.935 506.638C803.334 500.238 806.932 491.56 806.94 482.51V158.71C806.932 149.66 803.334 140.982 796.935 134.582C790.537 128.181 781.86 124.581 772.81 124.57H93.05C83.9988 124.581 75.3213 128.181 68.9211 134.581C62.5209 140.981 58.9206 149.659 58.91 158.71V482.51C58.9206 491.561 62.5209 500.239 68.9211 506.639C75.3213 513.039 83.9988 516.639 93.05 516.65H136.05C139.447 516.583 142.824 517.194 145.982 518.447C149.14 519.701 152.016 521.572 154.443 523.951C156.869 526.329 158.796 529.168 160.112 532.301C161.428 535.434 162.106 538.797 162.106 542.195C162.106 545.593 161.428 548.956 160.112 552.089C158.796 555.222 156.869 558.061 154.443 560.439C152.016 562.818 149.14 564.689 145.982 565.943C142.824 567.196 139.447 567.807 136.05 567.74H93.05C70.4538 567.714 48.7906 558.725 32.8126 542.747C16.8346 526.77 7.84653 505.106 7.82007 482.51V158.71C7.84653 136.114 16.8346 114.451 32.8126 98.4725C48.7906 82.4945 70.4538 73.5065 93.05 73.48H772.81C795.4 73.5144 817.055 82.5063 833.025 98.4837C848.995 114.461 857.976 136.12 858 158.71V482.51C857.976 505.1 848.995 526.759 833.025 542.736C817.055 558.714 795.4 567.706 772.81 567.74Z" fill="#005CCE"/>
</g>
<g opacity="0.02">
<path d="M772.81 565.78H732.81C729.714 565.78 726.647 565.17 723.786 563.985C720.926 562.8 718.326 561.063 716.137 558.874C713.947 556.684 712.21 554.085 711.025 551.224C709.84 548.363 709.23 545.297 709.23 542.2C709.23 539.103 709.84 536.037 711.025 533.176C712.21 530.315 713.947 527.716 716.137 525.526C718.326 523.337 720.926 521.6 723.786 520.415C726.647 519.23 729.714 518.62 732.81 518.62H772.81C782.382 518.607 791.558 514.798 798.326 508.028C805.093 501.259 808.9 492.082 808.91 482.51V158.71C808.9 149.139 805.093 139.963 798.325 133.195C791.557 126.427 782.381 122.621 772.81 122.61H93.05C83.479 122.621 74.303 126.427 67.5352 133.195C60.7674 139.963 56.9607 149.139 56.9501 158.71V482.51C56.958 492.083 60.7636 501.261 67.5317 508.031C74.2997 514.801 83.4773 518.609 93.05 518.62H136.05C142.304 518.62 148.302 521.104 152.724 525.526C157.146 529.949 159.63 535.946 159.63 542.2C159.63 548.454 157.146 554.451 152.724 558.874C148.302 563.296 142.304 565.78 136.05 565.78H93.05C70.9745 565.754 49.8109 556.972 34.202 541.361C18.5932 525.75 9.81386 504.586 9.79004 482.51V158.71C9.81386 136.635 18.5935 115.472 34.2026 99.8626C49.8118 84.2535 70.9754 75.4738 93.05 75.45H772.81C794.885 75.4738 816.048 84.2535 831.657 99.8626C847.267 115.472 856.046 136.635 856.07 158.71V482.51C856.046 504.586 847.267 525.75 831.658 541.361C816.049 556.972 794.886 565.754 772.81 565.78Z" fill="#005CCE"/>
</g>
<g opacity="0.02">
<path d="M772.81 563.81H732.81C727.158 563.688 721.778 561.358 717.824 557.317C713.869 553.277 711.655 547.848 711.655 542.195C711.655 536.542 713.869 531.113 717.824 527.073C721.778 523.032 727.158 520.702 732.81 520.58H772.81C782.903 520.569 792.579 516.555 799.714 509.417C806.85 502.28 810.862 492.603 810.87 482.51V158.71C810.859 148.618 806.846 138.943 799.711 131.806C792.576 124.669 782.902 120.653 772.81 120.64H93.05C82.9607 120.659 73.2903 124.676 66.158 131.812C59.0256 138.948 55.0132 148.621 55 158.71V482.51C55.0132 492.598 59.026 502.27 66.1586 509.404C73.2912 516.539 82.9616 520.554 93.05 520.57H136.05C138.928 520.508 141.789 521.021 144.465 522.08C147.142 523.138 149.58 524.721 151.637 526.734C153.694 528.747 155.329 531.151 156.444 533.804C157.56 536.457 158.135 539.307 158.135 542.185C158.135 545.063 157.56 547.913 156.444 550.566C155.329 553.219 153.694 555.623 151.637 557.636C149.58 559.649 147.142 561.232 144.465 562.29C141.789 563.349 138.928 563.862 136.05 563.8H93.05C71.4952 563.776 50.83 555.203 35.5885 539.961C20.347 524.72 11.7738 504.055 11.75 482.5V158.71C11.7738 137.155 20.347 116.49 35.5885 101.249C50.83 86.007 71.4952 77.4338 93.05 77.41H772.81C794.363 77.4365 815.026 86.0108 830.265 101.252C845.504 116.493 854.076 137.157 854.1 158.71V482.51C854.076 504.063 845.504 524.727 830.265 539.968C815.026 555.209 794.363 563.784 772.81 563.81Z" fill="#005CCE"/>
</g>
<g opacity="0.03">
<path d="M772.81 561.85H732.81C727.599 561.85 722.6 559.78 718.915 556.095C715.23 552.41 713.16 547.412 713.16 542.2C713.16 536.989 715.23 531.99 718.915 528.305C722.6 524.62 727.599 522.55 732.81 522.55H772.81C783.412 522.529 793.574 518.308 801.071 510.811C808.568 503.314 812.789 493.152 812.81 482.55V158.71C812.792 148.107 808.571 137.944 801.074 130.446C793.576 122.949 783.413 118.729 772.81 118.71H93.05C82.447 118.729 72.2836 122.949 64.7862 130.446C57.2887 137.944 53.0685 148.107 53.05 158.71V482.51C53.0711 493.112 57.2922 503.274 64.7891 510.771C72.2859 518.268 82.4478 522.489 93.05 522.51H136.05C141.261 522.51 146.26 524.58 149.945 528.265C153.63 531.95 155.7 536.949 155.7 542.16C155.7 547.372 153.63 552.37 149.945 556.055C146.26 559.74 141.261 561.81 136.05 561.81H93.05C72.0168 561.784 51.8527 553.416 36.9809 538.542C22.1091 523.668 13.7438 503.503 13.72 482.47V158.71C13.7438 137.678 22.1094 117.514 36.9815 102.642C51.8536 87.7694 72.0177 79.4038 93.05 79.38H772.81C793.842 79.4038 814.006 87.7694 828.878 102.642C843.751 117.514 852.116 137.678 852.14 158.71V482.51C852.116 503.543 843.751 523.708 828.879 538.582C814.007 553.456 793.843 561.824 772.81 561.85Z" fill="#005CCE"/>
<path d="M195.47 539.69L200.34 545.8L205.21 539.69L200.34 533.59L195.47 539.69Z" fill="#005CCE"/>
</g>
<g opacity="0.04">
<path d="M772.81 559.88H732.81C728.192 559.77 723.801 557.859 720.574 554.554C717.347 551.25 715.54 546.814 715.54 542.195C715.54 537.576 717.347 533.14 720.574 529.836C723.801 526.531 728.192 524.62 732.81 524.51H772.81C778.326 524.51 783.787 523.424 788.883 521.313C793.978 519.202 798.608 516.109 802.508 512.208C806.409 508.308 809.502 503.678 811.613 498.583C813.724 493.487 814.81 488.026 814.81 482.51V158.71C814.81 147.571 810.385 136.888 802.508 129.012C794.632 121.135 783.949 116.71 772.81 116.71H93.0499C81.9108 116.71 71.228 121.135 63.3514 129.012C55.4749 136.888 51.0499 147.571 51.0499 158.71V482.51C51.0499 493.649 55.4749 504.332 63.3514 512.208C71.228 520.085 81.9108 524.51 93.0499 524.51H136.05C138.408 524.454 140.753 524.87 142.948 525.733C145.142 526.597 147.142 527.891 148.83 529.538C150.517 531.186 151.858 533.155 152.773 535.328C153.689 537.502 154.161 539.837 154.161 542.195C154.161 544.553 153.689 546.888 152.773 549.062C151.858 551.235 150.517 553.204 148.83 554.852C147.142 556.499 145.142 557.793 142.948 558.657C140.753 559.52 138.408 559.936 136.05 559.88H93.0499C72.5366 559.859 52.8696 551.701 38.3645 537.195C23.8594 522.69 15.7011 503.023 15.6799 482.51V158.71C15.7038 138.198 23.8628 118.532 38.3674 104.027C52.8719 89.523 72.5374 81.3638 93.0499 81.34H772.81C793.322 81.3639 812.986 89.5233 827.489 104.028C841.992 118.533 850.149 138.198 850.17 158.71V482.51C850.149 503.022 841.992 522.687 827.489 537.192C812.986 551.697 793.322 559.856 772.81 559.88Z" fill="#005CCE"/>
</g>
<g opacity="0.05">
<path d="M772.81 557.92H732.81C728.641 557.92 724.642 556.264 721.694 553.316C718.746 550.368 717.09 546.369 717.09 542.2C717.09 538.031 718.746 534.032 721.694 531.084C724.642 528.136 728.641 526.48 732.81 526.48H772.81C784.48 526.48 795.671 521.844 803.923 513.593C812.174 505.341 816.81 494.15 816.81 482.48V158.71C816.81 147.04 812.174 135.849 803.923 127.597C795.671 119.346 784.48 114.71 772.81 114.71H93.05C81.3805 114.71 70.1889 119.346 61.9373 127.597C53.6857 135.849 49.05 147.04 49.05 158.71V482.51C49.05 494.18 53.6857 505.371 61.9373 513.623C70.1889 521.874 81.3805 526.51 93.05 526.51H136.05C140.219 526.51 144.218 528.166 147.166 531.114C150.114 534.062 151.77 538.061 151.77 542.23C151.77 546.399 150.114 550.398 147.166 553.346C144.218 556.294 140.219 557.95 136.05 557.95H93.05C73.0582 557.926 53.8923 549.973 39.7569 535.836C25.6215 521.699 17.6712 502.532 17.65 482.54V158.71C17.6712 138.719 25.6219 119.553 39.7575 105.418C53.8932 91.2819 73.0592 83.3312 93.05 83.31H772.81C792.8 83.3338 811.964 91.2854 826.099 105.42C840.235 119.556 848.186 138.72 848.21 158.71V482.51C848.189 502.502 840.238 521.669 826.103 535.806C811.968 549.943 792.802 557.896 772.81 557.92Z" fill="#005CCE"/>
</g>
<g opacity="0.07">
<path d="M772.81 555.95H732.81C729.226 555.853 725.821 554.362 723.321 551.793C720.82 549.224 719.421 545.78 719.421 542.195C719.421 538.61 720.82 535.166 723.321 532.597C725.821 530.028 729.226 528.537 732.81 528.44H772.81C784.984 528.419 796.653 523.573 805.26 514.963C813.868 506.354 818.711 494.684 818.73 482.51V158.71C818.711 146.536 813.868 134.866 805.26 126.257C796.653 117.647 784.984 112.801 772.81 112.78H93.05C80.8743 112.799 69.2026 117.644 60.593 126.253C51.9835 134.863 47.1385 146.534 47.12 158.71V482.51C47.1385 494.686 51.9835 506.357 60.593 514.967C69.2026 523.577 80.8743 528.421 93.05 528.44H136.05C137.888 528.39 139.716 528.71 141.429 529.379C143.141 530.048 144.701 531.053 146.019 532.335C147.336 533.617 148.383 535.15 149.098 536.844C149.813 538.537 150.181 540.357 150.181 542.195C150.181 544.033 149.813 545.853 149.098 547.546C148.383 549.24 147.336 550.773 146.019 552.055C144.701 553.337 143.141 554.343 141.429 555.011C139.716 555.68 137.888 556 136.05 555.95H93.05C73.579 555.929 54.9116 548.185 41.1435 534.417C27.3754 520.648 19.6312 501.981 19.61 482.51V158.71C19.6312 139.239 27.3754 120.572 41.1435 106.803C54.9116 93.0354 73.579 85.2912 93.05 85.27H772.81C792.28 85.2912 810.947 93.0357 824.713 106.804C838.48 120.572 846.221 139.24 846.24 158.71V482.51C846.221 501.98 838.48 520.648 824.713 534.416C810.947 548.184 792.28 555.929 772.81 555.95Z" fill="#005CCE"/>
</g>
<g opacity="0.08">
<path d="M772.81 553.99H732.81C729.683 553.99 726.684 552.748 724.473 550.537C722.262 548.326 721.02 545.327 721.02 542.2C721.02 539.073 722.262 536.074 724.473 533.863C726.684 531.652 729.683 530.41 732.81 530.41H772.81C785.504 530.381 797.67 525.325 806.645 516.348C815.62 507.371 820.674 495.204 820.7 482.51V158.71C820.671 146.018 815.616 133.854 806.641 124.879C797.666 115.904 785.502 110.849 772.81 110.82H93.05C80.3529 110.833 68.1796 115.883 59.2014 124.861C50.2231 133.84 45.1733 146.013 45.16 158.71V482.51C45.1864 495.204 50.2402 507.371 59.2153 516.348C68.1904 525.325 80.356 530.381 93.05 530.41H136.05C139.177 530.41 142.176 531.652 144.387 533.863C146.598 536.074 147.84 539.073 147.84 542.2C147.84 545.327 146.598 548.326 144.387 550.537C142.176 552.748 139.177 553.99 136.05 553.99H93.05C74.1006 553.966 55.9342 546.427 42.5359 533.027C29.1375 519.627 21.6012 501.459 21.5801 482.51V158.71C21.6013 139.761 29.1379 121.595 42.5365 108.196C55.9351 94.7978 74.1015 87.2612 93.05 87.24H772.81C791.759 87.2612 809.925 94.7978 823.324 108.196C836.722 121.595 844.259 139.761 844.28 158.71V482.51C844.259 501.459 836.723 519.627 823.324 533.027C809.926 546.427 791.76 553.966 772.81 553.99Z" fill="#005CCE"/>
</g>
<g opacity="0.1">
<path d="M772.81 552.02H732.81C730.259 551.939 727.839 550.868 726.063 549.034C724.287 547.2 723.294 544.748 723.294 542.195C723.294 539.642 724.287 537.19 726.063 535.356C727.839 533.522 730.259 532.451 732.81 532.37H772.81C786.028 532.354 798.7 527.096 808.045 517.748C817.391 508.401 822.647 495.728 822.66 482.51V158.71C822.647 145.492 817.391 132.819 808.045 123.472C798.7 114.124 786.028 108.866 772.81 108.85H93.05C79.8312 108.866 67.1584 114.124 57.8113 123.471C48.4642 132.818 43.2059 145.491 43.1901 158.71V482.51C43.2033 495.73 48.4607 508.404 57.8083 517.752C67.156 527.099 79.8304 532.357 93.05 532.37H136.05C137.367 532.328 138.678 532.551 139.907 533.026C141.136 533.501 142.257 534.218 143.203 535.134C144.149 536.051 144.901 537.148 145.415 538.361C145.929 539.574 146.194 540.878 146.194 542.195C146.194 543.512 145.929 544.816 145.415 546.029C144.901 547.242 144.149 548.339 143.203 549.256C142.257 550.172 141.136 550.889 139.907 551.364C138.678 551.839 137.367 552.062 136.05 552.02H93.05C74.6213 551.999 56.9535 544.669 43.9224 531.638C30.8914 518.607 23.5612 500.939 23.54 482.51V158.71C23.5612 140.281 30.8914 122.613 43.9224 109.582C56.9535 96.5513 74.6213 89.2212 93.05 89.2H772.81C791.238 89.2212 808.905 96.5517 821.934 109.583C834.964 122.614 842.292 140.282 842.31 158.71V482.51C842.292 500.938 834.964 518.606 821.934 531.637C808.905 544.668 791.238 551.999 772.81 552.02Z" fill="#005CCE"/>
</g>
<path d="M772.81 548.09H732.81C731.289 548.027 729.85 547.379 728.796 546.28C727.742 545.181 727.153 543.718 727.153 542.195C727.153 540.672 727.742 539.209 728.796 538.11C729.85 537.011 731.289 536.363 732.81 536.3H772.81C787.07 536.284 800.742 530.612 810.824 520.527C820.907 510.443 826.577 496.77 826.59 482.51V158.71C826.577 144.45 820.907 130.777 810.824 120.693C800.742 110.608 787.07 104.936 772.81 104.92H93.05C78.7889 104.936 65.1164 110.608 55.0323 120.692C44.9481 130.776 39.2759 144.449 39.26 158.71V482.51C39.2759 496.771 44.9481 510.444 55.0323 520.528C65.1164 530.612 78.7889 536.284 93.05 536.3H136.05C136.845 536.267 137.638 536.396 138.381 536.677C139.125 536.958 139.804 537.387 140.378 537.938C140.952 538.489 141.408 539.15 141.72 539.881C142.032 540.613 142.193 541.4 142.193 542.195C142.193 542.99 142.032 543.777 141.72 544.509C141.408 545.24 140.952 545.901 140.378 546.452C139.804 547.003 139.125 547.432 138.381 547.713C137.638 547.995 136.845 548.123 136.05 548.09H93.05C75.6636 548.069 58.9953 541.153 46.7013 528.859C34.4072 516.565 27.4911 499.896 27.47 482.51V158.71C27.4911 141.324 34.4072 124.655 46.7013 112.361C58.9953 100.067 75.6636 93.1512 93.05 93.13H772.81C790.196 93.1512 806.863 100.068 819.155 112.362C831.448 124.656 838.361 141.325 838.38 158.71V482.51C838.361 499.895 831.448 516.564 819.155 528.858C806.863 541.152 790.196 548.069 772.81 548.09Z" fill="#005CCE"/>
<path d="M772.81 546.13H732.81C731.768 546.13 730.768 545.716 730.031 544.979C729.294 544.242 728.88 543.242 728.88 542.2C728.88 541.158 729.294 540.158 730.031 539.421C730.768 538.684 731.768 538.27 732.81 538.27H772.81C787.592 538.251 801.763 532.371 812.214 521.917C822.666 511.464 828.544 497.292 828.56 482.51V158.71C828.544 143.929 822.665 129.758 812.214 119.306C801.762 108.855 787.591 102.976 772.81 102.96H93.0499C78.269 102.976 64.098 108.855 53.6463 119.306C43.1946 129.758 37.3158 143.929 37.2999 158.71V482.51C37.3158 497.292 43.1943 511.464 53.6457 521.917C64.0971 532.371 78.2681 538.251 93.0499 538.27H136.05C137.092 538.27 138.092 538.684 138.829 539.421C139.566 540.158 139.98 541.158 139.98 542.2C139.98 543.242 139.566 544.242 138.829 544.979C138.092 545.716 137.092 546.13 136.05 546.13H93.0499C76.1835 546.111 60.0133 539.402 48.0878 527.475C36.1624 515.548 29.4558 499.376 29.4399 482.51V158.71C29.4585 141.845 36.1662 125.677 48.0914 113.751C60.0165 101.826 76.1852 95.1185 93.0499 95.1H772.81C789.675 95.1185 805.843 101.826 817.768 113.751C829.694 125.677 836.401 141.845 836.42 158.71V482.51C836.401 499.376 829.694 515.545 817.769 527.472C805.844 539.399 789.676 546.109 772.81 546.13Z" fill="#005CCE"/>
<path d="M772.81 543.51H732.81C732.463 543.51 732.129 543.372 731.884 543.126C731.638 542.881 731.5 542.547 731.5 542.2C731.5 541.853 731.638 541.519 731.884 541.274C732.129 541.028 732.463 540.89 732.81 540.89H772.81C788.286 540.869 803.122 534.711 814.064 523.767C825.006 512.823 831.162 497.986 831.18 482.51V158.71C831.162 143.235 825.006 128.399 814.063 117.457C803.121 106.514 788.285 100.359 772.81 100.34H93.05C77.5742 100.356 62.7368 106.511 51.7938 117.454C40.8507 128.397 34.6959 143.234 34.6801 158.71V482.51C34.6959 497.987 40.8504 512.825 51.7932 523.77C62.7359 534.714 77.5733 540.871 93.05 540.89H136.05C136.397 540.89 136.731 541.028 136.976 541.274C137.222 541.519 137.36 541.853 137.36 542.2C137.36 542.547 137.222 542.881 136.976 543.126C136.731 543.372 136.397 543.51 136.05 543.51H93.05C76.8767 543.494 61.3704 537.062 49.9341 525.626C38.4978 514.19 32.0659 498.683 32.05 482.51V158.71C32.0659 142.537 38.4978 127.03 49.9341 115.594C61.3704 104.158 76.8767 97.7259 93.05 97.71H772.81C788.983 97.7259 804.49 104.158 815.926 115.594C827.362 127.03 833.794 142.537 833.81 158.71V482.51C833.794 498.683 827.362 514.19 815.926 525.626C804.49 537.062 788.983 543.494 772.81 543.51Z" fill="#F5F8FD"/>
</svg>
