<svg width="197" height="196" viewBox="0 0 197 196" fill="none" xmlns="http://www.w3.org/2000/svg">
<g opacity="0.01">
<path d="M98.29 190C80.1178 190 62.3537 184.611 47.2441 174.515C32.1346 164.42 20.358 150.07 13.4039 133.281C6.44969 116.492 4.6302 98.0182 8.17541 80.1952C11.7206 62.3722 20.4713 46.0007 33.321 33.151C46.1706 20.3014 62.5421 11.5507 80.3651 8.00548C98.188 4.46027 116.662 6.27981 133.451 13.234C150.24 20.1882 164.589 31.9647 174.685 47.0743C184.781 62.1839 190.17 79.9479 190.17 98.12C190.138 122.478 180.448 145.83 163.224 163.054C146 180.278 122.648 189.968 98.29 190ZM98.29 61.2701C90.9993 61.2701 83.8724 63.4321 77.8106 67.4828C71.7488 71.5334 67.0244 77.2908 64.2348 84.0267C61.4453 90.7625 60.7159 98.1743 62.1389 105.325C63.562 112.475 67.0736 119.043 72.2296 124.198C77.3855 129.352 83.9542 132.862 91.105 134.283C98.2558 135.704 105.667 134.973 112.403 132.181C119.138 129.39 124.894 124.664 128.943 118.601C132.992 112.538 135.152 105.411 135.15 98.12C135.139 88.3483 131.252 78.98 124.342 72.0713C117.431 65.1626 108.062 61.278 98.29 61.2701Z" fill="#005CCE"/>
</g>
<g opacity="0.01">
<path d="M98.29 188C80.5074 188 63.1242 182.727 48.3386 172.847C33.553 162.968 22.029 148.926 15.2239 132.497C8.41884 116.068 6.63832 97.99 10.1075 80.5492C13.5767 63.1083 22.1398 47.0879 34.714 34.5138C47.2881 21.9396 63.3085 13.3765 80.7494 9.90732C98.1902 6.43813 116.268 8.21864 132.697 15.0237C149.126 21.8288 163.168 33.3528 173.047 48.1384C182.927 62.924 188.2 80.3072 188.2 98.0898C188.176 121.928 178.696 144.783 161.84 161.639C144.983 178.496 122.128 187.976 98.29 188ZM98.29 59.2698C90.6121 59.2698 83.1066 61.5465 76.7227 65.8121C70.3388 70.0777 65.3631 76.1406 62.4249 83.234C59.4867 90.3274 58.718 98.1328 60.2159 105.663C61.7137 113.193 65.411 120.111 70.8401 125.54C76.2691 130.969 83.1862 134.666 90.7165 136.164C98.2469 137.662 106.052 136.893 113.146 133.955C120.239 131.017 126.302 126.041 130.568 119.657C134.833 113.273 137.11 105.768 137.11 98.0898C137.089 87.8033 132.991 77.9447 125.715 70.6739C118.438 63.4031 108.576 59.3129 98.29 59.2997V59.2698Z" fill="#005CCE"/>
</g>
<g opacity="0.02">
<path d="M98.2899 186.07C80.8972 186.07 63.8949 180.913 49.4327 171.251C34.9704 161.589 23.6977 147.856 17.0395 131.789C10.3813 115.721 8.63664 98.0394 12.0262 80.9801C15.4157 63.9209 23.7872 48.2496 36.0822 35.9476C48.3772 23.6456 64.0437 15.2652 81.1011 11.866C98.1584 8.46678 115.841 10.2014 131.912 16.8504C147.984 23.4995 161.723 34.7645 171.393 49.2212C181.063 63.6779 186.23 80.6772 186.24 98.07C186.24 121.4 176.975 143.776 160.483 160.278C143.991 176.779 121.62 186.057 98.2899 186.07ZM98.2899 57.34C90.222 57.34 82.3352 59.7325 75.6271 64.215C68.919 68.6975 63.6909 75.0686 60.6039 82.5226C57.5169 89.9766 56.7096 98.1786 58.2843 106.091C59.859 114.004 63.745 121.272 69.4505 126.976C75.1561 132.681 82.4252 136.565 90.3383 138.137C98.2514 139.71 106.453 138.901 113.906 135.812C121.36 132.723 127.73 127.494 132.21 120.784C136.691 114.075 139.082 106.188 139.08 98.12C139.067 87.3068 134.765 76.9404 127.118 69.2953C119.471 61.6501 109.103 57.3506 98.2899 57.34Z" fill="#005CCE"/>
</g>
<g opacity="0.02">
<path d="M98.2901 184.1C81.2809 184.1 64.6537 179.056 50.511 169.606C36.3684 160.156 25.3455 146.725 18.8364 131.01C12.3273 115.296 10.6242 98.0042 13.9426 81.3219C17.2609 64.6395 25.4516 49.3158 37.4789 37.2885C49.5062 25.2612 64.8299 17.0704 81.5123 13.7521C98.1947 10.4338 115.486 12.1369 131.201 18.646C146.915 25.1552 160.347 36.178 169.796 50.3206C179.246 64.4633 184.29 81.0904 184.29 98.0996C184.269 120.902 175.201 142.764 159.078 158.887C142.954 175.011 121.092 184.078 98.2901 184.1ZM98.2901 55.3697C89.8349 55.3697 81.5696 57.8769 74.5394 62.5743C67.5092 67.2717 62.0299 73.9484 58.7942 81.7599C55.5586 89.5715 54.712 98.1671 56.3615 106.46C58.011 114.752 62.0826 122.37 68.0613 128.348C74.04 134.327 81.6572 138.399 89.9499 140.048C98.2426 141.698 106.838 140.851 114.65 137.616C122.461 134.38 129.138 128.9 133.835 121.87C138.533 114.84 141.04 106.575 141.04 98.1197C141.027 86.7857 136.519 75.9198 128.504 67.9055C120.49 59.8912 109.624 55.3829 98.2901 55.3697Z" fill="#005CCE"/>
</g>
<g opacity="0.03">
<path d="M98.2901 182.14C81.6765 182.14 65.4359 177.214 51.6222 167.984C37.8085 158.754 27.042 145.635 20.6842 130.286C14.3264 114.937 12.663 98.047 15.9041 81.7526C19.1453 65.4582 27.1455 50.4908 38.8931 38.7432C50.6407 26.9956 65.6081 18.9954 81.9025 15.7542C98.1969 12.5131 115.086 14.1765 130.435 20.5343C145.784 26.8921 158.904 37.6586 168.134 51.4723C177.364 65.286 182.29 81.5266 182.29 98.1402C182.261 120.409 173.402 141.758 157.655 157.505C141.908 173.252 120.559 182.111 98.2901 182.14ZM98.2901 53.4102C89.4449 53.4102 80.7983 56.0332 73.4439 60.9476C66.0895 65.8619 60.3577 72.8468 56.9732 81.0189C53.5887 89.191 52.7038 98.1832 54.4301 106.858C56.1565 115.533 60.4166 123.502 66.6718 129.756C72.927 136.009 80.8963 140.268 89.5718 141.992C98.2473 143.717 107.239 142.829 115.411 139.443C123.582 136.057 130.566 130.323 135.478 122.968C140.391 115.613 143.012 106.965 143.01 98.1202C142.997 86.2647 138.281 74.8987 129.897 66.5165C121.513 58.1344 110.146 53.4207 98.2901 53.4102Z" fill="#005CCE"/>
<path d="M93.4199 98.1202L98.29 104.23L103.16 98.1202L98.29 92.0203L93.4199 98.1202Z" fill="#005CCE"/>
</g>
<g opacity="0.04">
<path d="M98.2899 180.17C82.0718 180.17 66.2179 175.361 52.7331 166.35C39.2483 157.34 28.7381 144.534 22.5317 129.55C16.3253 114.566 14.7015 98.079 17.8654 82.1726C21.0294 66.2661 28.8392 51.6551 40.3071 40.1872C51.775 28.7193 66.386 20.9096 82.2924 17.7456C98.1989 14.5816 114.686 16.2054 129.67 22.4118C144.653 28.6182 157.46 39.1284 166.47 52.6132C175.481 66.098 180.29 81.9519 180.29 98.1699C180.253 119.906 171.602 140.742 156.232 156.112C140.862 171.482 120.026 180.133 98.2899 180.17ZM98.2899 51.44C89.0566 51.436 80.0295 54.1704 72.3504 59.2973C64.6712 64.4241 58.6851 71.7131 55.1489 80.2425C51.6127 88.7718 50.6854 98.1581 52.4843 107.215C54.2832 116.271 58.7275 124.59 65.255 131.121C71.7825 137.651 80.1001 142.099 89.1557 143.902C98.2112 145.704 107.598 144.781 116.129 141.249C124.66 137.716 131.951 131.733 137.081 124.056C142.212 116.379 144.95 107.353 144.95 98.12C144.937 85.7472 140.017 73.8846 131.27 65.1339C122.523 56.3831 110.663 51.4585 98.2899 51.44Z" fill="#005CCE"/>
</g>
<g opacity="0.05">
<path d="M98.2898 178.21C82.4495 178.21 66.9649 173.513 53.7941 164.712C40.6234 155.912 30.3581 143.404 24.2963 128.769C18.2344 114.135 16.6484 98.0312 19.7386 82.4953C22.8289 66.9594 30.4568 52.6887 41.6576 41.4879C52.8584 30.2871 67.129 22.6593 82.665 19.569C98.2009 16.4787 114.304 18.0647 128.939 24.1265C143.573 30.1884 156.082 40.4537 164.882 53.6245C173.683 66.7952 178.38 82.2798 178.38 98.1201C178.359 119.355 169.914 139.714 154.899 154.729C139.883 169.744 119.524 178.189 98.2898 178.21ZM98.2898 49.4801C88.6677 49.482 79.2623 52.3373 71.2629 57.6846C63.2636 63.032 57.0296 70.6314 53.3492 79.5217C49.6688 88.4121 48.7074 98.1943 50.5865 107.631C52.4656 117.068 57.1008 125.735 63.9061 132.538C70.7113 139.34 79.3809 143.972 88.8184 145.847C98.256 147.722 108.038 146.757 116.927 143.073C125.815 139.389 133.412 133.152 138.756 125.15C144.1 117.149 146.952 107.742 146.95 98.1201C146.934 85.2213 141.801 72.8558 132.679 63.7369C123.556 54.618 111.189 49.4906 98.2898 49.4801Z" fill="#005CCE"/>
</g>
<g opacity="0.07">
<path d="M98.29 176.24C82.8393 176.24 67.7356 171.658 54.8888 163.074C42.042 154.491 32.0292 142.29 26.1165 128.015C20.2037 113.741 18.6567 98.0334 21.671 82.8796C24.6853 67.7258 32.1255 53.8061 43.0508 42.8808C53.9761 31.9556 67.8957 24.5154 83.0495 21.5011C98.2033 18.4868 113.911 20.0339 128.185 25.9466C142.46 31.8593 154.66 41.8721 163.244 54.7189C171.828 67.5657 176.41 82.6694 176.41 98.12C176.386 118.831 168.148 138.688 153.503 153.333C138.858 167.978 119.001 176.216 98.29 176.24ZM98.29 47.5101C88.2824 47.5199 78.5023 50.4965 70.1862 56.0636C61.87 61.6307 55.3909 69.5384 51.5681 78.787C47.7452 88.0357 46.7501 98.2101 48.7085 108.024C50.6669 117.838 55.491 126.851 62.5709 133.924C69.6508 140.997 78.6688 145.812 88.4848 147.761C98.3008 149.71 108.474 148.705 117.719 144.873C126.964 141.041 134.865 134.554 140.424 126.232C145.983 117.911 148.95 108.128 148.95 98.12C148.931 84.6945 143.587 71.8248 134.089 62.3362C124.59 52.8475 111.716 47.5153 98.29 47.5101Z" fill="#005CCE"/>
</g>
<g opacity="0.08">
<path d="M98.29 174.28C83.2269 174.28 68.5021 169.813 55.9777 161.445C43.4533 153.076 33.6917 141.182 27.9273 127.265C22.1629 113.349 20.6546 98.0355 23.5933 83.2619C26.5319 68.4883 33.7855 54.9179 44.4367 44.2667C55.0879 33.6155 68.6583 26.362 83.4319 23.4234C98.2055 20.4847 113.519 21.9929 127.435 27.7573C141.352 33.5217 153.246 43.2833 161.615 55.8078C169.983 68.3322 174.45 83.057 174.45 98.12C174.429 118.312 166.398 137.672 152.12 151.95C137.842 166.228 118.482 174.259 98.29 174.28ZM98.29 45.55C87.8902 45.55 77.724 48.634 69.077 54.412C60.43 60.19 53.6908 68.4025 49.7114 78.0108C45.732 87.6191 44.6914 98.1917 46.721 108.392C48.7506 118.591 53.7594 127.96 61.1138 135.313C68.4683 142.666 77.838 147.673 88.0382 149.701C98.2384 151.729 108.811 150.686 118.418 146.705C128.026 142.724 136.237 135.983 142.013 127.335C147.79 118.687 150.872 108.52 150.87 98.12C150.854 84.1807 145.309 70.8171 135.451 60.9614C125.594 51.1058 112.229 45.5632 98.29 45.55Z" fill="#005CCE"/>
</g>
<g opacity="0.1">
<path d="M98.2901 172.31C83.6167 172.31 69.2729 167.959 57.0724 159.807C44.8719 151.655 35.3627 140.068 29.7475 126.511C24.1322 112.955 22.663 98.0377 25.5257 83.6462C28.3883 69.2548 35.4542 56.0354 45.8299 45.6597C56.2055 35.284 69.4249 28.2181 83.8164 25.3555C98.2078 22.4929 113.125 23.9621 126.681 29.5774C140.238 35.1926 151.825 44.7017 159.977 56.9022C168.129 69.1027 172.48 83.4466 172.48 98.12C172.459 117.79 164.636 136.648 150.727 150.557C136.818 164.466 117.96 172.289 98.2901 172.31ZM98.2901 43.58C87.5032 43.58 76.9584 46.7787 67.9893 52.7716C59.0202 58.7646 52.0297 67.2826 47.9017 77.2484C43.7737 87.2143 42.6936 98.1805 44.7981 108.76C46.9025 119.34 52.097 129.058 59.7245 136.686C67.3521 144.313 77.0702 149.508 87.6499 151.612C98.2296 153.716 109.196 152.636 119.162 148.508C129.128 144.38 137.646 137.39 143.638 128.421C149.631 119.452 152.83 108.907 152.83 98.12C152.812 83.6607 147.059 69.799 136.835 59.5748C126.611 49.3506 112.749 43.5985 98.2901 43.58Z" fill="#005CCE"/>
</g>
<g opacity="0.13">
<path d="M98.2899 170.35C84.0041 170.35 70.0392 166.113 58.161 158.177C46.2829 150.24 37.0249 138.959 31.558 125.761C26.0911 112.563 24.6607 98.0395 27.4477 84.0283C30.2347 70.017 37.114 57.1469 47.2156 47.0453C57.3171 36.9438 70.1872 30.0646 84.1985 27.2776C98.2097 24.4906 112.733 25.9209 125.931 31.3879C139.129 36.8548 150.41 46.1127 158.347 57.9908C166.284 69.869 170.52 83.8339 170.52 98.1197C170.499 117.27 162.882 135.629 149.341 149.171C135.8 162.712 117.44 170.328 98.2899 170.35ZM98.2899 41.6197C87.1128 41.6197 76.1868 44.9342 66.8935 51.144C57.6003 57.3539 50.3573 66.1801 46.0805 76.5066C41.8037 86.833 40.6852 98.1957 42.8664 109.158C45.0477 120.12 50.4307 130.189 58.3348 138.092C66.2389 145.995 76.3089 151.376 87.2715 153.555C98.234 155.734 109.597 154.614 119.922 150.335C130.248 146.057 139.073 138.812 145.281 129.518C151.489 120.223 154.802 109.297 154.8 98.1197C154.784 83.1381 148.825 68.7748 138.23 58.1822C127.636 47.5895 113.271 41.6329 98.2899 41.6197Z" fill="#005CCE"/>
</g>
</svg>
