<svg width="280" height="80" viewBox="0 0 280 80" fill="none" xmlns="http://www.w3.org/2000/svg">
<path d="M239.99 79.07H39.67C29.2205 79.07 19.1989 74.9189 11.81 67.53C4.42106 60.141 0.27002 50.1195 0.27002 39.67C0.27002 29.2205 4.42106 19.1989 11.81 11.81C19.1989 4.42106 29.2205 0.27002 39.67 0.27002H239.99C250.44 0.27002 260.461 4.42106 267.85 11.81C275.239 19.1989 279.39 29.2205 279.39 39.67C279.39 50.1195 275.239 60.141 267.85 67.53C260.461 74.9189 250.44 79.07 239.99 79.07ZM39.67 7.27997C31.0797 7.27997 22.8411 10.6925 16.7668 16.7668C10.6925 22.8411 7.28003 31.0796 7.28003 39.67C7.28003 48.2603 10.6925 56.4989 16.7668 62.5732C22.8411 68.6475 31.0797 72.06 39.67 72.06H239.99C248.58 72.06 256.819 68.6475 262.893 62.5732C268.967 56.4989 272.38 48.2603 272.38 39.67C272.38 31.0796 268.967 22.8411 262.893 16.7668C256.819 10.6925 248.58 7.27997 239.99 7.27997H39.67Z" fill="#0072FF"/>
<path d="M239.99 76.73H39.6699C29.8409 76.73 20.4146 72.8255 13.4645 65.8754C6.51438 58.9253 2.60986 49.4989 2.60986 39.67C2.60986 29.8411 6.51438 20.4147 13.4645 13.4646C20.4146 6.5145 29.8409 2.60999 39.6699 2.60999H239.99C249.819 2.60999 259.245 6.5145 266.195 13.4646C273.145 20.4147 277.05 29.8411 277.05 39.67C277.05 49.4989 273.145 58.9253 266.195 65.8754C259.245 72.8255 249.819 76.73 239.99 76.73ZM39.6699 4.94C30.4589 4.94 21.6252 8.59904 15.1121 15.1122C8.59892 21.6253 4.93988 30.459 4.93988 39.67C4.93988 48.881 8.59892 57.7146 15.1121 64.2278C21.6252 70.7409 30.4589 74.4 39.6699 74.4H239.99C249.201 74.4 258.035 70.7409 264.548 64.2278C271.061 57.7146 274.72 48.881 274.72 39.67C274.72 30.459 271.061 21.6253 264.548 15.1122C258.035 8.59904 249.201 4.94 239.99 4.94H39.6699Z" fill="white"/>
</svg>
