<svg width="590" height="80" viewBox="0 0 590 80" fill="none" xmlns="http://www.w3.org/2000/svg">
<path d="M549.99 79.07H39.67C29.2205 79.07 19.1989 74.919 11.81 67.53C4.42106 60.1411 0.27002 50.1196 0.27002 39.67C0.27002 29.2205 4.42106 19.1989 11.81 11.81C19.1989 4.42106 29.2205 0.27002 39.67 0.27002H549.99C560.44 0.27002 570.461 4.42106 577.85 11.81C585.239 19.1989 589.39 29.2205 589.39 39.67C589.39 50.1196 585.239 60.1411 577.85 67.53C570.461 74.919 560.44 79.07 549.99 79.07ZM39.67 7.28003C31.0796 7.28003 22.8411 10.6925 16.7668 16.7668C10.6925 22.8411 7.27997 31.0797 7.27997 39.67C7.27997 48.2604 10.6925 56.4989 16.7668 62.5732C22.8411 68.6475 31.0796 72.06 39.67 72.06H549.99C558.58 72.06 566.819 68.6475 572.893 62.5732C578.967 56.4989 582.38 48.2604 582.38 39.67C582.38 31.0797 578.967 22.8411 572.893 16.7668C566.819 10.6925 558.58 7.28003 549.99 7.28003H39.67Z" fill="#0072FF"/>
<path d="M549.99 76.73H39.6699C29.8409 76.73 20.4146 72.8255 13.4645 65.8754C6.51438 58.9253 2.60986 49.499 2.60986 39.67C2.60986 29.8411 6.51438 20.4148 13.4645 13.4647C20.4146 6.51456 29.8409 2.60999 39.6699 2.60999H549.99C559.819 2.60999 569.245 6.51456 576.195 13.4647C583.145 20.4148 587.05 29.8411 587.05 39.67C587.05 49.499 583.145 58.9253 576.195 65.8754C569.245 72.8255 559.819 76.73 549.99 76.73ZM39.6699 4.94C30.4589 4.94 21.6252 8.59904 15.1121 15.1122C8.59892 21.6253 4.93988 30.4591 4.93988 39.67C4.93988 48.881 8.59892 57.7147 15.1121 64.2278C21.6252 70.741 30.4589 74.4 39.6699 74.4H549.99C559.201 74.4 568.035 70.741 574.548 64.2278C581.061 57.7147 584.72 48.881 584.72 39.67C584.72 30.4591 581.061 21.6253 574.548 15.1122C568.035 8.59904 559.201 4.94 549.99 4.94H39.6699Z" fill="white"/>
</svg>
