<svg width="52" height="51" viewBox="0 0 52 51" fill="none" xmlns="http://www.w3.org/2000/svg">
<path fill-rule="evenodd" clip-rule="evenodd" d="M25.9297 0C30.9154 3.92234e-07 35.7891 1.47829 39.9346 4.24796C44.0802 7.01762 47.3114 10.9543 49.2198 15.5602C51.1282 20.1662 51.628 25.2346 50.6561 30.1245C49.6841 35.0145 47.2841 39.5066 43.7595 43.0326C40.2348 46.5587 35.7437 48.9605 30.8541 49.9344C25.9645 50.9082 20.8959 50.4104 16.2892 48.5039C11.6825 46.5973 7.74458 43.3676 4.97327 39.2232C2.20195 35.0788 0.721704 30.2056 0.719727 25.22C0.719727 18.5339 3.37578 12.1216 8.10358 7.39384C12.8314 2.66604 19.2436 0.0100021 25.9297 0.0100021V0Z" fill="url(#paint0_radial_55_3)"/>
<path fill-rule="evenodd" clip-rule="evenodd" d="M25.9302 6.05996C27.6181 6.05808 29.299 6.2766 30.9302 6.70996L32.5903 0.48996C36.9044 1.66718 40.8371 3.9489 44.0002 7.10996L39.4502 11.67C41.8424 14.0405 43.567 17.0001 44.4502 20.25L50.6602 18.58C51.8334 22.9187 51.8334 27.4912 50.6602 31.83L44.4502 30.16C43.5695 33.4138 41.8446 36.3772 39.4502 38.75L44.0002 43.3C40.8275 46.4794 36.8704 48.7633 32.5303 49.92L30.8702 43.71C27.6186 44.5633 24.2019 44.5633 20.9502 43.71L19.2902 49.92C14.95 48.7633 10.993 46.4794 7.82024 43.3L12.3702 38.75C9.97772 36.3757 8.25315 33.4129 7.37023 30.16L1.15026 31.83C-0.00972068 27.4895 -0.00972068 22.9205 1.15026 18.58L7.43022 20.22C8.31344 16.9701 10.0381 14.0105 12.4302 11.64L7.88024 7.07996C11.0602 3.90993 15.0146 1.6276 19.3502 0.459961L21.0002 6.70996C22.6312 6.27524 24.3123 6.0567 26.0002 6.05996H25.9302Z" fill="url(#paint1_radial_55_3)"/>
<path fill-rule="evenodd" clip-rule="evenodd" d="M35.23 32.97C36.0699 29.0599 37.108 25.1949 38.34 21.39C37.7756 21.2501 37.1795 21.3226 36.665 21.5936C36.1506 21.8647 35.7537 22.3154 35.55 22.86C35.4047 23.2364 35.3766 23.6479 35.4694 24.0406C35.5622 24.4332 35.7715 24.7886 36.07 25.06C33.52 29.43 28.07 27.62 27.18 20.49C27.6087 20.2191 27.9378 19.8163 28.1177 19.3422C28.2977 18.8681 28.3187 18.3483 28.1777 17.8612C28.0367 17.3741 27.7413 16.946 27.3359 16.6413C26.9305 16.3366 26.4371 16.1719 25.93 16.1719C25.4229 16.1719 24.9295 16.3366 24.5241 16.6413C24.1187 16.946 23.8233 17.3741 23.6823 17.8612C23.5412 18.3483 23.5623 18.8681 23.7422 19.3422C23.9222 19.8163 24.2513 20.2191 24.68 20.49C23.79 27.62 18.34 29.43 15.79 25.06C16.0884 24.7886 16.2978 24.4332 16.3906 24.0406C16.4834 23.6479 16.4553 23.2364 16.31 22.86C16.1044 22.3167 15.7073 21.8674 15.1934 21.5966C14.6795 21.3259 14.0843 21.2524 13.52 21.39C14.7521 25.1949 15.7901 29.0599 16.63 32.97C16.63 34.66 35.23 34.66 35.23 32.97Z" fill="url(#paint2_radial_55_3)"/>
<defs>
<radialGradient id="paint0_radial_55_3" cx="0" cy="0" r="1" gradientUnits="userSpaceOnUse" gradientTransform="translate(25.9297 25.21) scale(25.21 25.21)">
<stop offset="0.48" stop-color="#0095FF"/>
<stop offset="0.8" stop-color="#B5FFFF"/>
<stop offset="0.83" stop-color="#86F9FF"/>
<stop offset="0.89" stop-color="#3EEFFF"/>
<stop offset="0.93" stop-color="#11E8FF"/>
<stop offset="0.95" stop-color="#00E6FF"/>
<stop offset="0.96" stop-color="#03E6FF"/>
<stop offset="0.97" stop-color="#1DEAFF"/>
<stop offset="0.98" stop-color="#34EDFF"/>
<stop offset="0.99" stop-color="#77F6FF"/>
<stop offset="1" stop-color="#B5FFFF"/>
</radialGradient>
<radialGradient id="paint1_radial_55_3" cx="0" cy="0" r="1" gradientUnits="userSpaceOnUse" gradientTransform="translate(10.2902 4.23996) scale(52.0899 52.09)">
<stop stop-color="#113DAD"/>
<stop offset="1" stop-color="#0B1B54"/>
</radialGradient>
<radialGradient id="paint2_radial_55_3" cx="0" cy="0" r="1" gradientUnits="userSpaceOnUse" gradientTransform="translate(22.62 15.96) scale(24.1 24.1)">
<stop stop-color="#BFFFFF"/>
<stop offset="0.11" stop-color="#B9FFFF"/>
<stop offset="0.26" stop-color="#A9FFFF"/>
<stop offset="0.43" stop-color="#8EFFFF"/>
<stop offset="0.61" stop-color="#68FFFF"/>
<stop offset="0.81" stop-color="#38FFFF"/>
<stop offset="1" stop-color="#00FFFF"/>
</radialGradient>
</defs>
</svg>
