<svg width="495" height="113" viewBox="0 0 495 113" fill="none" xmlns="http://www.w3.org/2000/svg">
<g style="mix-blend-mode:screen">
<path d="M439.05 87.13H56.6801C48.5768 87.13 40.8053 83.9117 35.0745 78.1827C29.3437 72.4538 26.1228 64.6833 26.1201 56.58C26.1175 52.5651 26.906 48.5891 28.4406 44.8791C29.9752 41.169 32.2258 37.7978 35.0639 34.9579C37.9019 32.118 41.2717 29.8652 44.9807 28.3282C48.6897 26.7911 52.6652 26 56.6801 26H439.05C443.063 26 447.036 26.7905 450.743 28.3264C454.451 29.8623 457.819 32.1135 460.656 34.9514C463.493 37.7893 465.743 41.1583 467.278 44.866C468.812 48.5736 469.601 52.5473 469.6 56.56C469.603 60.5736 468.815 64.5483 467.28 68.2571C465.746 71.9659 463.496 75.3361 460.659 78.175C457.822 81.014 454.454 83.2661 450.746 84.8026C447.038 86.3391 443.064 87.13 439.05 87.13Z" fill="url(#paint0_linear_7_4329)"/>
</g>
<g opacity="0.01">
<path d="M439.05 108H56.6801C49.8665 108.095 43.102 106.835 36.7795 104.293C30.4571 101.752 24.7028 97.9789 19.8509 93.1942C14.999 88.4095 11.1464 82.7083 8.51674 76.4219C5.88711 70.1355 4.53296 63.3892 4.53296 56.575C4.53296 49.7608 5.88711 43.0145 8.51674 36.7281C11.1464 30.4417 14.999 24.7405 19.8509 19.9559C24.7028 15.1712 30.4571 11.3984 36.7795 8.85667C43.102 6.31495 49.8665 5.055 56.6801 5.15002H439.05C445.864 5.055 452.628 6.31495 458.951 8.85667C465.273 11.3984 471.027 15.1712 475.879 19.9559C480.731 24.7405 484.584 30.4417 487.213 36.7281C489.843 43.0145 491.197 49.7608 491.197 56.575C491.197 63.3892 489.843 70.1355 487.213 76.4219C484.584 82.7083 480.731 88.4095 475.879 93.1942C471.027 97.9789 465.273 101.752 458.951 104.293C452.628 106.835 445.864 108.095 439.05 108ZM56.6801 46.9C54.1128 46.9 51.6506 47.9199 49.8353 49.7352C48.0199 51.5506 47.0001 54.0127 47.0001 56.58C47.0001 59.1473 48.0199 61.6095 49.8353 63.4248C51.6506 65.2402 54.1128 66.26 56.6801 66.26H439.05C441.617 66.26 444.08 65.2402 445.895 63.4248C447.71 61.6095 448.73 59.1473 448.73 56.58C448.73 54.0127 447.71 51.5506 445.895 49.7352C444.08 47.9199 441.617 46.9 439.05 46.9H56.6801Z" fill="#0000DF"/>
</g>
<g opacity="0.01">
<path d="M439.05 106.51H56.6801C50.0631 106.604 43.4934 105.381 37.353 102.914C31.2125 100.446 25.6237 96.7831 20.9113 92.1369C16.1989 87.4907 12.4569 81.9543 9.9028 75.8493C7.34871 69.7444 6.03345 63.1927 6.03345 56.575C6.03345 49.9573 7.34871 43.4056 9.9028 37.3007C12.4569 31.1958 16.1989 25.6593 20.9113 21.0131C25.6237 16.367 31.2125 12.7037 37.353 10.2362C43.4934 7.76879 50.0631 6.54637 56.6801 6.64001H439.05C445.667 6.54637 452.237 7.76879 458.377 10.2362C464.518 12.7037 470.107 16.367 474.819 21.0131C479.531 25.6593 483.273 31.1958 485.827 37.3007C488.382 43.4056 489.697 49.9573 489.697 56.575C489.697 63.1927 488.382 69.7444 485.827 75.8493C483.273 81.9543 479.531 87.4907 474.819 92.1369C470.107 96.7831 464.518 100.446 458.377 102.914C452.237 105.381 445.667 106.604 439.05 106.51ZM56.6801 45.41C55.2132 45.41 53.7607 45.6989 52.4055 46.2603C51.0503 46.8216 49.819 47.6444 48.7817 48.6816C47.7445 49.7189 46.9217 50.9502 46.3604 52.3054C45.799 53.6606 45.5101 55.1131 45.5101 56.58C45.5101 58.0469 45.799 59.4994 46.3604 60.8546C46.9217 62.2098 47.7445 63.4412 48.7817 64.4784C49.819 65.5156 51.0503 66.3384 52.4055 66.8997C53.7607 67.4611 55.2132 67.75 56.6801 67.75H439.05C442.013 67.75 444.854 66.5732 446.948 64.4784C449.043 62.3836 450.22 59.5425 450.22 56.58C450.22 53.6175 449.043 50.7764 446.948 48.6816C444.854 46.5868 442.013 45.41 439.05 45.41H56.6801Z" fill="#0000DF"/>
</g>
<g opacity="0.01">
<path d="M439.05 105H56.68C50.2595 105.092 43.8848 103.907 37.9263 101.514C31.9678 99.1209 26.5445 95.5672 21.9716 91.0595C17.3987 86.5518 13.7674 81.1801 11.2889 75.2566C8.81031 69.3332 7.53394 62.9761 7.53394 56.555C7.53394 50.1339 8.81031 43.7768 11.2889 37.8533C13.7674 31.9298 17.3987 26.5581 21.9716 22.0504C26.5445 17.5428 31.9678 13.989 37.9263 11.5958C43.8848 9.20265 50.2595 8.01773 56.68 8.10998H439.05C445.47 8.01773 451.845 9.20265 457.804 11.5958C463.762 13.989 469.185 17.5428 473.758 22.0504C478.331 26.5581 481.963 31.9298 484.441 37.8533C486.92 43.7768 488.196 50.1339 488.196 56.555C488.196 62.9761 486.92 69.3332 484.441 75.2566C481.963 81.1801 478.331 86.5518 473.758 91.0595C469.185 95.5672 463.762 99.1209 457.804 101.514C451.845 103.907 445.47 105.092 439.05 105ZM56.68 43.92C53.3223 43.92 50.1022 45.2538 47.728 47.628C45.3538 50.0022 44.02 53.2223 44.02 56.58C44.02 59.9376 45.3538 63.1577 47.728 65.532C50.1022 67.9062 53.3223 69.24 56.68 69.24H439.05C442.408 69.24 445.628 67.9062 448.002 65.532C450.376 63.1577 451.71 59.9376 451.71 56.58C451.71 53.2223 450.376 50.0022 448.002 47.628C445.628 45.2538 442.408 43.92 439.05 43.92H56.68Z" fill="#0000DF"/>
</g>
<g opacity="0.02">
<path d="M439.05 103.53H56.68C50.3408 103.808 44.0111 102.799 38.0723 100.564C32.1335 98.3296 26.7087 94.9157 22.1249 90.5282C17.541 86.1406 13.893 80.8704 11.4008 75.0351C8.90861 69.1997 7.62378 62.9202 7.62378 56.575C7.62378 50.2297 8.90861 43.9502 11.4008 38.1148C13.893 32.2795 17.541 27.0093 22.1249 22.6217C26.7087 18.2342 32.1335 14.8203 38.0723 12.5858C44.0111 10.3512 50.3408 9.34236 56.68 9.61995H439.05C451.148 10.1497 462.574 15.3283 470.947 24.076C479.32 32.8238 483.994 44.4658 483.994 56.575C483.994 68.6841 479.32 80.3261 470.947 89.0739C462.574 97.8216 451.148 103 439.05 103.53ZM56.68 42.42C54.7895 42.3697 52.908 42.6987 51.1467 43.3874C49.3854 44.0762 47.7799 45.1108 46.425 46.4302C45.0701 47.7496 43.9932 49.327 43.2579 51.0694C42.5226 52.8117 42.1437 54.6838 42.1437 56.575C42.1437 58.4661 42.5226 60.3382 43.2579 62.0806C43.9932 63.8229 45.0701 65.4004 46.425 66.7197C47.7799 68.0391 49.3854 69.0737 51.1467 69.7625C52.908 70.4512 54.7895 70.7802 56.68 70.73H439.05C442.739 70.6319 446.244 69.0975 448.819 66.4537C451.393 63.8098 452.834 60.2653 452.834 56.575C452.834 52.8846 451.393 49.3401 448.819 46.6963C446.244 44.0524 442.739 42.518 439.05 42.42H56.68Z" fill="#0000DF"/>
</g>
<g opacity="0.02">
<path d="M439.05 102H56.6799C50.6527 102.089 44.6677 100.979 39.0733 98.7347C33.4789 96.49 28.3867 93.1553 24.0928 88.9246C19.7989 84.6939 16.3891 79.6517 14.0616 74.0912C11.7342 68.5307 10.5356 62.5629 10.5356 56.5349C10.5356 50.507 11.7342 44.5392 14.0616 38.9787C16.3891 33.4182 19.7989 28.376 24.0928 24.1453C28.3867 19.9146 33.4789 16.5799 39.0733 14.3352C44.6677 12.0905 50.6527 10.9806 56.6799 11.0699H439.05C450.991 11.247 462.383 16.115 470.765 24.6221C479.147 33.1292 483.846 44.5923 483.846 56.5349C483.846 68.4775 479.147 79.9407 470.765 88.4478C462.383 96.9549 450.991 101.823 439.05 102ZM56.6799 40.9299C54.5921 40.8772 52.5149 41.2428 50.5706 42.0053C48.6263 42.7678 46.8542 43.9117 45.3589 45.3697C43.8636 46.8277 42.6752 48.5703 41.8638 50.4947C41.0524 52.4191 40.6344 54.4865 40.6344 56.5749C40.6344 58.6634 41.0524 60.7308 41.8638 62.6552C42.6752 64.5796 43.8636 66.3222 45.3589 67.7801C46.8542 69.2381 48.6263 70.3821 50.5706 71.1446C52.5149 71.9071 54.5921 72.2727 56.6799 72.2199H439.05C443.131 72.1168 447.01 70.4232 449.86 67.5004C452.709 64.5777 454.304 60.6571 454.304 56.5749C454.304 52.4928 452.709 48.5722 449.86 45.6495C447.01 42.7267 443.131 41.0331 439.05 40.9299H56.6799Z" fill="#0000DF"/>
</g>
<g opacity="0.03">
<path d="M439.05 100.55H56.68C50.7691 100.768 44.8748 99.7926 39.3496 97.6812C33.8243 95.5699 28.7815 92.3662 24.5225 88.2617C20.2635 84.1571 16.8758 79.236 14.5619 73.7925C12.248 68.3489 11.0554 62.4948 11.0554 56.5798C11.0554 50.6649 12.248 44.8107 14.5619 39.3672C16.8758 33.9236 20.2635 29.0025 24.5225 24.898C28.7815 20.7934 33.8243 17.5898 39.3496 15.4784C44.8748 13.3671 50.7691 12.3915 56.68 12.6098H439.05C444.961 12.3915 450.855 13.3671 456.38 15.4784C461.906 17.5898 466.948 20.7934 471.207 24.898C475.466 29.0025 478.854 33.9236 481.168 39.3672C483.482 44.8107 484.674 50.6649 484.674 56.5798C484.674 62.4948 483.482 68.3489 481.168 73.7925C478.854 79.236 475.466 84.1571 471.207 88.2617C466.948 92.3662 461.906 95.5699 456.38 97.6812C450.855 99.7926 444.961 100.768 439.05 100.55ZM56.68 39.4398C54.3949 39.3846 52.1219 39.787 49.9947 40.6233C47.8675 41.4596 45.9291 42.7129 44.2934 44.3095C42.6578 45.9061 41.358 47.8138 40.4706 49.9201C39.5831 52.0265 39.126 54.2891 39.126 56.5748C39.126 58.8605 39.5831 61.1231 40.4706 63.2295C41.358 65.3359 42.6578 67.2435 44.2934 68.8401C45.9291 70.4367 47.8675 71.6901 49.9947 72.5264C52.1219 73.3627 54.3949 73.765 56.68 73.7098H439.05C441.335 73.765 443.608 73.3627 445.735 72.5264C447.862 71.6901 449.801 70.4367 451.436 68.8401C453.072 67.2435 454.372 65.3359 455.259 63.2295C456.147 61.1231 456.604 58.8605 456.604 56.5748C456.604 54.2891 456.147 52.0265 455.259 49.9201C454.372 47.8138 453.072 45.9061 451.436 44.3095C449.801 42.7129 447.862 41.4596 445.735 40.6233C443.608 39.787 441.335 39.3846 439.05 39.4398H56.68Z" fill="#0000DF"/>
</g>
<g opacity="0.03">
<path d="M439.05 99.0598H56.6799C51.0988 99.0598 45.5722 97.9605 40.4159 95.8247C35.2596 93.6889 30.5744 90.5584 26.6279 86.6119C22.6814 82.6654 19.5509 77.9802 17.4151 72.8239C15.2792 67.6675 14.1799 62.141 14.1799 56.5598C14.1799 50.9786 15.2792 45.4521 17.4151 40.2958C19.5509 35.1394 22.6814 30.4543 26.6279 26.5078C30.5744 22.5613 35.2596 19.4308 40.4159 17.2949C45.5722 15.1591 51.0988 14.0598 56.6799 14.0598H439.05C444.631 14.0598 450.158 15.1591 455.314 17.2949C460.47 19.4308 465.155 22.5613 469.102 26.5078C473.048 30.4543 476.179 35.1394 478.315 40.2958C480.451 45.4521 481.55 50.9786 481.55 56.5598C481.55 62.141 480.451 67.6675 478.315 72.8239C476.179 77.9802 473.048 82.6654 469.102 86.6119C465.155 90.5584 460.47 93.6889 455.314 95.8247C450.158 97.9605 444.631 99.0598 439.05 99.0598ZM56.6799 37.9998C54.1978 37.9423 51.7291 38.3815 49.4191 39.2917C47.1091 40.2018 45.0043 41.5645 43.2284 43.2997C41.4526 45.0349 40.0415 47.1075 39.078 49.3958C38.1146 51.6842 37.6183 54.142 37.6183 56.6248C37.6183 59.1077 38.1146 61.5655 39.078 63.8538C40.0415 66.1421 41.4526 68.2147 43.2284 69.9499C45.0043 71.6851 47.1091 73.0478 49.4191 73.958C51.7291 74.8681 54.1978 75.3073 56.6799 75.2498H439.05C441.532 75.3073 444.001 74.8681 446.311 73.958C448.621 73.0478 450.726 71.6851 452.501 69.9499C454.277 68.2147 455.688 66.1421 456.652 63.8538C457.615 61.5655 458.112 59.1077 458.112 56.6248C458.112 54.142 457.615 51.6842 456.652 49.3958C455.688 47.1075 454.277 45.0349 452.501 43.2997C450.726 41.5645 448.621 40.2018 446.311 39.2917C444.001 38.3815 441.532 37.9423 439.05 37.9998H56.6799Z" fill="#0000DF"/>
</g>
<g opacity="0.04">
<path d="M439.05 97.5698H56.6799C45.8061 97.5698 35.3775 93.2502 27.6886 85.5612C19.9996 77.8722 15.6799 67.4437 15.6799 56.5698C15.6799 45.6959 19.9996 35.2674 27.6886 27.5784C35.3775 19.8895 45.8061 15.5698 56.6799 15.5698H439.05C449.924 15.5698 460.352 19.8895 468.041 27.5784C475.73 35.2674 480.05 45.6959 480.05 56.5698C480.05 67.4437 475.73 77.8722 468.041 85.5612C460.352 93.2502 449.924 97.5698 439.05 97.5698ZM56.6799 36.4598C54.0007 36.4001 51.3364 36.8762 48.8437 37.8602C46.3509 38.8443 44.0799 40.3164 42.1639 42.1901C40.2479 44.0639 38.7255 46.3016 37.6862 48.7718C36.6468 51.2419 36.1114 53.8949 36.1114 56.5748C36.1114 59.2548 36.6468 61.9077 37.6862 64.3779C38.7255 66.8481 40.2479 69.0858 42.1639 70.9595C44.0799 72.8333 46.3509 74.3054 48.8437 75.2894C51.3364 76.2735 54.0007 76.7496 56.6799 76.6898H439.05C441.729 76.7496 444.393 76.2735 446.886 75.2894C449.379 74.3054 451.65 72.8333 453.566 70.9595C455.482 69.0858 457.004 66.8481 458.044 64.3779C459.083 61.9077 459.618 59.2548 459.618 56.5748C459.618 53.8949 459.083 51.2419 458.044 48.7718C457.004 46.3016 455.482 44.0639 453.566 42.1901C451.65 40.3164 449.379 38.8443 446.886 37.8602C444.393 36.8762 441.729 36.4001 439.05 36.4598H56.6799Z" fill="#0000DF"/>
</g>
<g opacity="0.05">
<path d="M439.05 96.0798H56.6799C46.2039 96.0798 36.1569 91.9182 28.7492 84.5106C21.3415 77.1029 17.1799 67.0559 17.1799 56.5798C17.1799 46.1038 21.3415 36.0568 28.7492 28.6491C36.1569 21.2414 46.2039 17.0798 56.6799 17.0798H439.05C449.526 17.0798 459.573 21.2414 466.981 28.6491C474.388 36.0568 478.55 46.1038 478.55 56.5798C478.55 67.0559 474.388 77.1029 466.981 84.5106C459.573 91.9182 449.526 96.0798 439.05 96.0798ZM56.6799 34.9998C53.8036 34.9379 50.9439 35.451 48.2685 36.509C45.5931 37.5669 43.1559 39.1484 41.0998 41.1608C39.0437 43.1731 37.4101 45.5758 36.2948 48.2278C35.1796 50.8798 34.6051 53.7278 34.6051 56.6048C34.6051 59.4818 35.1796 62.3298 36.2948 64.9819C37.4101 67.6339 39.0437 70.0365 41.0998 72.0489C43.1559 74.0612 45.5931 75.6427 48.2685 76.7007C50.9439 77.7586 53.8036 78.2717 56.6799 78.2098H439.05C441.926 78.2717 444.786 77.7586 447.461 76.7007C450.137 75.6427 452.574 74.0612 454.63 72.0489C456.686 70.0365 458.32 67.6339 459.435 64.9819C460.55 62.3298 461.125 59.4818 461.125 56.6048C461.125 53.7278 460.55 50.8798 459.435 48.2278C458.32 45.5758 456.686 43.1731 454.63 41.1608C452.574 39.1484 450.137 37.5669 447.461 36.509C444.786 35.451 441.926 34.9379 439.05 34.9998H56.6799Z" fill="#0000DF"/>
</g>
<g opacity="0.06">
<path d="M439.05 94.5898H56.6799C46.6017 94.5898 36.9363 90.5863 29.8099 83.4599C22.6835 76.3335 18.6799 66.6681 18.6799 56.5898C18.6799 46.5116 22.6835 36.8462 29.8099 29.7198C36.9363 22.5934 46.6017 18.5898 56.6799 18.5898H439.05C449.128 18.5898 458.794 22.5934 465.92 29.7198C473.046 36.8462 477.05 46.5116 477.05 56.5898C477.05 66.6681 473.046 76.3335 465.92 83.4599C458.794 90.5863 449.128 94.5898 439.05 94.5898ZM56.6799 33.4798C50.5534 33.4798 44.6779 35.9136 40.3458 40.2457C36.0137 44.5778 33.5799 50.4533 33.5799 56.5798C33.5799 62.7063 36.0137 68.5819 40.3458 72.914C44.6779 77.2461 50.5534 79.6798 56.6799 79.6798H439.05C445.176 79.6798 451.052 77.2461 455.384 72.914C459.716 68.5819 462.15 62.7063 462.15 56.5798C462.15 50.4533 459.716 44.5778 455.384 40.2457C451.052 35.9136 445.176 33.4798 439.05 33.4798H56.6799Z" fill="#0000DF"/>
</g>
<g opacity="0.08">
<path d="M439.05 93.0898H56.6801C51.7852 93.2519 46.9077 92.4277 42.3378 90.6664C37.7679 88.905 33.5989 86.2425 30.079 82.8371C26.559 79.4318 23.76 75.3532 21.8484 70.8441C19.9368 66.335 18.9517 61.4874 18.9517 56.5898C18.9517 51.6922 19.9368 46.8447 21.8484 42.3355C23.76 37.8264 26.559 33.7479 30.079 30.3425C33.5989 26.9372 37.7679 24.2746 42.3378 22.5133C46.9077 20.7519 51.7852 19.9278 56.6801 20.0898H439.05C443.945 19.9278 448.823 20.7519 453.392 22.5133C457.962 24.2746 462.131 26.9372 465.651 30.3425C469.171 33.7479 471.97 37.8264 473.882 42.3355C475.794 46.8447 476.779 51.6922 476.779 56.5898C476.779 61.4874 475.794 66.335 473.882 70.8441C471.97 75.3532 469.171 79.4318 465.651 82.8371C462.131 86.2425 457.962 88.905 453.392 90.6664C448.823 92.4277 443.945 93.2519 439.05 93.0898ZM56.6801 31.9998C50.1585 31.9998 43.9039 34.5906 39.2924 39.2021C34.6809 43.8136 32.0901 50.0681 32.0901 56.5898C32.0901 63.1115 34.6809 69.3661 39.2924 73.9776C43.9039 78.5891 50.1585 81.1798 56.6801 81.1798H439.05C445.572 81.1798 451.826 78.5891 456.438 73.9776C461.049 69.3661 463.64 63.1115 463.64 56.5898C463.64 50.0681 461.049 43.8136 456.438 39.2021C451.826 34.5906 445.572 31.9998 439.05 31.9998H56.6801Z" fill="#0000DF"/>
</g>
<g opacity="0.15">
<path d="M439.05 91.5999H56.6799C52.0837 91.5999 47.5324 90.6946 43.286 88.9356C39.0396 87.1767 35.1812 84.5986 31.9312 81.3486C28.6811 78.0985 26.1031 74.2402 24.3441 69.9938C22.5852 65.7474 21.6799 61.1961 21.6799 56.5999C21.6799 52.0036 22.5852 47.4523 24.3441 43.2059C26.1031 38.9595 28.6811 35.1012 31.9312 31.8511C35.1812 28.6011 39.0396 26.023 43.286 24.2641C47.5324 22.5052 52.0837 21.5999 56.6799 21.5999H439.05C448.339 21.5999 457.248 25.29 463.816 31.8584C470.385 38.4269 474.075 47.3356 474.075 56.6249C474.075 65.9141 470.385 74.8228 463.816 81.3913C457.248 87.9597 448.339 91.6498 439.05 91.6498V91.5999ZM56.6799 30.4999C49.7631 30.4999 43.1295 33.2476 38.2386 38.1385C33.3476 43.0295 30.5999 49.663 30.5999 56.5799C30.5999 63.4967 33.3476 70.1303 38.2386 75.0212C43.1295 79.9122 49.7631 82.6599 56.6799 82.6599H439.05C445.967 82.6599 452.6 79.9122 457.491 75.0212C462.382 70.1303 465.13 63.4967 465.13 56.5799C465.13 49.663 462.382 43.0295 457.491 38.1385C452.6 33.2476 445.967 30.4999 439.05 30.4999H56.6799Z" fill="#0000DF"/>
</g>
<path d="M439.05 90.1099H56.6802C52.2275 90.1868 47.8042 89.3762 43.6682 87.7254C39.5322 86.0747 35.7663 83.6168 32.5903 80.4951C29.4143 77.3735 26.8917 73.6506 25.1698 69.5438C23.4479 65.4369 22.561 61.0282 22.561 56.5749C22.561 52.1216 23.4479 47.713 25.1698 43.6061C26.8917 39.4992 29.4143 35.7763 32.5903 32.6547C35.7663 29.533 39.5322 27.0751 43.6682 25.4244C47.8042 23.7736 52.2275 22.963 56.6802 23.0399H439.05C443.503 22.963 447.926 23.7736 452.062 25.4244C456.198 27.0751 459.964 29.533 463.14 32.6547C466.316 35.7763 468.839 39.4992 470.56 43.6061C472.282 47.713 473.169 52.1216 473.169 56.5749C473.169 61.0282 472.282 65.4369 470.56 69.5438C468.839 73.6506 466.316 77.3735 463.14 80.4951C459.964 83.6168 456.198 86.0747 452.062 87.7254C447.926 89.3762 443.503 90.1868 439.05 90.1099ZM56.6802 28.9999C53.0596 28.9999 49.4745 29.713 46.1296 31.0986C42.7846 32.4841 39.7453 34.5149 37.1852 37.075C34.6251 39.6351 32.5943 42.6744 31.2088 46.0193C29.8233 49.3643 29.1101 52.9494 29.1101 56.5699C29.1101 60.1905 29.8233 63.7755 31.2088 67.1205C32.5943 70.4654 34.6251 73.5047 37.1852 76.0648C39.7453 78.625 42.7846 80.6557 46.1296 82.0413C49.4745 83.4268 53.0596 84.1399 56.6802 84.1399H439.05C446.362 84.1399 453.375 81.2352 458.545 76.0648C463.715 70.8945 466.62 63.8819 466.62 56.5699C466.62 49.2579 463.715 42.2454 458.545 37.075C453.375 31.9046 446.362 28.9999 439.05 28.9999H56.6802Z" fill="#0000DF"/>
<path d="M439.05 88.1199H56.68C52.4902 88.1945 48.3275 87.4337 44.435 85.8819C40.5424 84.3301 36.998 82.0184 34.0086 79.0818C31.0192 76.1452 28.6448 72.6425 27.024 68.7782C25.4031 64.9139 24.5684 60.7654 24.5684 56.5749C24.5684 52.3844 25.4031 48.2359 27.024 44.3716C28.6448 40.5073 31.0192 37.0046 34.0086 34.068C36.998 31.1314 40.5424 28.8197 44.435 27.2679C48.3275 25.7161 52.4902 24.9553 56.68 25.0299H439.05C443.24 24.9553 447.403 25.7161 451.295 27.2679C455.188 28.8197 458.732 31.1314 461.721 34.068C464.711 37.0046 467.085 40.5073 468.706 44.3716C470.327 48.2359 471.162 52.3844 471.162 56.5749C471.162 60.7654 470.327 64.9139 468.706 68.7782C467.085 72.6425 464.711 76.1452 461.721 79.0818C458.732 82.0184 455.188 84.3301 451.295 85.8819C447.403 87.4337 443.24 88.1945 439.05 88.1199ZM56.68 26.9999C48.8402 26.9999 41.3215 30.1142 35.778 35.6578C30.2344 41.2014 27.12 48.7201 27.12 56.5599C27.12 64.3997 30.2344 71.9184 35.778 77.462C41.3215 83.0056 48.8402 86.1199 56.68 86.1199H439.05C442.932 86.1199 446.776 85.3553 450.362 83.8698C453.949 82.3843 457.207 80.2069 459.952 77.462C462.697 74.7171 464.874 71.4584 466.36 67.872C467.845 64.2856 468.61 60.4418 468.61 56.5599C468.61 52.678 467.845 48.8342 466.36 45.2478C464.874 41.6614 462.697 38.4027 459.952 35.6578C457.207 32.9129 453.949 30.7356 450.362 29.25C446.776 27.7645 442.932 26.9999 439.05 26.9999H56.68Z" fill="white"/>
<defs>
<linearGradient id="paint0_linear_7_4329" x1="247.86" y1="87.13" x2="247.86" y2="26.02" gradientUnits="userSpaceOnUse">
<stop stop-color="#003BDF"/>
<stop offset="0.04" stop-color="#0036CA"/>
<stop offset="0.13" stop-color="#00299B"/>
<stop offset="0.22" stop-color="#001E72"/>
<stop offset="0.32" stop-color="#00154E"/>
<stop offset="0.43" stop-color="#000D32"/>
<stop offset="0.54" stop-color="#00071C"/>
<stop offset="0.66" stop-color="#00030C"/>
<stop offset="0.8" stop-color="#000103"/>
<stop offset="1"/>
</linearGradient>
</defs>
</svg>
