<svg width="699" height="159" viewBox="0 0 699 159" fill="none" xmlns="http://www.w3.org/2000/svg">
<g style="mix-blend-mode:screen">
<path d="M622 122.73H81.95C76.2793 122.737 70.6628 121.625 65.4219 119.46C60.1809 117.294 55.4182 114.117 51.406 110.109C47.3939 106.102 44.211 101.343 42.0394 96.1043C39.8678 90.8658 38.75 85.2507 38.75 79.5799C38.75 73.9087 39.8677 68.2931 42.0392 63.0541C44.2107 57.8151 47.3934 53.0554 51.4054 49.0471C55.4174 45.0388 60.1801 41.8605 65.4211 39.6938C70.6621 37.5272 76.2788 36.4147 81.95 36.4199H622.04C627.707 36.4199 633.319 37.5364 638.555 39.7055C643.791 41.8746 648.548 45.0539 652.555 49.0618C656.562 53.0697 659.74 57.8277 661.908 63.0641C664.076 68.3004 665.191 73.9126 665.19 79.5799C665.19 85.2499 664.073 90.8642 661.902 96.102C659.731 101.34 656.549 106.098 652.538 110.106C648.526 114.113 643.765 117.291 638.525 119.457C633.285 121.623 627.67 122.735 622 122.73Z" fill="url(#paint0_linear_7_4128)"/>
</g>
<g opacity="0.01">
<path d="M622 152.21H81.95C72.3397 152.323 62.8026 150.527 53.8912 146.928C44.9799 143.328 36.8714 137.996 30.0357 131.24C23.2 124.484 17.7729 116.438 14.069 107.57C10.365 98.7014 8.45776 89.186 8.45776 79.5751C8.45776 69.9641 10.365 60.4487 14.069 51.5802C17.7729 42.7117 23.2 34.6664 30.0357 27.9104C36.8714 21.1544 44.9799 15.8221 53.8912 12.2224C62.8026 8.62276 72.3397 6.8273 81.95 6.94006H622.04C641.156 7.16436 659.414 14.9157 672.852 28.513C686.291 42.1104 693.828 60.4574 693.828 79.5751C693.828 98.6928 686.291 117.04 672.852 130.637C659.414 144.234 641.156 151.986 622.04 152.21H622ZM81.95 65.9001C80.1231 65.8507 78.3047 66.1678 76.6024 66.8328C74.9001 67.4978 73.3483 68.4972 72.0386 69.772C70.729 71.0467 69.688 72.5709 68.9772 74.2546C68.2664 75.9384 67.9002 77.7474 67.9002 79.5751C67.9002 81.4027 68.2664 83.2118 68.9772 84.8955C69.688 86.5792 70.729 88.1034 72.0386 89.3782C73.3483 90.6529 74.9001 91.6523 76.6024 92.3173C78.3047 92.9823 80.1231 93.2995 81.95 93.2501H622.04C625.603 93.1537 628.987 91.6707 631.473 89.1166C633.959 86.5626 635.35 83.1392 635.35 79.5751C635.35 76.0109 633.959 72.5875 631.473 70.0335C628.987 67.4794 625.603 65.9964 622.04 65.9001H81.95Z" fill="#0000DF"/>
</g>
<g opacity="0.01">
<path d="M622 150.11H81.95C63.2442 150.11 45.3046 142.679 32.0777 129.452C18.8508 116.225 11.4199 98.2858 11.4199 79.58C11.4199 60.8743 18.8508 42.9348 32.0777 29.7078C45.3046 16.4809 63.2442 9.05005 81.95 9.05005H622.04C640.746 9.05005 658.685 16.4809 671.912 29.7078C685.139 42.9348 692.57 60.8743 692.57 79.58C692.57 98.2858 685.139 116.225 671.912 129.452C658.685 142.679 640.746 150.11 622.04 150.11H622ZM81.95 63.8001C77.7648 63.8001 73.7511 65.4626 70.7918 68.4219C67.8325 71.3812 66.1699 75.3949 66.1699 79.58C66.1699 83.7652 67.8325 87.7789 70.7918 90.7382C73.7511 93.6975 77.7648 95.36 81.95 95.36H622.04C626.225 95.36 630.239 93.6975 633.198 90.7382C636.157 87.7789 637.82 83.7652 637.82 79.58C637.82 75.3949 636.157 71.3812 633.198 68.4219C630.239 65.4626 626.225 63.8001 622.04 63.8001H81.95Z" fill="#0000DF"/>
</g>
<g opacity="0.01">
<path d="M622 148H81.9501C72.8948 148.109 63.9078 146.42 55.5101 143.031C47.1124 139.641 39.471 134.619 33.0289 128.254C26.5867 121.889 21.472 114.309 17.9812 105.953C14.4904 97.5969 12.6929 88.631 12.6929 79.575C12.6929 70.5191 14.4904 61.5532 17.9812 53.197C21.472 44.8409 26.5867 37.2608 33.0289 30.8961C39.471 24.5314 47.1124 19.5087 55.5101 16.1191C63.9078 12.7295 72.8948 11.0405 81.9501 11.15H622.04C640.044 11.3677 657.237 18.6725 669.892 31.4811C682.546 44.2896 689.643 61.5695 689.643 79.575C689.643 97.5805 682.546 114.86 669.892 127.669C657.237 140.478 640.044 147.782 622.04 148H622ZM81.9501 61.69C79.5658 61.6336 77.1943 62.0546 74.9751 62.928C72.7559 63.8015 70.7336 65.1099 69.0274 66.7762C67.3212 68.4426 65.9654 70.4333 65.0397 72.6312C64.114 74.8292 63.6371 77.1901 63.6371 79.575C63.6371 81.96 64.114 84.3208 65.0397 86.5188C65.9654 88.7168 67.3212 90.7075 69.0274 92.3738C70.7336 94.0402 72.7559 95.3486 74.9751 96.222C77.1943 97.0955 79.5658 97.5164 81.9501 97.46H622.04C626.71 97.3496 631.152 95.4168 634.416 92.0747C637.68 88.7327 639.507 84.2465 639.507 79.575C639.507 74.9035 637.68 70.4174 634.416 67.0753C631.152 63.7333 626.71 61.8005 622.04 61.69H81.9501Z" fill="#0000DF"/>
</g>
<g opacity="0.02">
<path d="M622 145.9H81.9499C64.3607 145.9 47.492 138.913 35.0546 126.475C22.6172 114.038 15.6299 97.1692 15.6299 79.58C15.6299 61.9909 22.6172 45.1221 35.0546 32.6847C47.492 20.2473 64.3607 13.26 81.9499 13.26H622.04C639.629 13.26 656.498 20.2473 668.935 32.6847C681.373 45.1221 688.36 61.9909 688.36 79.58C688.36 97.1692 681.373 114.038 668.935 126.475C656.498 138.913 639.629 145.9 622.04 145.9H622ZM81.9499 59.59C76.6456 59.59 71.5585 61.6971 67.8077 65.4479C64.057 69.1986 61.9499 74.2857 61.9499 79.59C61.9499 84.8943 64.057 89.9814 67.8077 93.7321C71.5585 97.4829 76.6456 99.59 81.9499 99.59H622.04C627.344 99.59 632.431 97.4829 636.182 93.7321C639.933 89.9814 642.04 84.8943 642.04 79.59C642.04 74.2857 639.933 69.1986 636.182 65.4479C632.431 61.6971 627.344 59.59 622.04 59.59H81.9499Z" fill="#0000DF"/>
</g>
<g opacity="0.02">
<path d="M622 143.79H81.9501C73.4498 143.896 65.0131 142.313 57.1292 139.134C49.2452 135.954 42.071 131.241 36.0225 125.268C29.9741 119.294 25.1718 112.18 21.8941 104.336C18.6165 96.4922 16.9287 88.0759 16.9287 79.575C16.9287 71.074 18.6165 62.6577 21.8941 54.8141C25.1718 46.9704 29.9741 39.8556 36.0225 33.8821C42.071 27.9087 49.2452 23.1956 57.1292 20.016C65.0131 16.8365 73.4498 15.2539 81.9501 15.36H622.04C638.932 15.5708 655.061 22.4291 666.932 34.4488C678.802 46.4685 685.459 62.6816 685.459 79.575C685.459 96.4684 678.802 112.681 666.932 124.701C655.061 136.721 638.932 143.579 622.04 143.79H622ZM81.9501 57.48C79.009 57.4174 76.0849 57.9427 73.3495 59.0249C70.614 60.1072 68.1222 61.7247 66.02 63.7826C63.9179 65.8405 62.2478 68.2974 61.1075 71.0092C59.9673 73.721 59.38 76.6332 59.38 79.575C59.38 82.5167 59.9673 85.4289 61.1075 88.1407C62.2478 90.8526 63.9179 93.3095 66.02 95.3674C68.1222 97.4253 70.614 99.0428 73.3495 100.125C76.0849 101.207 79.009 101.733 81.9501 101.67H622.04C627.819 101.547 633.319 99.1652 637.362 95.0349C641.406 90.9047 643.67 85.3548 643.67 79.575C643.67 73.7951 641.406 68.2452 637.362 64.115C633.319 59.9848 627.819 57.6029 622.04 57.48H81.9501Z" fill="#0000DF"/>
</g>
<g opacity="0.03">
<path d="M622 141.69H81.9501C65.4775 141.69 49.6796 135.146 38.0317 123.498C26.3838 111.85 19.8401 96.0526 19.8401 79.58C19.8401 63.1074 26.3838 47.3095 38.0317 35.6616C49.6796 24.0137 65.4775 17.47 81.9501 17.47H622.04C638.513 17.47 654.311 24.0137 665.958 35.6616C677.606 47.3095 684.15 63.1074 684.15 79.58C684.15 96.0526 677.606 111.85 665.958 123.498C654.311 135.146 638.513 141.69 622.04 141.69H622ZM81.9501 55.38C75.5318 55.38 69.3765 57.9296 64.8381 62.468C60.2997 67.0064 57.7501 73.1617 57.7501 79.58C57.7501 85.9982 60.2997 92.1536 64.8381 96.692C69.3765 101.23 75.5318 103.78 81.9501 103.78H622.04C628.458 103.78 634.614 101.23 639.152 96.692C643.69 92.1536 646.24 85.9982 646.24 79.58C646.24 73.1617 643.69 67.0064 639.152 62.468C634.614 57.9296 628.458 55.38 622.04 55.38H81.9501Z" fill="#0000DF"/>
</g>
<g opacity="0.03">
<path d="M622 139.58H81.95C66.037 139.58 50.7757 133.258 39.5236 122.006C28.2714 110.754 21.95 95.4928 21.95 79.5798C21.95 63.6668 28.2714 48.4056 39.5236 37.1534C50.7757 25.9012 66.037 19.5798 81.95 19.5798H622.04C637.953 19.5798 653.214 25.9012 664.466 37.1534C675.718 48.4056 682.04 63.6668 682.04 79.5798C682.04 95.4928 675.718 110.754 664.466 122.006C653.214 133.258 637.953 139.58 622.04 139.58H622ZM81.95 53.2698C74.9721 53.2698 68.28 56.0418 63.3459 60.9759C58.4119 65.9099 55.64 72.602 55.64 79.5798C55.64 86.5577 58.4119 93.2497 63.3459 98.1838C68.28 103.118 74.9721 105.89 81.95 105.89H622.04C629.018 105.89 635.71 103.118 640.644 98.1838C645.578 93.2497 648.35 86.5577 648.35 79.5798C648.35 72.602 645.578 65.9099 640.644 60.9759C635.71 56.0418 629.018 53.2698 622.04 53.2698H81.95Z" fill="#0000DF"/>
</g>
<g opacity="0.04">
<path d="M622 137.47H81.95C74.283 137.571 66.6725 136.148 59.56 133.283C52.4475 130.419 45.9748 126.171 40.5175 120.785C35.0602 115.399 30.727 108.982 27.7695 101.908C24.812 94.8338 23.2891 87.2426 23.2891 79.575C23.2891 71.9075 24.812 64.3163 27.7695 57.242C30.727 50.1678 35.0602 43.7515 40.5175 38.3654C45.9748 32.9794 52.4475 28.7309 59.56 25.8666C66.6725 23.0023 74.283 21.5793 81.95 21.68H622.04C637.263 21.8801 651.794 28.0678 662.489 38.9035C673.183 49.7391 679.179 64.3508 679.179 79.575C679.179 94.7993 673.183 109.411 662.489 120.247C651.794 131.082 637.263 137.27 622.04 137.47H622ZM81.95 51.1601C74.4125 51.1601 67.1838 54.1543 61.854 59.4841C56.5242 64.8139 53.53 72.0426 53.53 79.5801C53.53 87.1175 56.5242 94.3462 61.854 99.676C67.1838 105.006 74.4125 108 81.95 108H622.04C629.484 107.86 636.576 104.805 641.79 99.4917C647.005 94.178 649.927 87.0302 649.927 79.585C649.927 72.1399 647.005 64.9921 641.79 59.6784C636.576 54.3648 629.484 51.3097 622.04 51.17L81.95 51.1601Z" fill="#0000DF"/>
</g>
<g opacity="0.05">
<path d="M622 135.37H81.9501C67.1537 135.37 52.9633 129.492 42.5007 119.03C32.038 108.567 26.1602 94.3765 26.1602 79.58C26.1602 64.7836 32.038 50.5932 42.5007 40.1306C52.9633 29.6679 67.1537 23.79 81.9501 23.79H622.04C636.837 23.79 651.027 29.6679 661.49 40.1306C671.952 50.5932 677.83 64.7836 677.83 79.58C677.83 94.3765 671.952 108.567 661.49 119.03C651.027 129.492 636.837 135.37 622.04 135.37H622ZM81.9501 49.06C77.8519 48.9116 73.7658 49.5906 69.9358 51.0565C66.1058 52.5225 62.6105 54.7452 59.6587 57.592C56.7069 60.4389 54.3591 63.8514 52.7555 67.6258C51.1519 71.4002 50.3254 75.4591 50.3254 79.56C50.3254 83.661 51.1519 87.7199 52.7555 91.4943C54.3591 95.2687 56.7069 98.6812 59.6587 101.528C62.6105 104.375 66.1058 106.598 69.9358 108.064C73.7658 109.529 77.8519 110.208 81.9501 110.06H622.04C629.938 109.774 637.417 106.435 642.903 100.747C648.39 95.0582 651.455 87.4632 651.455 79.56C651.455 71.6569 648.39 64.0619 642.903 58.3733C637.417 52.6847 629.938 49.3461 622.04 49.06H81.9501Z" fill="#0000DF"/>
</g>
<g opacity="0.06">
<path d="M622 133.26H81.9501C74.8384 133.357 67.7783 132.04 61.1799 129.386C54.5814 126.731 48.5761 122.792 43.5128 117.798C38.4494 112.803 34.4288 106.852 31.6846 100.29C28.9405 93.7288 27.5273 86.6873 27.5273 79.575C27.5273 72.4627 28.9405 65.4212 31.6846 58.8596C34.4288 52.298 38.4494 46.347 43.5128 41.3523C48.5761 36.3575 54.5814 32.4186 61.1799 29.7642C67.7783 27.1098 74.8384 25.7929 81.9501 25.89H622.04C636.151 26.0826 649.619 31.8234 659.53 41.8704C669.441 51.9173 674.997 65.4624 674.997 79.575C674.997 93.6876 669.441 107.233 659.53 117.28C649.619 127.327 636.151 133.067 622.04 133.26H622ZM81.9501 47C77.6176 46.9242 73.3134 47.712 69.2888 49.3175C65.2641 50.923 61.5995 53.314 58.5088 56.351C55.4181 59.3881 52.9633 63.0103 51.2876 67.0062C49.6119 71.0022 48.7488 75.2919 48.7488 79.625C48.7488 83.9581 49.6119 88.2478 51.2876 92.2438C52.9633 96.2398 55.4181 99.8619 58.5088 102.899C61.5995 105.936 65.2641 108.327 69.2888 109.933C73.3134 111.538 77.6176 112.326 81.9501 112.25H622.04C630.594 112.1 638.747 108.597 644.743 102.495C650.739 96.393 654.099 88.1801 654.099 79.625C654.099 71.0699 650.739 62.857 644.743 56.755C638.747 50.6529 630.594 47.1498 622.04 47H81.9501Z" fill="#0000DF"/>
</g>
<g opacity="0.08">
<path d="M622 131.16H81.9501C68.2703 131.16 55.1507 125.726 45.4775 116.053C35.8044 106.379 30.3701 93.2599 30.3701 79.58C30.3701 65.9001 35.8044 52.7806 45.4775 43.1074C55.1507 33.4343 68.2703 28 81.9501 28H622.04C635.72 28 648.84 33.4343 658.513 43.1074C668.186 52.7806 673.62 65.9001 673.62 79.58C673.62 93.2599 668.186 106.379 658.513 116.053C648.84 125.726 635.72 131.16 622.04 131.16H622ZM81.9501 44.85C77.3893 44.85 72.8732 45.7483 68.6595 47.4937C64.4459 49.239 60.6173 51.7972 57.3923 55.0222C54.1674 58.2472 51.6091 62.0758 49.8638 66.2894C48.1184 70.503 47.2202 75.0192 47.2202 79.58C47.2202 84.1408 48.1184 88.657 49.8638 92.8706C51.6091 97.0842 54.1674 100.913 57.3923 104.138C60.6173 107.363 64.4459 109.921 68.6595 111.666C72.8732 113.412 77.3893 114.31 81.9501 114.31H622.04C631.251 114.31 640.085 110.651 646.598 104.138C653.111 97.6247 656.77 88.791 656.77 79.58C656.77 70.369 653.111 61.5353 646.598 55.0222C640.085 48.509 631.251 44.85 622.04 44.85H81.9501Z" fill="#0000DF"/>
</g>
<g opacity="0.15">
<path d="M622 129.05H81.95C68.8217 129.05 56.2312 123.835 46.9482 114.552C37.6651 105.269 32.45 92.6783 32.45 79.5501C32.45 66.4218 37.6651 53.8313 46.9482 44.5483C56.2312 35.2652 68.8217 30.05 81.95 30.05H622.04C635.168 30.05 647.759 35.2652 657.042 44.5483C666.325 53.8313 671.54 66.4218 671.54 79.5501C671.54 92.6783 666.325 105.269 657.042 114.552C647.759 123.835 635.168 129.05 622.04 129.05H622ZM81.95 42.7401C77.0616 42.6595 72.2062 43.5528 67.6666 45.3677C63.127 47.1827 58.9941 49.8831 55.5087 53.3115C52.0233 56.74 49.2552 60.8278 47.3657 65.3369C45.4761 69.846 44.503 74.6861 44.503 79.575C44.503 84.464 45.4761 89.3041 47.3657 93.8132C49.2552 98.3223 52.0233 102.41 55.5087 105.839C58.9941 109.267 63.127 111.967 67.6666 113.782C72.2062 115.597 77.0616 116.491 81.95 116.41H622.04C631.704 116.251 640.919 112.3 647.697 105.409C654.475 98.5188 658.273 89.2405 658.273 79.575C658.273 69.9096 654.475 60.6313 647.697 53.7407C640.919 46.8501 631.704 42.8993 622.04 42.7401H81.95Z" fill="#0000DF"/>
</g>
<path d="M622 126.94H81.9501C75.6721 127.031 69.4386 125.873 63.6121 123.534C57.7855 121.195 52.4822 117.72 48.0104 113.313C43.5386 108.906 39.9876 103.653 37.5638 97.8614C35.14 92.0695 33.8918 85.8535 33.8918 79.5748C33.8918 73.2962 35.14 67.0802 37.5638 61.2883C39.9876 55.4963 43.5386 50.244 48.0104 45.8367C52.4822 41.4294 57.7855 37.9551 63.6121 35.6157C69.4386 33.2763 75.6721 32.1186 81.9501 32.2098H622.04C634.483 32.3906 646.355 37.4604 655.09 46.3234C663.825 55.1864 668.722 67.1307 668.722 79.5748C668.722 92.0189 663.825 103.963 655.09 112.826C646.355 121.689 634.483 126.759 622.04 126.94H622ZM81.9501 40.6298C76.7832 40.547 71.6516 41.4932 66.854 43.4132C62.0564 45.3332 57.6889 48.1887 54.0057 51.8133C50.3226 55.4378 47.3975 59.7591 45.4009 64.5253C43.4043 69.2915 42.376 74.4073 42.376 79.5748C42.376 84.7423 43.4043 89.8582 45.4009 94.6244C47.3975 99.3906 50.3226 103.712 54.0057 107.336C57.6889 110.961 62.0564 113.816 66.854 115.736C71.6516 117.656 76.7832 118.603 81.9501 118.52H622.04C632.261 118.356 642.008 114.181 649.178 106.895C656.348 99.6093 660.366 89.7969 660.366 79.5748C660.366 69.3527 656.348 59.5404 649.178 52.2546C642.008 44.9688 632.261 40.7936 622.04 40.6298H81.9501Z" fill="#0000DF"/>
<path d="M622 124.14H81.9499C70.1292 124.14 58.7926 119.444 50.4341 111.086C42.0756 102.727 37.3799 91.3907 37.3799 79.57C37.3799 67.7493 42.0756 56.4127 50.4341 48.0543C58.7926 39.6958 70.1292 35 81.9499 35H622.04C633.858 35 645.192 39.6947 653.549 48.0513C661.905 56.4079 666.6 67.742 666.6 79.56C666.6 91.378 661.905 102.712 653.549 111.069C645.192 119.425 633.858 124.12 622.04 124.12L622 124.14ZM81.9499 37.83C76.4672 37.83 71.0382 38.9099 65.9728 41.008C60.9075 43.1062 56.305 46.1814 52.4282 50.0583C48.5513 53.9351 45.4761 58.5376 43.3779 63.603C41.2798 68.6683 40.1999 74.0973 40.1999 79.58C40.1999 85.0627 41.2798 90.4917 43.3779 95.557C45.4761 100.622 48.5513 105.225 52.4282 109.102C56.305 112.979 60.9075 116.054 65.9728 118.152C71.0382 120.25 76.4672 121.33 81.9499 121.33H622.04C633.113 121.33 643.732 116.931 651.562 109.102C659.391 101.272 663.79 90.6528 663.79 79.58C663.79 68.5072 659.391 57.8879 651.562 50.0583C643.732 42.2286 633.113 37.83 622.04 37.83H81.9499Z" fill="white"/>
<defs>
<linearGradient id="paint0_linear_7_4128" x1="351.95" y1="122.73" x2="351.95" y2="36.4199" gradientUnits="userSpaceOnUse">
<stop stop-color="#003BDF"/>
<stop offset="0.04" stop-color="#0036CA"/>
<stop offset="0.13" stop-color="#00299B"/>
<stop offset="0.22" stop-color="#001E72"/>
<stop offset="0.32" stop-color="#00154E"/>
<stop offset="0.43" stop-color="#000D32"/>
<stop offset="0.54" stop-color="#00071C"/>
<stop offset="0.66" stop-color="#00030C"/>
<stop offset="0.8" stop-color="#000103"/>
<stop offset="1"/>
</linearGradient>
</defs>
</svg>
