<svg width="42" height="42" viewBox="0 0 42 42" fill="none" xmlns="http://www.w3.org/2000/svg">
<path d="M38.73 41.7032H3.22998C2.37241 41.7005 1.55089 41.358 0.945435 40.7507C0.339978 40.1434 -4.08458e-06 39.3208 0 38.4632V16.2432C0 16.039 0.0810609 15.8431 0.225464 15.6987C0.369867 15.5543 0.565803 15.4732 0.77002 15.4732C0.974236 15.4732 1.17005 15.5543 1.31445 15.6987C1.45886 15.8431 1.53992 16.039 1.53992 16.2432V38.4632C1.53991 38.9123 1.71765 39.3432 2.0343 39.6618C2.35095 39.9803 2.78085 40.1606 3.22998 40.1632H37.96V35.4732C37.96 35.269 38.0411 35.0731 38.1855 34.9287C38.3299 34.7843 38.5258 34.7032 38.73 34.7032C38.9342 34.7032 39.13 34.7843 39.2744 34.9287C39.4188 35.0731 39.5 35.269 39.5 35.4732V40.9332C39.4974 41.1366 39.4155 41.331 39.2716 41.4748C39.1278 41.6186 38.9334 41.7006 38.73 41.7032ZM38.09 33.9032H25.6C24.4153 33.9005 23.2799 33.4288 22.4421 32.591C21.6044 31.7533 21.1326 30.6179 21.13 29.4332V27.0632C21.1327 25.8794 21.6047 24.745 22.4427 23.9089C23.2807 23.0728 24.4162 22.6032 25.6 22.6032H38.09C38.4917 22.6036 38.8804 22.4609 39.1864 22.2007C39.4924 21.9405 39.6958 21.5797 39.76 21.1832C39.7886 21.0021 39.8808 20.8372 40.0201 20.718C40.1595 20.5989 40.3367 20.5333 40.52 20.5332C40.7242 20.5332 40.9201 20.6143 41.0645 20.7587C41.2089 20.9031 41.2899 21.099 41.2899 21.3032V30.6632C41.2874 31.5148 40.9507 32.3314 40.3523 32.9374C39.7539 33.5433 38.9415 33.8901 38.09 33.9032ZM25.6 24.1432C24.8246 24.1432 24.0808 24.4505 23.5316 24.9978C22.9824 25.5452 22.6726 26.2878 22.6699 27.0632V29.4332C22.6699 30.2103 22.9787 30.9555 23.5282 31.505C24.0777 32.0545 24.8229 32.3632 25.6 32.3632H38.09C38.3136 32.3645 38.5352 32.3215 38.7421 32.2365C38.9489 32.1515 39.1369 32.0264 39.295 31.8682C39.4532 31.7101 39.5782 31.5222 39.6632 31.3153C39.7482 31.1085 39.7912 30.8868 39.7899 30.6632V23.6632C39.2774 23.9747 38.6897 24.1406 38.09 24.1432H25.6ZM38.73 20.9932C38.5258 20.9932 38.3299 20.9121 38.1855 20.7677C38.0411 20.6233 37.96 20.4274 37.96 20.2232V15.3032H3.22998C2.37333 15.3032 1.55179 14.9629 0.946045 14.3571C0.340302 13.7514 0 12.9298 0 12.0732V11.3732C0 10.5165 0.340302 9.69498 0.946045 9.08924C1.55179 8.4835 2.37333 8.14319 3.22998 8.14319H6.84998C7.05419 8.14319 7.25001 8.22432 7.39441 8.36872C7.53881 8.51312 7.62 8.70898 7.62 8.91319C7.62 9.11741 7.53881 9.31326 7.39441 9.45766C7.25001 9.60207 7.05419 9.68319 6.84998 9.68319H3.22998C3.00805 9.68319 2.78829 9.72691 2.58325 9.81184C2.37821 9.89677 2.19184 10.0213 2.03491 10.1782C1.87798 10.3351 1.75351 10.5214 1.66858 10.7265C1.58365 10.9315 1.53992 11.1513 1.53992 11.3732V12.0732C1.53992 12.2951 1.58365 12.5149 1.66858 12.7199C1.75351 12.925 1.87798 13.1113 2.03491 13.2682C2.19184 13.4251 2.37821 13.5496 2.58325 13.6346C2.78829 13.7195 3.00805 13.7632 3.22998 13.7632H38.73C38.9334 13.7658 39.1278 13.8477 39.2716 13.9916C39.4155 14.1354 39.4974 14.3298 39.5 14.5332V20.2132C39.5013 20.3152 39.4823 20.4164 39.4442 20.5109C39.4061 20.6055 39.3496 20.6916 39.278 20.7641C39.2063 20.8367 39.1211 20.8943 39.027 20.9336C38.9329 20.973 38.8319 20.9932 38.73 20.9932ZM33.1899 12.6532C32.9874 12.6532 32.7932 12.5735 32.649 12.4312C32.5049 12.289 32.4226 12.0957 32.4199 11.8932V9.69319H31.5499C31.3457 9.69319 31.1499 9.61207 31.0055 9.46767C30.8611 9.32326 30.7799 9.12741 30.7799 8.92319C30.7799 8.71898 30.8611 8.52313 31.0055 8.37872C31.1499 8.23432 31.3457 8.15319 31.5499 8.15319H33.1899C33.3934 8.15578 33.5877 8.23774 33.7316 8.38158C33.8754 8.52543 33.9574 8.71978 33.96 8.92319V11.9232C33.9613 12.0247 33.9423 12.1254 33.9041 12.2194C33.8658 12.3135 33.8092 12.3989 33.7374 12.4707C33.6657 12.5424 33.5802 12.5991 33.4862 12.6373C33.3922 12.6755 33.2914 12.6945 33.1899 12.6932V12.6532Z" fill="#8957FF"/>
<path d="M12.2201 12.3832C12.0957 12.2229 12.0386 12.0205 12.061 11.8189C12.0834 11.6172 12.1835 11.4323 12.3401 11.3032L17.3401 7.14319C17.4956 7.01284 17.6963 6.94918 17.8985 6.96603C18.1008 6.98288 18.2882 7.0789 18.42 7.2332C18.8498 7.70153 19.4472 7.98111 20.0821 8.01108C20.717 8.04105 21.3381 7.81896 21.81 7.39319C21.8858 7.32137 21.9755 7.26571 22.0735 7.22961C22.1714 7.19351 22.2758 7.17772 22.3801 7.18319C22.4831 7.18708 22.5843 7.21217 22.6772 7.25691C22.7701 7.30164 22.8527 7.36506 22.92 7.4432L26.44 11.3832C26.5117 11.4547 26.5686 11.5397 26.6074 11.6332C26.6462 11.7267 26.6661 11.827 26.6661 11.9282C26.6661 12.0294 26.6462 12.1297 26.6074 12.2232C26.5686 12.3167 26.5117 12.4017 26.44 12.4732C26.2866 12.6078 26.0866 12.6769 25.8828 12.6657C25.679 12.6544 25.4878 12.5638 25.3501 12.4132L22.3 9.00319C21.6181 9.40912 20.831 9.60306 20.0385 9.56032C19.2461 9.51758 18.4843 9.24011 17.8501 8.7632L13.3401 12.4732C13.2628 12.5454 13.1714 12.6007 13.0715 12.6356C12.9716 12.6704 12.8656 12.684 12.7602 12.6756C12.6548 12.6671 12.5523 12.6367 12.4593 12.5864C12.3663 12.536 12.2848 12.4668 12.2201 12.3832ZM6.7601 12.2732C6.63034 12.1148 6.56805 11.9116 6.58676 11.7077C6.60547 11.5038 6.70365 11.3154 6.86007 11.1832L20.0201 0.183193C20.1728 0.0522362 20.3711 -0.0128782 20.5716 0.00211698C20.7722 0.0171121 20.9586 0.110996 21.0901 0.263195L30.95 11.2632C31.0338 11.3353 31.101 11.4245 31.1472 11.5249C31.1934 11.6252 31.2175 11.7344 31.2177 11.8448C31.218 11.9553 31.1946 12.0646 31.1489 12.1652C31.1032 12.2658 31.0363 12.3553 30.953 12.4278C30.8696 12.5003 30.7717 12.554 30.6657 12.5853C30.5598 12.6166 30.4483 12.6247 30.339 12.6091C30.2296 12.5934 30.1248 12.5545 30.0318 12.4948C29.9389 12.4351 29.8598 12.3561 29.8 12.2632L20.44 1.79319L7.85006 12.3332C7.70047 12.4716 7.50262 12.5459 7.29892 12.5403C7.09521 12.5347 6.90186 12.4496 6.7601 12.3032V12.2732Z" fill="#17E200"/>
<path d="M7.0002 12.0732C6.95996 12.0272 6.92944 11.9736 6.9106 11.9155C6.89176 11.8574 6.88497 11.7961 6.89058 11.7353C6.89619 11.6745 6.91416 11.6154 6.94332 11.5618C6.97247 11.5081 7.01217 11.461 7.06014 11.4232L20.2202 0.423164C20.262 0.380836 20.3118 0.34723 20.3668 0.324295C20.4217 0.30136 20.4806 0.289551 20.5401 0.289551C20.5996 0.289551 20.6587 0.30136 20.7136 0.324295C20.7685 0.34723 20.8183 0.380836 20.8602 0.423164L30.7202 11.4232C30.8011 11.5147 30.8423 11.6345 30.8348 11.7564C30.8273 11.8783 30.7716 11.9923 30.6801 12.0732C30.5886 12.154 30.4688 12.1953 30.3469 12.1878C30.225 12.1803 30.111 12.1247 30.0301 12.0332L20.4702 1.34316L7.65022 12.0832C7.56266 12.1679 7.44495 12.2145 7.32308 12.2126C7.2012 12.2108 7.08511 12.1606 7.0002 12.0732Z" fill="#AAFF5C"/>
<path d="M12.46 12.1832C12.4205 12.1373 12.3904 12.0841 12.3715 12.0265C12.3526 11.9689 12.3453 11.9082 12.35 11.8478C12.3546 11.7874 12.3711 11.7286 12.3986 11.6746C12.426 11.6206 12.464 11.5725 12.51 11.5332L17.51 7.37322C17.5559 7.3337 17.6091 7.30364 17.6666 7.28476C17.7242 7.26588 17.785 7.25855 17.8454 7.2632C17.9058 7.26784 17.9647 7.28437 18.0187 7.31183C18.0727 7.33929 18.1206 7.37715 18.1599 7.42322C18.6469 7.9526 19.3226 8.26923 20.041 8.30478C20.7595 8.34032 21.4631 8.09193 22 7.61322C22.0437 7.57079 22.0954 7.53745 22.152 7.51513C22.2086 7.49282 22.2691 7.48197 22.33 7.48322C22.3924 7.48397 22.454 7.4977 22.5108 7.52352C22.5676 7.54934 22.6183 7.5867 22.6599 7.63322L26.19 11.6332C26.23 11.6785 26.2607 11.7313 26.2804 11.7885C26.3001 11.8456 26.3083 11.9061 26.3046 11.9665C26.3009 12.0269 26.2853 12.0859 26.2588 12.1402C26.2323 12.1946 26.1954 12.2432 26.15 12.2832C26.1047 12.3233 26.052 12.354 25.9948 12.3737C25.9376 12.3933 25.877 12.4016 25.8167 12.3978C25.7563 12.3941 25.6973 12.3786 25.643 12.352C25.5886 12.3255 25.5401 12.2885 25.5 12.2432L22.27 8.63322C21.6005 9.09896 20.7951 9.32909 19.9806 9.28746C19.1661 9.24583 18.3886 8.93479 17.77 8.40322L13.13 12.2932C13.0799 12.3328 13.022 12.3614 12.9601 12.3773C12.8983 12.3933 12.8338 12.3962 12.7708 12.3858C12.7077 12.3755 12.6475 12.3521 12.594 12.3173C12.5405 12.2824 12.4949 12.2367 12.46 12.1832Z" fill="#AAFF5C"/>
<path d="M7.24023 11.8732C7.22534 11.8601 7.21337 11.8439 7.2052 11.8258C7.19703 11.8077 7.19287 11.7881 7.19287 11.7682C7.19287 11.7483 7.19703 11.7287 7.2052 11.7106C7.21337 11.6925 7.22534 11.6763 7.24023 11.6632L20.4003 0.663193C20.43 0.63506 20.4693 0.619385 20.5103 0.619385C20.5512 0.619385 20.5905 0.63506 20.6202 0.663193L30.4802 11.6632C30.5084 11.6929 30.524 11.7323 30.524 11.7732C30.524 11.8141 30.5084 11.8535 30.4802 11.8832C30.4495 11.9093 30.4105 11.9236 30.3702 11.9236C30.3299 11.9236 30.291 11.9093 30.2603 11.8832L20.5002 0.963196L7.4502 11.8932C7.43569 11.9069 7.41843 11.9174 7.39954 11.9239C7.38064 11.9304 7.36059 11.9328 7.3407 11.9309C7.3208 11.929 7.30151 11.9229 7.28418 11.9129C7.26685 11.903 7.25189 11.8894 7.24023 11.8732Z" fill="#E4FFA3"/>
<path d="M12.6902 11.9832C12.6649 11.9541 12.6509 11.9168 12.6509 11.8782C12.6509 11.8396 12.6649 11.8023 12.6902 11.7732L17.6902 7.60319C17.7182 7.5757 17.7559 7.5603 17.7952 7.5603C17.8344 7.5603 17.8722 7.5757 17.9003 7.60319C18.1654 7.90303 18.4879 8.14679 18.8486 8.32011C19.2094 8.49342 19.6012 8.59279 20.001 8.61236C20.4008 8.63193 20.8004 8.5713 21.1764 8.43405C21.5524 8.2968 21.897 8.0857 22.1902 7.81319C22.2258 7.801 22.2645 7.801 22.3002 7.81319C22.3211 7.81278 22.3418 7.81705 22.3608 7.82571C22.3799 7.83436 22.3967 7.84716 22.4102 7.86318L25.9402 11.8032C25.9683 11.8329 25.984 11.8723 25.984 11.9132C25.984 11.9541 25.9683 11.9935 25.9402 12.0232C25.9121 12.0507 25.8745 12.0661 25.8352 12.0661C25.7959 12.0661 25.7583 12.0507 25.7302 12.0232L22.3402 8.16319C21.7449 8.67615 20.986 8.95983 20.2002 8.96319C19.756 8.96911 19.3155 8.88336 18.906 8.7113C18.4965 8.53923 18.1268 8.28456 17.8202 7.96319L12.9602 12.0332C12.9438 12.0573 12.9208 12.076 12.8939 12.0872C12.8671 12.0984 12.8375 12.1016 12.8088 12.0963C12.7802 12.091 12.7539 12.0775 12.7328 12.0574C12.7117 12.0373 12.6969 12.0115 12.6902 11.9832Z" fill="#E4FFA3"/>
<path d="M33.1901 12.3533C33.0672 12.3506 32.9501 12.3 32.8641 12.2121C32.7781 12.1242 32.7301 12.0062 32.7301 11.8833V9.38326H31.5601C31.4389 9.3807 31.3234 9.33142 31.2377 9.2457C31.152 9.15998 31.1027 9.04445 31.1001 8.92326C31.1001 8.80126 31.1486 8.68425 31.2349 8.59798C31.3211 8.51172 31.4381 8.46326 31.5601 8.46326H33.2001C33.2605 8.46326 33.3203 8.47515 33.3761 8.49827C33.4319 8.52139 33.4827 8.55527 33.5254 8.59798C33.5681 8.6407 33.602 8.69141 33.6251 8.74722C33.6482 8.80303 33.66 8.86285 33.66 8.92326V11.9233C33.6614 11.9845 33.6504 12.0454 33.6279 12.1024C33.6054 12.1593 33.5718 12.2112 33.5289 12.255C33.4861 12.2988 33.4349 12.3336 33.3784 12.3573C33.3219 12.381 33.2613 12.3933 33.2001 12.3932L33.1901 12.3533Z" fill="#B57DFF"/>
<path d="M38.7301 20.6932C38.6688 20.6933 38.6082 20.681 38.5518 20.6573C38.4953 20.6335 38.4441 20.5988 38.4012 20.555C38.3584 20.5112 38.3248 20.4593 38.3022 20.4023C38.2797 20.3454 38.2688 20.2845 38.2701 20.2232V15.0132H3.27014C2.49479 15.0106 1.75203 14.7007 1.20471 14.1515C0.657391 13.6023 0.350093 12.8586 0.350098 12.0832V11.3832C0.350098 10.6088 0.657716 9.8661 1.20532 9.31849C1.75293 8.77088 2.49571 8.46324 3.27014 8.46324H6.89014C6.95138 8.46191 7.01224 8.47282 7.06921 8.49534C7.12618 8.51786 7.17802 8.55154 7.2218 8.59439C7.26558 8.63723 7.30036 8.6884 7.3241 8.74487C7.34784 8.80134 7.36012 8.86198 7.36011 8.92324C7.35749 9.04615 7.30685 9.16314 7.21899 9.24913C7.13113 9.33512 7.01308 9.38327 6.89014 9.38324H3.27014C2.73971 9.38324 2.23091 9.59395 1.85583 9.96903C1.48076 10.3441 1.27014 10.8528 1.27014 11.3832V12.0832C1.27014 12.6137 1.48076 13.1224 1.85583 13.4975C2.23091 13.8725 2.73971 14.0832 3.27014 14.0832H38.7701C38.8913 14.0858 39.0068 14.1351 39.0925 14.2208C39.1782 14.3065 39.2276 14.422 39.2301 14.5432V20.2232C39.2302 20.2876 39.2171 20.3512 39.1917 20.4103C39.1662 20.4694 39.1289 20.5226 39.082 20.5667C39.0352 20.6107 38.9797 20.6447 38.9192 20.6665C38.8587 20.6882 38.7943 20.6973 38.7301 20.6932Z" fill="#B57DFF"/>
<path d="M38.7301 41.3932H3.2301C2.45475 41.3905 1.71199 41.0807 1.16467 40.5315C0.617352 39.9823 0.310054 39.2386 0.310059 38.4632V16.2432C0.310059 16.1212 0.358557 16.0042 0.444824 15.9179C0.531091 15.8317 0.648142 15.7832 0.770142 15.7832C0.891341 15.7858 1.00681 15.835 1.09253 15.9208C1.17825 16.0065 1.22755 16.122 1.2301 16.2432V38.4632C1.2301 38.9936 1.44085 39.5023 1.81592 39.8774C2.19099 40.2525 2.69967 40.4632 3.2301 40.4632H38.2301V35.4632C38.2287 35.4024 38.2397 35.342 38.2623 35.2856C38.285 35.2291 38.3188 35.1779 38.3618 35.1349C38.4048 35.0919 38.456 35.0581 38.5125 35.0354C38.5689 35.0128 38.6293 35.0018 38.6901 35.0032C38.8121 35.0032 38.9291 35.0517 39.0154 35.1379C39.1016 35.2242 39.1501 35.3412 39.1501 35.4632V40.9232C39.1508 41.0397 39.1081 41.1522 39.0305 41.239C38.9529 41.3259 38.8459 41.3808 38.7301 41.3932Z" fill="#B57DFF"/>
<path d="M38.09 33.5931H25.6C24.4975 33.5905 23.441 33.1514 22.6614 32.3718C21.8818 31.5922 21.4426 30.5356 21.4399 29.4331V27.0631C21.4426 25.9616 21.8821 24.906 22.662 24.128C23.4419 23.35 24.4984 22.9131 25.6 22.9131H38.09C38.5693 22.9193 39.035 22.7531 39.4021 22.4447C39.7692 22.1364 40.0133 21.7064 40.09 21.2331C40.1068 21.1236 40.1627 21.0239 40.2472 20.9522C40.3317 20.8806 40.4391 20.8419 40.5499 20.8431C40.6766 20.8403 40.7994 20.8866 40.8926 20.9724C40.9858 21.0582 41.0422 21.1767 41.0499 21.3031V30.6631C41.0499 31.0504 40.9732 31.4339 40.8241 31.7914C40.675 32.1488 40.4564 32.4732 40.1812 32.7456C39.9059 33.0181 39.5794 33.2333 39.2205 33.3788C38.8615 33.5242 38.4773 33.5971 38.09 33.5931ZM25.6 23.8331C24.7424 23.8331 23.9198 24.1731 23.3125 24.7786C22.7052 25.384 22.3626 26.2056 22.36 27.0631V29.4331C22.3626 30.2907 22.7052 31.1122 23.3125 31.7177C23.9198 32.3232 24.7424 32.6631 25.6 32.6631H38.09C38.6204 32.6631 39.1291 32.4524 39.5042 32.0774C39.8792 31.7023 40.09 31.1936 40.09 30.6631V23.0431C39.5481 23.5513 38.8329 23.8338 38.09 23.8331H25.6Z" fill="#B57DFF"/>
<path d="M33.1902 12.0432C33.1495 12.0406 33.1114 12.0227 33.0835 11.9929C33.0556 11.9632 33.0401 11.9239 33.0402 11.8832V9.07318H31.5602C31.5204 9.07318 31.4822 9.05738 31.4541 9.02925C31.426 9.00112 31.4102 8.96297 31.4102 8.92319C31.4101 8.88243 31.4256 8.84317 31.4535 8.81344C31.4814 8.7837 31.5195 8.76573 31.5602 8.76318H33.2002C33.2409 8.76573 33.279 8.7837 33.3069 8.81344C33.3348 8.84317 33.3503 8.88243 33.3502 8.92319V11.9232C33.3502 11.9656 33.3334 12.0063 33.3033 12.0363C33.2733 12.0663 33.2326 12.0832 33.1902 12.0832V12.0432Z" fill="#E8BAFF"/>
<path d="M38.7303 20.3832C38.7098 20.3832 38.6894 20.379 38.6705 20.3709C38.6516 20.3627 38.6347 20.3508 38.6206 20.3358C38.6065 20.3208 38.5957 20.303 38.5887 20.2837C38.5818 20.2643 38.579 20.2437 38.5803 20.2232V14.7032H3.23035C2.53629 14.7006 1.87139 14.4237 1.38062 13.9329C0.88984 13.4421 0.612986 12.7772 0.610352 12.0832V11.3832C0.612986 10.6891 0.88984 10.0243 1.38062 9.53348C1.87139 9.0427 2.53629 8.76582 3.23035 8.76318H6.85034C6.89278 8.76318 6.9335 8.78005 6.9635 8.81005C6.99351 8.84006 7.01038 8.88075 7.01038 8.92319C7.00783 8.96387 6.98982 9.00203 6.96008 9.02991C6.93035 9.05778 6.8911 9.07326 6.85034 9.07318H3.23035C2.61851 9.07581 2.03249 9.32004 1.59985 9.75268C1.16721 10.1853 0.92292 10.7713 0.920288 11.3832V12.0832C0.92292 12.695 1.16721 13.2811 1.59985 13.7137C2.03249 14.1463 2.61851 14.3905 3.23035 14.3932H38.7303C38.7701 14.3932 38.8083 14.409 38.8364 14.4371C38.8646 14.4652 38.8804 14.5034 38.8804 14.5432V20.2232C38.8805 20.2639 38.8649 20.3032 38.837 20.3329C38.8092 20.3627 38.771 20.3806 38.7303 20.3832Z" fill="#E8BAFF"/>
<path d="M38.7303 41.0833H3.23035C2.53548 41.0833 1.86903 40.8072 1.37769 40.3159C0.88634 39.8245 0.610352 39.1581 0.610352 38.4633V16.2433C0.612899 16.2026 0.63091 16.1644 0.660645 16.1365C0.690379 16.1087 0.729628 16.0932 0.770386 16.0933C0.810168 16.0933 0.848212 16.1091 0.876343 16.1372C0.904473 16.1653 0.920288 16.2035 0.920288 16.2433V38.4633C0.920288 39.0759 1.16371 39.6635 1.59692 40.0967C2.03013 40.5299 2.6177 40.7733 3.23035 40.7733H38.5803V35.4733C38.579 35.4527 38.5818 35.4321 38.5887 35.4128C38.5957 35.3934 38.6065 35.3757 38.6206 35.3607C38.6347 35.3457 38.6516 35.3337 38.6705 35.3256C38.6894 35.3174 38.7098 35.3132 38.7303 35.3133C38.771 35.3158 38.8092 35.3338 38.837 35.3635C38.8649 35.3933 38.8805 35.4325 38.8804 35.4733V40.9333C38.8804 40.953 38.8764 40.9725 38.8689 40.9907C38.8614 41.0089 38.8504 41.0254 38.8364 41.0393C38.8225 41.0533 38.8059 41.0643 38.7877 41.0718C38.7695 41.0794 38.75 41.0833 38.7303 41.0833Z" fill="#E8BAFF"/>
<path d="M38.09 33.3032H25.6C24.5797 33.3006 23.6019 32.8941 22.8805 32.1727C22.159 31.4512 21.7526 30.4735 21.75 29.4532V27.0832C21.7526 26.0629 22.159 25.0852 22.8805 24.3638C23.6019 23.6423 24.5797 23.2359 25.6 23.2332H38.09C38.6324 23.2285 39.1557 23.0322 39.5674 22.6791C39.9791 22.3259 40.2527 21.8386 40.34 21.3032C40.3425 21.2652 40.3595 21.2296 40.3873 21.2036C40.4152 21.1776 40.4519 21.1631 40.49 21.1632C40.5356 21.1627 40.5799 21.1785 40.6147 21.2079C40.6496 21.2373 40.6727 21.2782 40.6799 21.3232V30.6832C40.68 31.3729 40.4081 32.0348 39.9232 32.5253C39.4383 33.0158 38.7796 33.2953 38.09 33.3032ZM25.6 23.5432C24.6619 23.5459 23.763 23.9197 23.0997 24.583C22.4364 25.2463 22.0626 26.1452 22.0599 27.0832V29.4532C22.0626 30.3913 22.4364 31.2902 23.0997 31.9535C23.763 32.6168 24.6619 32.9906 25.6 32.9932H38.09C38.3937 32.9945 38.6947 32.9357 38.9756 32.8201C39.2564 32.7045 39.5116 32.5344 39.7263 32.3196C39.9411 32.1048 40.1112 31.8496 40.2268 31.5688C40.3424 31.2879 40.4013 30.9869 40.4 30.6832V22.1632C40.1749 22.5799 39.8414 22.9281 39.4348 23.171C39.0282 23.4139 38.5636 23.5425 38.09 23.5432H25.6Z" fill="#E8BAFF"/>
</svg>
