<svg width="42" height="43" viewBox="0 0 42 43" fill="none" xmlns="http://www.w3.org/2000/svg">
<path d="M39.3398 42.4001H3.83984C2.98228 42.3974 2.16075 42.0549 1.5553 41.4476C0.949841 40.8403 0.609859 40.0177 0.609863 39.1601V16.9401C0.609863 16.7359 0.690924 16.54 0.835327 16.3956C0.97973 16.2512 1.17567 16.1701 1.37988 16.1701C1.5841 16.1701 1.77991 16.2512 1.92432 16.3956C2.06872 16.54 2.14978 16.7359 2.14978 16.9401V39.1601C2.14977 39.6092 2.32751 40.0401 2.64417 40.3587C2.96082 40.6772 3.39071 40.8575 3.83984 40.8601H38.5698V36.1701C38.5698 35.9659 38.651 35.77 38.7954 35.6256C38.9398 35.4812 39.1356 35.4001 39.3398 35.4001C39.5441 35.4001 39.7399 35.4812 39.8843 35.6256C40.0287 35.77 40.1099 35.9659 40.1099 36.1701V41.6301C40.1073 41.8335 40.0253 42.0279 39.8815 42.1717C39.7376 42.3155 39.5433 42.3975 39.3398 42.4001ZM38.6998 34.6001H26.2098C25.0251 34.5974 23.8897 34.1257 23.052 33.2879C22.2143 32.4502 21.7425 31.3148 21.7399 30.1301V27.7601C21.7425 26.5763 22.2146 25.4419 23.0526 24.6058C23.8906 23.7697 25.0261 23.3001 26.2098 23.3001H38.6998C39.1015 23.3005 39.4902 23.1578 39.7963 22.8976C40.1023 22.6374 40.3057 22.2766 40.3699 21.8801C40.3984 21.699 40.4907 21.5341 40.63 21.4149C40.7693 21.2958 40.9466 21.2302 41.1299 21.2301C41.3341 21.2301 41.5299 21.3112 41.6743 21.4556C41.8187 21.6 41.8998 21.7959 41.8998 22.0001V31.3601C41.8973 32.2117 41.5606 33.0283 40.9622 33.6343C40.3637 34.2402 39.5514 34.587 38.6998 34.6001ZM26.2098 24.8401C25.4345 24.8401 24.6907 25.1474 24.1415 25.6947C23.5923 26.2421 23.2824 26.9847 23.2798 27.7601V30.1301C23.2798 30.9072 23.5886 31.6524 24.1381 32.2019C24.6875 32.7514 25.4328 33.0601 26.2098 33.0601H38.6998C38.9234 33.0614 39.1451 33.0184 39.3519 32.9334C39.5588 32.8484 39.7468 32.7233 39.9049 32.5651C40.063 32.407 40.1881 32.2191 40.2731 32.0122C40.358 31.8054 40.4011 31.5837 40.3998 31.3601V24.3601C39.8873 24.6716 39.2996 24.8375 38.6998 24.8401H26.2098ZM39.3398 21.6901C39.1356 21.6901 38.9398 21.609 38.7954 21.4646C38.651 21.3202 38.5698 21.1243 38.5698 20.9201V16.0001H3.83984C2.98319 16.0001 2.16165 15.6598 1.55591 15.054C0.950166 14.4483 0.609863 13.6267 0.609863 12.7701V12.0701C0.609863 11.2134 0.950166 10.3919 1.55591 9.78614C2.16165 9.1804 2.98319 8.84009 3.83984 8.84009H7.45984C7.66406 8.84009 7.85987 8.92122 8.00427 9.06562C8.14868 9.21002 8.22986 9.40588 8.22986 9.61009C8.22986 9.81431 8.14868 10.0102 8.00427 10.1546C7.85987 10.299 7.66406 10.3801 7.45984 10.3801H3.83984C3.61791 10.3801 3.39816 10.4238 3.19312 10.5087C2.98807 10.5937 2.80171 10.7182 2.64478 10.8751C2.48784 11.032 2.36337 11.2183 2.27844 11.4234C2.19351 11.6284 2.14978 11.8482 2.14978 12.0701V12.7701C2.14978 12.992 2.19351 13.2118 2.27844 13.4168C2.36337 13.6219 2.48784 13.8082 2.64478 13.9651C2.80171 14.122 2.98807 14.2465 3.19312 14.3315C3.39816 14.4164 3.61791 14.4601 3.83984 14.4601H39.3398C39.5433 14.4627 39.7376 14.5446 39.8815 14.6885C40.0253 14.8323 40.1073 15.0267 40.1099 15.2301V20.9101C40.1112 21.0121 40.0922 21.1133 40.0541 21.2078C40.016 21.3024 39.9595 21.3885 39.8878 21.461C39.8162 21.5336 39.7309 21.5912 39.6368 21.6305C39.5428 21.6699 39.4418 21.6901 39.3398 21.6901ZM33.7998 13.3501C33.5973 13.3501 33.403 13.2704 33.2589 13.1281C33.1148 12.9859 33.0324 12.7926 33.0298 12.5901V10.3901H32.1598C31.9556 10.3901 31.7598 10.309 31.6154 10.1646C31.471 10.0202 31.3898 9.82431 31.3898 9.62009C31.3898 9.41588 31.471 9.22003 31.6154 9.07562C31.7598 8.93122 31.9556 8.85009 32.1598 8.85009H33.7998C34.0032 8.85268 34.1976 8.93464 34.3414 9.07848C34.4853 9.22233 34.5672 9.41668 34.5698 9.62009V12.6201C34.5712 12.7216 34.5521 12.8223 34.5139 12.9163C34.4757 13.0104 34.4191 13.0958 34.3473 13.1676C34.2755 13.2393 34.1901 13.296 34.0961 13.3342C34.002 13.3724 33.9013 13.3914 33.7998 13.3901V13.3501Z" fill="#8957FF"/>
<path d="M12.8299 13.08C12.7055 12.9197 12.6485 12.7173 12.6709 12.5156C12.6933 12.314 12.7934 12.129 12.9499 12L17.9499 7.83997C18.1055 7.70962 18.3061 7.64595 18.5084 7.66281C18.7106 7.67966 18.898 7.77567 19.0299 7.92997C19.4596 8.39831 20.0571 8.67789 20.692 8.70786C21.3269 8.73783 21.9479 8.51574 22.4199 8.08997C22.4957 8.01814 22.5853 7.96249 22.6833 7.92639C22.7813 7.89029 22.8857 7.87449 22.99 7.87997C23.093 7.88386 23.1942 7.90895 23.2871 7.95369C23.38 7.99842 23.4626 8.06184 23.5299 8.13997L27.0499 12.08C27.1216 12.1515 27.1785 12.2364 27.2173 12.33C27.256 12.4235 27.276 12.5237 27.276 12.625C27.276 12.7262 27.256 12.8265 27.2173 12.92C27.1785 13.0135 27.1216 13.0985 27.0499 13.17C26.8965 13.3046 26.6964 13.3736 26.4926 13.3624C26.2889 13.3512 26.0976 13.2606 25.9599 13.11L22.9099 9.69997C22.228 10.1059 21.4408 10.2998 20.6484 10.2571C19.856 10.2144 19.0942 9.93689 18.4599 9.45997L13.9499 13.17C13.8727 13.2422 13.7812 13.2975 13.6814 13.3323C13.5815 13.3672 13.4755 13.3808 13.3701 13.3723C13.2647 13.3639 13.1622 13.3335 13.0692 13.2831C12.9762 13.2328 12.8947 13.1636 12.8299 13.08ZM7.36996 12.97C7.2402 12.8115 7.17791 12.6084 7.19662 12.4045C7.21533 12.2005 7.31351 12.0122 7.46994 11.88L20.63 0.87997C20.7826 0.749014 20.9809 0.683899 21.1815 0.698894C21.382 0.713889 21.5684 0.807773 21.6999 0.959972L31.5599 11.96C31.6436 12.032 31.7109 12.1213 31.757 12.2217C31.8032 12.322 31.8273 12.4311 31.8276 12.5416C31.8279 12.6521 31.8044 12.7614 31.7588 12.8619C31.7131 12.9625 31.6462 13.0521 31.5628 13.1246C31.4795 13.1971 31.3816 13.2508 31.2756 13.2821C31.1696 13.3134 31.0582 13.3215 30.9488 13.3058C30.8394 13.2902 30.7347 13.2512 30.6417 13.1916C30.5487 13.1319 30.4696 13.0529 30.4099 12.96L21.0499 2.48997L8.45993 13.03C8.31033 13.1683 8.11249 13.2427 7.90878 13.2371C7.70507 13.2315 7.51172 13.1464 7.36996 13V12.97Z" fill="#17E200"/>
<path d="M13.0698 12.8799C13.0303 12.834 13.0002 12.7807 12.9813 12.7232C12.9625 12.6656 12.9552 12.6049 12.9599 12.5445C12.9645 12.4841 12.981 12.4252 13.0084 12.3712C13.0359 12.3172 13.0738 12.2692 13.1199 12.2299L18.1199 8.06987C18.1658 8.03036 18.219 8.00029 18.2765 7.98141C18.3341 7.96253 18.3948 7.95521 18.4552 7.95985C18.5156 7.9645 18.5746 7.98103 18.6286 8.00849C18.6826 8.03595 18.7305 8.0738 18.7698 8.11988C19.2568 8.64925 19.9325 8.96588 20.6509 9.00143C21.3693 9.03698 22.073 8.78859 22.6099 8.30987C22.6535 8.26744 22.7052 8.2341 22.7619 8.21179C22.8185 8.18947 22.879 8.17863 22.9398 8.17988C23.0022 8.18063 23.0638 8.19435 23.1206 8.22017C23.1774 8.246 23.2282 8.28336 23.2698 8.32988L26.7998 12.3299C26.8399 12.3752 26.8706 12.4279 26.8903 12.4851C26.9099 12.5423 26.9182 12.6028 26.9144 12.6632C26.9107 12.7235 26.8952 12.7826 26.8687 12.8369C26.8421 12.8912 26.8052 12.9398 26.7599 12.9799C26.7146 13.0199 26.6618 13.0507 26.6046 13.0703C26.5474 13.09 26.4869 13.0982 26.4265 13.0945C26.3662 13.0908 26.3072 13.0752 26.2528 13.0487C26.1985 13.0222 26.1499 12.9852 26.1099 12.9399L22.8799 9.32988C22.2104 9.79562 21.405 10.0257 20.5905 9.98411C19.776 9.94248 18.9985 9.63145 18.3799 9.09987L13.7399 12.9899C13.6897 13.0294 13.6318 13.0581 13.57 13.074C13.5081 13.0899 13.4437 13.0928 13.3806 13.0825C13.3176 13.0721 13.2574 13.0488 13.2039 13.0139C13.1504 12.979 13.1047 12.9334 13.0698 12.8799Z" fill="#AAFF5C"/>
<path d="M7.8501 12.57C7.8352 12.5568 7.82324 12.5407 7.81506 12.5226C7.80689 12.5045 7.80273 12.4848 7.80273 12.465C7.80273 12.4451 7.80689 12.4255 7.81506 12.4074C7.82324 12.3893 7.8352 12.3731 7.8501 12.36L21.0101 1.35997C21.0398 1.33184 21.0792 1.31616 21.1201 1.31616C21.161 1.31616 21.2004 1.33184 21.2301 1.35997L31.0901 12.36C31.1182 12.3897 31.1339 12.4291 31.1339 12.47C31.1339 12.5109 31.1182 12.5503 31.0901 12.58C31.0594 12.606 31.0204 12.6204 30.9801 12.6204C30.9398 12.6204 30.9008 12.606 30.8701 12.58L21.1101 1.65997L8.06006 12.59C8.04555 12.6037 8.02829 12.6142 8.0094 12.6207C7.9905 12.6272 7.97046 12.6296 7.95056 12.6277C7.93067 12.6258 7.91137 12.6197 7.89404 12.6097C7.87672 12.5998 7.86175 12.5862 7.8501 12.57Z" fill="#E4FFA3"/>
<path d="M13.3 12.68C13.2747 12.6508 13.2607 12.6135 13.2607 12.575C13.2607 12.5364 13.2747 12.4991 13.3 12.47L18.3 8.29996C18.3281 8.27248 18.3658 8.25708 18.405 8.25708C18.4443 8.25708 18.4821 8.27248 18.5101 8.29996C18.7753 8.59981 19.0977 8.84357 19.4585 9.01688C19.8193 9.1902 20.2111 9.28957 20.6108 9.30914C21.0106 9.3287 21.4103 9.26808 21.7863 9.13083C22.1622 8.99358 22.5069 8.78248 22.8 8.50996C22.8357 8.49777 22.8744 8.49777 22.91 8.50996C22.9309 8.50955 22.9517 8.51383 22.9707 8.52248C22.9897 8.53114 23.0066 8.54394 23.02 8.55996L26.55 12.5C26.5782 12.5297 26.5939 12.569 26.5939 12.61C26.5939 12.6509 26.5782 12.6902 26.55 12.72C26.522 12.7474 26.4843 12.7628 26.4451 12.7628C26.4058 12.7628 26.3681 12.7474 26.3401 12.72L22.9501 8.85996C22.3547 9.37293 21.5959 9.65661 20.8101 9.65997C20.3659 9.66589 19.9254 9.58014 19.5159 9.40807C19.1064 9.23601 18.7367 8.98134 18.4301 8.65997L13.5701 12.73C13.5537 12.754 13.5307 12.7728 13.5038 12.784C13.4769 12.7952 13.4473 12.7984 13.4187 12.7931C13.3901 12.7878 13.3637 12.7742 13.3427 12.7542C13.3216 12.7341 13.3067 12.7083 13.3 12.68Z" fill="#E4FFA3"/>
</svg>
